# MagicaVoxel @ Ephtracy

# group
o 

# material
mtllib Door.mtl
usemtl palette

# normals
vn -1 0 0
vn 1 0 0
vn 0 0 1
vn 0 0 -1
vn 0 -1 0
vn 0 1 0

# texcoords
vt 0.916016 0.5
vt 0.919922 0.5

# verts
v -2 0 0.0999998
v -2 0 -0.2
v -2 7.8 0.0999998
v -2 7.8 -0.2
v 0.8 4.7 0.0999998
v 0.8 4.7 -0.2
v 0.8 6.4 0.0999998
v 0.8 6.4 -0.2
v 1.1 2.9 -0.2
v 1.1 2.9 -0.5
v 1.1 3 -0.2
v 1.1 3 -0.4
v 1.1 3.7 -0.2
v 1.1 3.7 -0.4
v 1.1 3.8 -0.2
v 1.1 3.8 -0.5
v 0.1 4.7 0.0999998
v 0.1 4.7 -0.2
v 0.1 6.4 0.0999998
v 0.1 6.4 -0.2
v 1.4 2.9 -0.2
v 1.4 2.9 -0.5
v 1.4 3 -0.2
v 1.4 3 -0.4
v 1.4 3.7 -0.2
v 1.4 3.7 -0.4
v 1.4 3.8 -0.2
v 1.4 3.8 -0.5
v 1.8 0 0.0999998
v 1.8 0 -0.2
v 1.8 7.8 0.0999998
v 1.8 7.8 -0.2
v -2 0 0.0999998
v -2 7.8 0.0999998
v -1.7 0.2 0.0999998
v -1.7 2.9 0.0999998
v -1.7 3.1 0.0999998
v -1.7 7.3 0.0999998
v 2.38419e-07 4.6 0.0999998
v 2.38419e-07 6.5 0.0999998
v 0.1 4.7 0.0999998
v 0.1 6.4 0.0999998
v 0.8 4.7 0.0999998
v 0.8 6.4 0.0999998
v 0.9 4.6 0.0999998
v 0.9 6.5 0.0999998
v 1.4 0.2 0.0999998
v 1.4 2.9 0.0999998
v 1.4 3.1 0.0999998
v 1.4 7.3 0.0999998
v 1.8 0 0.0999998
v 1.8 7.8 0.0999998
v 1.1 3 -0.4
v 1.1 3.7 -0.4
v 1.4 3 -0.4
v 1.4 3.7 -0.4
v -2 0 -0.2
v -2 7.8 -0.2
v -1.7 0.2 -0.2
v -1.7 2.9 -0.2
v -1.7 3.1 -0.2
v -1.7 7.3 -0.2
v 2.38419e-07 4.6 -0.2
v 2.38419e-07 6.5 -0.2
v 0.1 4.7 -0.2
v 0.1 6.4 -0.2
v 0.8 4.7 -0.2
v 0.8 6.4 -0.2
v 0.9 4.6 -0.2
v 0.9 6.5 -0.2
v 1.1 2.9 -0.2
v 1.1 3 -0.2
v 1.1 3.7 -0.2
v 1.1 3.8 -0.2
v 1.4 0.2 -0.2
v 1.4 2.9 -0.2
v 1.4 3 -0.2
v 1.4 3.1 -0.2
v 1.4 3.7 -0.2
v 1.4 3.8 -0.2
v 1.4 7.3 -0.2
v 1.8 0 -0.2
v 1.8 7.8 -0.2
v 1.1 2.9 -0.5
v 1.1 3.8 -0.5
v 1.4 2.9 -0.5
v 1.4 3.8 -0.5
v -2 0 0.0999998
v 1.8 0 0.0999998
v -2 0 -0.2
v 1.8 0 -0.2
v 1.1 2.9 -0.2
v 1.4 2.9 -0.2
v 1.1 2.9 -0.5
v 1.4 2.9 -0.5
v 1.1 3.7 -0.2
v 1.4 3.7 -0.2
v 1.1 3.7 -0.4
v 1.4 3.7 -0.4
v 0.1 6.4 0.0999998
v 0.8 6.4 0.0999998
v 0.1 6.4 -0.2
v 0.8 6.4 -0.2
v 1.1 3 -0.2
v 1.4 3 -0.2
v 1.1 3 -0.4
v 1.4 3 -0.4
v 1.1 3.8 -0.2
v 1.4 3.8 -0.2
v 1.1 3.8 -0.5
v 1.4 3.8 -0.5
v 0.1 4.7 0.0999998
v 0.8 4.7 0.0999998
v 0.1 4.7 -0.2
v 0.8 4.7 -0.2
v -2 7.8 0.0999998
v 1.8 7.8 0.0999998
v -2 7.8 -0.2
v 1.8 7.8 -0.2

# faces
f 3/2/1 2/2/1 1/2/1
f 4/2/1 2/2/1 3/2/1
f 7/2/1 6/2/1 5/2/1
f 8/2/1 6/2/1 7/2/1
f 11/2/1 10/2/1 9/2/1
f 12/2/1 10/2/1 11/2/1
f 14/2/1 10/2/1 12/2/1
f 15/2/1 14/2/1 13/2/1
f 16/2/1 10/2/1 14/2/1
f 16/2/1 14/2/1 15/2/1
f 17/2/2 18/2/2 19/2/2
f 19/2/2 18/2/2 20/2/2
f 21/2/2 22/2/2 23/2/2
f 23/2/2 22/2/2 24/2/2
f 24/2/2 22/2/2 26/2/2
f 25/2/2 26/2/2 27/2/2
f 26/2/2 22/2/2 28/2/2
f 27/2/2 26/2/2 28/2/2
f 29/2/2 30/2/2 31/2/2
f 31/2/2 30/2/2 32/2/2
f 35/2/3 34/2/3 33/2/3
f 36/2/3 34/2/3 35/2/3
f 37/2/3 34/2/3 36/2/3
f 38/2/3 34/2/3 37/2/3
f 39/1/3 38/1/3 37/1/3
f 40/1/3 38/1/3 39/1/3
f 41/2/3 40/2/3 39/2/3
f 42/2/3 40/2/3 41/2/3
f 43/2/3 41/2/3 39/2/3
f 44/2/3 40/2/3 42/2/3
f 45/1/3 39/1/3 37/1/3
f 45/2/3 44/2/3 43/2/3
f 45/2/3 43/2/3 39/2/3
f 46/2/3 40/2/3 44/2/3
f 46/2/3 44/2/3 45/2/3
f 46/1/3 38/1/3 40/1/3
f 47/2/3 35/2/3 33/2/3
f 47/1/3 36/1/3 35/1/3
f 48/2/3 37/2/3 36/2/3
f 48/1/3 36/1/3 47/1/3
f 49/1/3 46/1/3 45/1/3
f 49/2/3 37/2/3 48/2/3
f 49/1/3 45/1/3 37/1/3
f 50/1/3 38/1/3 46/1/3
f 50/1/3 46/1/3 49/1/3
f 50/2/3 34/2/3 38/2/3
f 51/2/3 49/2/3 48/2/3
f 51/2/3 48/2/3 47/2/3
f 51/2/3 50/2/3 49/2/3
f 51/2/3 47/2/3 33/2/3
f 52/2/3 34/2/3 50/2/3
f 52/2/3 50/2/3 51/2/3
f 55/2/3 54/2/3 53/2/3
f 56/2/3 54/2/3 55/2/3
f 57/2/4 58/2/4 59/2/4
f 59/2/4 58/2/4 60/2/4
f 60/2/4 58/2/4 61/2/4
f 61/2/4 58/2/4 62/2/4
f 61/1/4 62/1/4 63/1/4
f 63/1/4 62/1/4 64/1/4
f 63/2/4 64/2/4 65/2/4
f 65/2/4 64/2/4 66/2/4
f 63/2/4 65/2/4 67/2/4
f 66/2/4 64/2/4 68/2/4
f 61/1/4 63/1/4 69/1/4
f 67/2/4 68/2/4 69/2/4
f 63/2/4 67/2/4 69/2/4
f 68/2/4 64/2/4 70/2/4
f 69/2/4 68/2/4 70/2/4
f 64/1/4 62/1/4 70/1/4
f 59/1/4 60/1/4 71/1/4
f 60/2/4 61/2/4 71/2/4
f 71/2/4 61/2/4 72/2/4
f 69/1/4 70/1/4 73/1/4
f 61/1/4 69/1/4 73/1/4
f 73/1/4 70/1/4 74/1/4
f 57/2/4 59/2/4 75/2/4
f 59/1/4 71/1/4 75/1/4
f 75/1/4 71/1/4 76/1/4
f 72/2/4 61/2/4 77/2/4
f 61/1/4 73/1/4 78/1/4
f 77/2/4 61/2/4 78/2/4
f 78/1/4 73/1/4 79/1/4
f 74/1/4 70/1/4 80/1/4
f 70/1/4 62/1/4 81/1/4
f 62/2/4 58/2/4 81/2/4
f 80/1/4 70/1/4 81/1/4
f 78/2/4 79/2/4 82/2/4
f 79/2/4 80/2/4 82/2/4
f 80/2/4 81/2/4 82/2/4
f 77/2/4 78/2/4 82/2/4
f 75/2/4 76/2/4 82/2/4
f 57/2/4 75/2/4 82/2/4
f 76/2/4 77/2/4 82/2/4
f 81/2/4 58/2/4 83/2/4
f 82/2/4 81/2/4 83/2/4
f 84/2/4 85/2/4 86/2/4
f 86/2/4 85/2/4 87/2/4
f 90/2/5 89/2/5 88/2/5
f 91/2/5 89/2/5 90/2/5
f 94/2/5 93/2/5 92/2/5
f 95/2/5 93/2/5 94/2/5
f 98/2/5 97/2/5 96/2/5
f 99/2/5 97/2/5 98/2/5
f 102/2/5 101/2/5 100/2/5
f 103/2/5 101/2/5 102/2/5
f 104/2/6 105/2/6 106/2/6
f 106/2/6 105/2/6 107/2/6
f 108/2/6 109/2/6 110/2/6
f 110/2/6 109/2/6 111/2/6
f 112/2/6 113/2/6 114/2/6
f 114/2/6 113/2/6 115/2/6
f 116/2/6 117/2/6 118/2/6
f 118/2/6 117/2/6 119/2/6
