# MagicaVoxel @ Ephtracy

# group
o 

# material
mtllib ExitSign.mtl
usemtl palette

# normals
vn -1 0 0
vn 1 0 0
vn 0 0 1
vn 0 0 -1
vn 0 -1 0
vn 0 1 0

# texcoords
vt 0.0644531 0.5
vt 0.560547 0.5
vt 0.923828 0.5
vt 0.958984 0.5

# verts
v -0.9 4.8 -1.93715e-07
v -0.9 4.8 -0.2
v -0.9 6 -1.93715e-07
v -0.9 6 -0.2
v -0.8 4.9 0.0999998
v -0.8 4.9 -1.93715e-07
v -0.8 5.9 0.0999998
v -0.8 5.9 -1.93715e-07
v 0.6 4.9 0.0999998
v 0.6 4.9 -1.93715e-07
v 0.6 5.9 0.0999998
v 0.6 5.9 -1.93715e-07
v 0.7 4.8 -1.93715e-07
v 0.7 4.8 -0.2
v 0.7 6 -1.93715e-07
v 0.7 6 -0.2
v -0.8 4.9 0.0999998
v -0.8 5.9 0.0999998
v 0.6 4.9 0.0999998
v 0.6 5.9 0.0999998
v -0.9 4.8 -1.93715e-07
v -0.9 6 -1.93715e-07
v -0.8 4.9 -1.93715e-07
v -0.8 5.9 -1.93715e-07
v 0.6 4.9 -1.93715e-07
v 0.6 5.9 -1.93715e-07
v 0.7 4.8 -1.93715e-07
v 0.7 6 -1.93715e-07
v -0.9 4.8 -0.2
v -0.9 6 -0.2
v -0.8 5.7 -0.2
v -0.8 5.8 -0.2
v -0.7 5 -0.2
v -0.7 5.7 -0.2
v -0.6 5 -0.2
v -0.6 5.7 -0.2
v -0.5 5.7 -0.2
v -0.5 5.8 -0.2
v -0.4 5 -0.2
v -0.4 5.8 -0.2
v -0.3 5 -0.2
v -0.3 5.8 -0.2
v -0.2 5 -0.2
v -0.2 5.2 -0.2
v -0.2 5.5 -0.2
v -0.2 5.8 -0.2
v -0.1 5 -0.2
v -0.1 5.1 -0.2
v -0.1 5.2 -0.2
v -0.1 5.3 -0.2
v -0.1 5.4 -0.2
v -0.1 5.5 -0.2
v -0.1 5.6 -0.2
v -0.1 5.8 -0.2
v 0 5.1 -0.2
v 0 5.2 -0.2
v 0 5.3 -0.2
v 0 5.4 -0.2
v 0 5.5 -0.2
v 0 5.6 -0.2
v 0.1 5.1 -0.2
v 0.1 5.2 -0.2
v 0.1 5.3 -0.2
v 0.1 5.4 -0.2
v 0.1 5.5 -0.2
v 0.1 5.6 -0.2
v 0.2 5 -0.2
v 0.2 5.1 -0.2
v 0.2 5.2 -0.2
v 0.2 5.3 -0.2
v 0.2 5.4 -0.2
v 0.2 5.5 -0.2
v 0.2 5.6 -0.2
v 0.2 5.8 -0.2
v 0.3 5 -0.2
v 0.3 5.2 -0.2
v 0.3 5.5 -0.2
v 0.3 5.8 -0.2
v 0.4 5 -0.2
v 0.4 5.2 -0.2
v 0.4 5.3 -0.2
v 0.4 5.5 -0.2
v 0.4 5.6 -0.2
v 0.4 5.8 -0.2
v 0.5 5.2 -0.2
v 0.5 5.3 -0.2
v 0.5 5.5 -0.2
v 0.5 5.6 -0.2
v 0.6 5 -0.2
v 0.6 5.8 -0.2
v 0.7 4.8 -0.2
v 0.7 6 -0.2
v -0.9 4.8 -1.93715e-07
v 0.7 4.8 -1.93715e-07
v -0.9 4.8 -0.2
v 0.7 4.8 -0.2
v -0.8 4.9 0.0999998
v 0.6 4.9 0.0999998
v -0.8 4.9 -1.93715e-07
v 0.6 4.9 -1.93715e-07
v -0.8 5.9 0.0999998
v 0.6 5.9 0.0999998
v -0.8 5.9 -1.93715e-07
v 0.6 5.9 -1.93715e-07
v -0.9 6 -1.93715e-07
v 0.7 6 -1.93715e-07
v -0.9 6 -0.2
v 0.7 6 -0.2

# faces
f 3/4/1 2/4/1 1/4/1
f 4/4/1 2/4/1 3/4/1
f 7/3/1 6/3/1 5/3/1
f 8/3/1 6/3/1 7/3/1
f 9/3/2 10/3/2 11/3/2
f 11/3/2 10/3/2 12/3/2
f 13/4/2 14/4/2 15/4/2
f 15/4/2 14/4/2 16/4/2
f 19/3/3 18/3/3 17/3/3
f 20/3/3 18/3/3 19/3/3
f 23/4/3 22/4/3 21/4/3
f 24/4/3 22/4/3 23/4/3
f 25/4/3 23/4/3 21/4/3
f 26/4/3 22/4/3 24/4/3
f 27/4/3 25/4/3 21/4/3
f 27/4/3 26/4/3 25/4/3
f 28/4/3 22/4/3 26/4/3
f 28/4/3 26/4/3 27/4/3
f 29/4/4 30/4/4 31/4/4
f 31/4/4 30/4/4 32/4/4
f 29/4/4 31/4/4 33/4/4
f 31/1/4 32/1/4 34/1/4
f 33/4/4 31/4/4 34/4/4
f 29/4/4 33/4/4 35/4/4
f 33/1/4 34/1/4 35/1/4
f 34/1/4 32/1/4 36/1/4
f 35/1/4 34/1/4 36/1/4
f 35/4/4 36/4/4 37/4/4
f 36/1/4 32/1/4 37/1/4
f 32/4/4 30/4/4 38/4/4
f 37/1/4 32/1/4 38/1/4
f 35/4/4 37/4/4 39/4/4
f 29/4/4 35/4/4 39/4/4
f 37/4/4 38/4/4 39/4/4
f 38/4/4 30/4/4 40/4/4
f 39/4/4 38/4/4 40/4/4
f 29/4/4 39/4/4 41/4/4
f 39/1/4 40/1/4 41/1/4
f 40/4/4 30/4/4 42/4/4
f 41/1/4 40/1/4 42/1/4
f 29/4/4 41/4/4 43/4/4
f 41/4/4 42/4/4 43/4/4
f 43/4/4 42/4/4 44/4/4
f 44/4/4 42/4/4 45/4/4
f 42/4/4 30/4/4 46/4/4
f 45/4/4 42/4/4 46/4/4
f 29/4/4 43/4/4 47/4/4
f 43/1/4 44/1/4 47/1/4
f 47/1/4 44/1/4 48/1/4
f 44/4/4 45/4/4 49/4/4
f 48/1/4 44/1/4 49/1/4
f 49/4/4 45/4/4 50/4/4
f 50/4/4 45/4/4 51/4/4
f 45/1/4 46/1/4 52/1/4
f 51/4/4 45/4/4 52/4/4
f 52/1/4 46/1/4 53/1/4
f 46/4/4 30/4/4 54/4/4
f 53/1/4 46/1/4 54/1/4
f 47/4/4 48/4/4 55/4/4
f 48/1/4 49/1/4 55/1/4
f 49/1/4 50/1/4 55/1/4
f 55/1/4 50/1/4 56/1/4
f 50/4/4 51/4/4 57/4/4
f 56/1/4 50/1/4 57/1/4
f 52/1/4 53/1/4 58/1/4
f 57/4/4 51/4/4 58/4/4
f 51/1/4 52/1/4 58/1/4
f 58/1/4 53/1/4 59/1/4
f 53/4/4 54/4/4 60/4/4
f 59/1/4 53/1/4 60/1/4
f 55/4/4 56/4/4 61/4/4
f 47/4/4 55/4/4 61/4/4
f 56/1/4 57/1/4 62/1/4
f 61/4/4 56/4/4 62/4/4
f 58/1/4 59/1/4 62/1/4
f 57/1/4 58/1/4 62/1/4
f 62/1/4 59/1/4 63/1/4
f 63/1/4 59/1/4 64/1/4
f 59/4/4 60/4/4 65/4/4
f 64/1/4 59/1/4 65/1/4
f 60/4/4 54/4/4 66/4/4
f 65/4/4 60/4/4 66/4/4
f 47/4/4 61/4/4 67/4/4
f 29/4/4 47/4/4 67/4/4
f 61/1/4 62/1/4 68/1/4
f 67/4/4 61/4/4 68/4/4
f 62/1/4 63/1/4 68/1/4
f 68/1/4 63/1/4 69/1/4
f 63/4/4 64/4/4 70/4/4
f 69/1/4 63/1/4 70/1/4
f 64/1/4 65/1/4 71/1/4
f 70/4/4 64/4/4 71/4/4
f 65/1/4 66/1/4 71/1/4
f 71/1/4 66/1/4 72/1/4
f 66/4/4 54/4/4 73/4/4
f 72/1/4 66/1/4 73/1/4
f 54/4/4 30/4/4 74/4/4
f 73/4/4 54/4/4 74/4/4
f 67/1/4 68/1/4 75/1/4
f 68/1/4 69/1/4 75/1/4
f 29/4/4 67/4/4 75/4/4
f 71/4/4 72/4/4 76/4/4
f 75/1/4 69/1/4 76/1/4
f 69/4/4 70/4/4 76/4/4
f 70/4/4 71/4/4 76/4/4
f 72/1/4 73/1/4 77/1/4
f 76/4/4 72/4/4 77/4/4
f 73/1/4 74/1/4 77/1/4
f 74/4/4 30/4/4 78/4/4
f 77/1/4 74/1/4 78/1/4
f 75/4/4 76/4/4 79/4/4
f 29/4/4 75/4/4 79/4/4
f 77/4/4 78/4/4 79/4/4
f 76/4/4 77/4/4 79/4/4
f 79/4/4 78/4/4 80/4/4
f 80/4/4 78/4/4 81/4/4
f 81/4/4 78/4/4 82/4/4
f 82/4/4 78/4/4 83/4/4
f 78/4/4 30/4/4 84/4/4
f 83/4/4 78/4/4 84/4/4
f 79/1/4 80/1/4 85/1/4
f 80/4/4 81/4/4 85/4/4
f 81/1/4 82/1/4 86/1/4
f 85/4/4 81/4/4 86/4/4
f 82/4/4 83/4/4 87/4/4
f 86/1/4 82/1/4 87/1/4
f 83/1/4 84/1/4 88/1/4
f 87/4/4 83/4/4 88/4/4
f 85/1/4 86/1/4 89/1/4
f 29/4/4 79/4/4 89/4/4
f 87/1/4 88/1/4 89/1/4
f 79/1/4 85/1/4 89/1/4
f 86/1/4 87/1/4 89/1/4
f 88/1/4 84/1/4 90/1/4
f 89/1/4 88/1/4 90/1/4
f 84/4/4 30/4/4 90/4/4
f 29/4/4 89/4/4 91/4/4
f 89/4/4 90/4/4 91/4/4
f 90/4/4 30/4/4 92/4/4
f 91/4/4 90/4/4 92/4/4
f 95/4/5 94/4/5 93/4/5
f 96/4/5 94/4/5 95/4/5
f 99/3/5 98/3/5 97/3/5
f 100/3/5 98/3/5 99/3/5
f 101/3/6 102/3/6 103/3/6
f 103/3/6 102/3/6 104/3/6
f 105/4/6 106/4/6 107/4/6
f 107/4/6 106/4/6 108/4/6
