# MagicaVoxel @ Ephtracy

# group
o 

# material
mtllib FileCabinet.mtl
usemtl palette

# normals
vn -1 0 0
vn 1 0 0
vn 0 0 1
vn 0 0 -1
vn 0 -1 0
vn 0 1 0

# texcoords
vt 0.923828 0.5
vt 0.927734 0.5
vt 0.935547 0.5
vt 0.982422 0.5
vt 0.986328 0.5

# verts
v -1.5 0 1.5
v -1.5 0 1.3
v -1.5 0 -1.2
v -1.5 0 -1.4
v -1.5 5.7 1.3
v -1.5 5.7 -1.2
v -1.5 5.8 1.5
v -1.5 5.8 -1.4
v -1.5 5.9 1.5
v -1.5 5.9 -1.4
v -1.4 0 1.3
v -1.4 0 1.2
v -1.4 0 -1.1
v -1.4 0 -1.2
v -1.4 5.6 1.2
v -1.4 5.6 -1.1
v -1.4 5.7 1.3
v -1.4 5.7 -1.2
v -1.2 0 -1.3
v -1.2 0 -1.4
v -1.2 0.1 -1.3
v -1.2 0.1 -1.4
v -1.2 0.2 -1.3
v -1.2 0.2 -1.4
v -1.2 0.3 -1.3
v -1.2 0.3 -1.4
v -1.2 0.4 -1.3
v -1.2 0.4 -1.4
v -1.2 1.4 -1.3
v -1.2 1.4 -1.4
v -1.2 1.5 -1.3
v -1.2 1.5 -1.4
v -1.2 1.6 -1.3
v -1.2 1.6 -1.4
v -1.2 1.7 -1.3
v -1.2 1.7 -1.4
v -1.2 2.7 -1.3
v -1.2 2.7 -1.4
v -1.2 2.8 -1.3
v -1.2 2.8 -1.4
v -1.2 2.9 -1.3
v -1.2 2.9 -1.4
v -1.2 3 -1.3
v -1.2 3 -1.4
v -1.2 4.1 -1.3
v -1.2 4.1 -1.4
v -1.2 4.2 -1.3
v -1.2 4.2 -1.4
v -1.2 4.3 -1.3
v -1.2 4.3 -1.4
v -1.2 4.4 -1.3
v -1.2 4.4 -1.4
v -1.2 5.5 -1.3
v -1.2 5.5 -1.4
v -1.2 5.6 -1.3
v -1.2 5.6 -1.4
v -0.6 0.8 -1.4
v -0.6 0.8 -1.6
v -0.6 0.9 -1.4
v -0.6 0.9 -1.6
v -0.6 2.1 -1.4
v -0.6 2.1 -1.6
v -0.6 2.2 -1.4
v -0.6 2.2 -1.6
v -0.6 3.5 -1.4
v -0.6 3.5 -1.6
v -0.6 3.6 -1.4
v -0.6 3.6 -1.6
v -0.6 4.9 -1.4
v -0.6 4.9 -1.6
v -0.6 5 -1.4
v -0.6 5 -1.6
v 0.5 0.8 -1.4
v 0.5 0.8 -1.5
v 0.5 0.9 -1.4
v 0.5 0.9 -1.5
v 0.5 2.1 -1.4
v 0.5 2.1 -1.5
v 0.5 2.2 -1.4
v 0.5 2.2 -1.5
v 0.5 3.5 -1.4
v 0.5 3.5 -1.5
v 0.5 3.6 -1.4
v 0.5 3.6 -1.5
v 0.5 4.9 -1.4
v 0.5 4.9 -1.5
v 0.5 5 -1.4
v 0.5 5 -1.5
v 1.3 0 1.5
v 1.3 0 1.4
v 1.3 0 -1.3
v 1.3 0 -1.4
v 1.3 5.7 1.5
v 1.3 5.7 1.4
v 1.3 5.7 -1.3
v 1.3 5.7 -1.4
v -1.3 0 1.5
v -1.3 0 1.4
v -1.3 0 -1.3
v -1.3 0 -1.4
v -1.3 5.7 1.5
v -1.3 5.7 1.4
v -1.3 5.7 -1.3
v -1.3 5.7 -1.4
v -0.5 0.8 -1.4
v -0.5 0.8 -1.5
v -0.5 0.9 -1.4
v -0.5 0.9 -1.5
v -0.5 2.1 -1.4
v -0.5 2.1 -1.5
v -0.5 2.2 -1.4
v -0.5 2.2 -1.5
v -0.5 3.5 -1.4
v -0.5 3.5 -1.5
v -0.5 3.6 -1.4
v -0.5 3.6 -1.5
v -0.5 4.9 -1.4
v -0.5 4.9 -1.5
v -0.5 5 -1.4
v -0.5 5 -1.5
v 0.6 0.8 -1.4
v 0.6 0.8 -1.6
v 0.6 0.9 -1.4
v 0.6 0.9 -1.6
v 0.6 2.1 -1.4
v 0.6 2.1 -1.6
v 0.6 2.2 -1.4
v 0.6 2.2 -1.6
v 0.6 3.5 -1.4
v 0.6 3.5 -1.6
v 0.6 3.6 -1.4
v 0.6 3.6 -1.6
v 0.6 4.9 -1.4
v 0.6 4.9 -1.6
v 0.6 5 -1.4
v 0.6 5 -1.6
v 1.2 0 -1.3
v 1.2 0 -1.4
v 1.2 0.1 -1.3
v 1.2 0.1 -1.4
v 1.2 0.2 -1.3
v 1.2 0.2 -1.4
v 1.2 0.3 -1.3
v 1.2 0.3 -1.4
v 1.2 0.4 -1.3
v 1.2 0.4 -1.4
v 1.2 1.4 -1.3
v 1.2 1.4 -1.4
v 1.2 1.5 -1.3
v 1.2 1.5 -1.4
v 1.2 1.6 -1.3
v 1.2 1.6 -1.4
v 1.2 1.7 -1.3
v 1.2 1.7 -1.4
v 1.2 2.7 -1.3
v 1.2 2.7 -1.4
v 1.2 2.8 -1.3
v 1.2 2.8 -1.4
v 1.2 2.9 -1.3
v 1.2 2.9 -1.4
v 1.2 3 -1.3
v 1.2 3 -1.4
v 1.2 4.1 -1.3
v 1.2 4.1 -1.4
v 1.2 4.2 -1.3
v 1.2 4.2 -1.4
v 1.2 4.3 -1.3
v 1.2 4.3 -1.4
v 1.2 4.4 -1.3
v 1.2 4.4 -1.4
v 1.2 5.5 -1.3
v 1.2 5.5 -1.4
v 1.2 5.6 -1.3
v 1.2 5.6 -1.4
v 1.4 0 1.3
v 1.4 0 1.2
v 1.4 0 -1.1
v 1.4 0 -1.2
v 1.4 5.6 1.2
v 1.4 5.6 -1.1
v 1.4 5.7 1.3
v 1.4 5.7 -1.2
v 1.5 0 1.5
v 1.5 0 1.3
v 1.5 0 -1.2
v 1.5 0 -1.4
v 1.5 5.7 1.3
v 1.5 5.7 -1.2
v 1.5 5.8 1.5
v 1.5 5.8 -1.4
v 1.5 5.9 1.5
v 1.5 5.9 -1.4
v -1.5 0 1.5
v -1.5 5.8 1.5
v -1.5 5.9 1.5
v -1.3 0 1.5
v -1.3 5.7 1.5
v 1.3 0 1.5
v 1.3 5.7 1.5
v 1.5 0 1.5
v 1.5 5.8 1.5
v 1.5 5.9 1.5
v -1.3 0 1.4
v -1.3 5.7 1.4
v -1.2 0 1.4
v -1.2 5.6 1.4
v 1.2 0 1.4
v 1.2 5.6 1.4
v 1.3 0 1.4
v 1.3 5.7 1.4
v -1.5 0 -1.2
v -1.5 5.7 -1.2
v -1.4 0 -1.2
v -1.4 5.7 -1.2
v 1.4 0 -1.2
v 1.4 5.7 -1.2
v 1.5 0 -1.2
v 1.5 5.7 -1.2
v -0.5 0.8 -1.5
v -0.5 0.9 -1.5
v -0.5 2.1 -1.5
v -0.5 2.2 -1.5
v -0.5 3.5 -1.5
v -0.5 3.6 -1.5
v -0.5 4.9 -1.5
v -0.5 5 -1.5
v 0.5 0.8 -1.5
v 0.5 0.9 -1.5
v 0.5 2.1 -1.5
v 0.5 2.2 -1.5
v 0.5 3.5 -1.5
v 0.5 3.6 -1.5
v 0.5 4.9 -1.5
v 0.5 5 -1.5
v -1.5 0 1.3
v -1.5 5.7 1.3
v -1.4 0 1.3
v -1.4 5.7 1.3
v 1.4 0 1.3
v 1.4 5.7 1.3
v 1.5 0 1.3
v 1.5 5.7 1.3
v -1.3 0 -1.3
v -1.3 5.7 -1.3
v -1.2 0 -1.3
v -1.2 0.1 -1.3
v -1.2 0.2 -1.3
v -1.2 0.3 -1.3
v -1.2 0.4 -1.3
v -1.2 1.4 -1.3
v -1.2 1.5 -1.3
v -1.2 1.6 -1.3
v -1.2 1.7 -1.3
v -1.2 2.7 -1.3
v -1.2 2.8 -1.3
v -1.2 2.9 -1.3
v -1.2 3 -1.3
v -1.2 4.1 -1.3
v -1.2 4.2 -1.3
v -1.2 4.3 -1.3
v -1.2 4.4 -1.3
v -1.2 5.5 -1.3
v -1.2 5.6 -1.3
v 1.2 0 -1.3
v 1.2 0.1 -1.3
v 1.2 0.2 -1.3
v 1.2 0.3 -1.3
v 1.2 0.4 -1.3
v 1.2 1.4 -1.3
v 1.2 1.5 -1.3
v 1.2 1.6 -1.3
v 1.2 1.7 -1.3
v 1.2 2.7 -1.3
v 1.2 2.8 -1.3
v 1.2 2.9 -1.3
v 1.2 3 -1.3
v 1.2 4.1 -1.3
v 1.2 4.2 -1.3
v 1.2 4.3 -1.3
v 1.2 4.4 -1.3
v 1.2 5.5 -1.3
v 1.2 5.6 -1.3
v 1.3 0 -1.3
v 1.3 5.7 -1.3
v -1.5 0 -1.4
v -1.5 5.8 -1.4
v -1.5 5.9 -1.4
v -1.3 0 -1.4
v -1.3 5.7 -1.4
v -1.2 0 -1.4
v -1.2 0.1 -1.4
v -1.2 0.2 -1.4
v -1.2 0.3 -1.4
v -1.2 0.4 -1.4
v -1.2 1.4 -1.4
v -1.2 1.5 -1.4
v -1.2 1.6 -1.4
v -1.2 1.7 -1.4
v -1.2 2.7 -1.4
v -1.2 2.8 -1.4
v -1.2 2.9 -1.4
v -1.2 3 -1.4
v -1.2 4.1 -1.4
v -1.2 4.2 -1.4
v -1.2 4.3 -1.4
v -1.2 4.4 -1.4
v -1.2 5.5 -1.4
v -1.2 5.6 -1.4
v -0.6 0.8 -1.4
v -0.6 0.9 -1.4
v -0.6 2.1 -1.4
v -0.6 2.2 -1.4
v -0.6 3.5 -1.4
v -0.6 3.6 -1.4
v -0.6 4.9 -1.4
v -0.6 5 -1.4
v -0.5 0.8 -1.4
v -0.5 0.9 -1.4
v -0.5 2.1 -1.4
v -0.5 2.2 -1.4
v -0.5 3.5 -1.4
v -0.5 3.6 -1.4
v -0.5 4.9 -1.4
v -0.5 5 -1.4
v 0.5 0.8 -1.4
v 0.5 0.9 -1.4
v 0.5 2.1 -1.4
v 0.5 2.2 -1.4
v 0.5 3.5 -1.4
v 0.5 3.6 -1.4
v 0.5 4.9 -1.4
v 0.5 5 -1.4
v 0.6 0.8 -1.4
v 0.6 0.9 -1.4
v 0.6 2.1 -1.4
v 0.6 2.2 -1.4
v 0.6 3.5 -1.4
v 0.6 3.6 -1.4
v 0.6 4.9 -1.4
v 0.6 5 -1.4
v 1.2 0 -1.4
v 1.2 0.1 -1.4
v 1.2 0.2 -1.4
v 1.2 0.3 -1.4
v 1.2 0.4 -1.4
v 1.2 1.4 -1.4
v 1.2 1.5 -1.4
v 1.2 1.6 -1.4
v 1.2 1.7 -1.4
v 1.2 2.7 -1.4
v 1.2 2.8 -1.4
v 1.2 2.9 -1.4
v 1.2 3 -1.4
v 1.2 4.1 -1.4
v 1.2 4.2 -1.4
v 1.2 4.3 -1.4
v 1.2 4.4 -1.4
v 1.2 5.5 -1.4
v 1.2 5.6 -1.4
v 1.3 0 -1.4
v 1.3 5.7 -1.4
v 1.5 0 -1.4
v 1.5 5.8 -1.4
v 1.5 5.9 -1.4
v -0.6 0.8 -1.6
v -0.6 0.9 -1.6
v -0.6 2.1 -1.6
v -0.6 2.2 -1.6
v -0.6 3.5 -1.6
v -0.6 3.6 -1.6
v -0.6 4.9 -1.6
v -0.6 5 -1.6
v 0.6 0.8 -1.6
v 0.6 0.9 -1.6
v 0.6 2.1 -1.6
v 0.6 2.2 -1.6
v 0.6 3.5 -1.6
v 0.6 3.6 -1.6
v 0.6 4.9 -1.6
v 0.6 5 -1.6
v -1.5 0 1.5
v -1.3 0 1.5
v 1.3 0 1.5
v 1.5 0 1.5
v -1.3 0 1.4
v -1.2 0 1.4
v 1.2 0 1.4
v 1.3 0 1.4
v -1.5 0 1.3
v -1.4 0 1.3
v -1.3 0 1.3
v -1.2 0 1.3
v 1.2 0 1.3
v 1.3 0 1.3
v 1.4 0 1.3
v 1.5 0 1.3
v -1.4 0 1.2
v -1.3 0 1.2
v 1.3 0 1.2
v 1.4 0 1.2
v -1.4 0 -1.1
v -1.3 0 -1.1
v 1.3 0 -1.1
v 1.4 0 -1.1
v -1.5 0 -1.2
v -1.4 0 -1.2
v -1.3 0 -1.2
v 1.3 0 -1.2
v 1.4 0 -1.2
v 1.5 0 -1.2
v -1.3 0 -1.3
v -1.2 0 -1.3
v 1.2 0 -1.3
v 1.3 0 -1.3
v -1.5 0 -1.4
v -1.3 0 -1.4
v -1.2 0 -1.4
v 1.2 0 -1.4
v 1.3 0 -1.4
v 1.5 0 -1.4
v -1.2 0.3 -1.3
v 1.2 0.3 -1.3
v -1.2 0.3 -1.4
v 1.2 0.3 -1.4
v -0.6 0.8 -1.4
v -0.5 0.8 -1.4
v 0.5 0.8 -1.4
v 0.6 0.8 -1.4
v -0.5 0.8 -1.5
v 0.5 0.8 -1.5
v -0.6 0.8 -1.6
v 0.6 0.8 -1.6
v -1.2 1.6 -1.3
v 1.2 1.6 -1.3
v -1.2 1.6 -1.4
v 1.2 1.6 -1.4
v -0.6 2.1 -1.4
v -0.5 2.1 -1.4
v 0.5 2.1 -1.4
v 0.6 2.1 -1.4
v -0.5 2.1 -1.5
v 0.5 2.1 -1.5
v -0.6 2.1 -1.6
v 0.6 2.1 -1.6
v -1.2 2.9 -1.3
v 1.2 2.9 -1.3
v -1.2 2.9 -1.4
v 1.2 2.9 -1.4
v -0.6 3.5 -1.4
v -0.5 3.5 -1.4
v 0.5 3.5 -1.4
v 0.6 3.5 -1.4
v -0.5 3.5 -1.5
v 0.5 3.5 -1.5
v -0.6 3.5 -1.6
v 0.6 3.5 -1.6
v -1.2 4.3 -1.3
v 1.2 4.3 -1.3
v -1.2 4.3 -1.4
v 1.2 4.3 -1.4
v -0.6 4.9 -1.4
v -0.5 4.9 -1.4
v 0.5 4.9 -1.4
v 0.6 4.9 -1.4
v -0.5 4.9 -1.5
v 0.5 4.9 -1.5
v -0.6 4.9 -1.6
v 0.6 4.9 -1.6
v -1.3 5.7 1.5
v 1.3 5.7 1.5
v -1.3 5.7 1.4
v 1.3 5.7 1.4
v -1.5 5.7 1.3
v -1.4 5.7 1.3
v 1.4 5.7 1.3
v 1.5 5.7 1.3
v -1.5 5.7 -1.2
v -1.4 5.7 -1.2
v 1.4 5.7 -1.2
v 1.5 5.7 -1.2
v -1.3 5.7 -1.3
v 1.3 5.7 -1.3
v -1.3 5.7 -1.4
v 1.3 5.7 -1.4
v -1.2 0.2 -1.3
v 1.2 0.2 -1.3
v -1.2 0.2 -1.4
v 1.2 0.2 -1.4
v -0.6 0.9 -1.4
v -0.5 0.9 -1.4
v 0.5 0.9 -1.4
v 0.6 0.9 -1.4
v -0.5 0.9 -1.5
v 0.5 0.9 -1.5
v -0.6 0.9 -1.6
v 0.6 0.9 -1.6
v -1.2 1.5 -1.3
v 1.2 1.5 -1.3
v -1.2 1.5 -1.4
v 1.2 1.5 -1.4
v -0.6 2.2 -1.4
v -0.5 2.2 -1.4
v 0.5 2.2 -1.4
v 0.6 2.2 -1.4
v -0.5 2.2 -1.5
v 0.5 2.2 -1.5
v -0.6 2.2 -1.6
v 0.6 2.2 -1.6
v -1.2 2.8 -1.3
v 1.2 2.8 -1.3
v -1.2 2.8 -1.4
v 1.2 2.8 -1.4
v -0.6 3.6 -1.4
v -0.5 3.6 -1.4
v 0.5 3.6 -1.4
v 0.6 3.6 -1.4
v -0.5 3.6 -1.5
v 0.5 3.6 -1.5
v -0.6 3.6 -1.6
v 0.6 3.6 -1.6
v -1.2 4.2 -1.3
v 1.2 4.2 -1.3
v -1.2 4.2 -1.4
v 1.2 4.2 -1.4
v -0.6 5 -1.4
v -0.5 5 -1.4
v 0.5 5 -1.4
v 0.6 5 -1.4
v -0.5 5 -1.5
v 0.5 5 -1.5
v -0.6 5 -1.6
v 0.6 5 -1.6
v -1.2 5.6 -1.3
v 1.2 5.6 -1.3
v -1.2 5.6 -1.4
v 1.2 5.6 -1.4
v -1.5 5.9 1.5
v 1.5 5.9 1.5
v -1.4 5.9 1.4
v 1.4 5.9 1.4
v -1.4 5.9 -1.3
v 1.4 5.9 -1.3
v -1.5 5.9 -1.4
v 1.5 5.9 -1.4

# faces
f 5/2/1 2/2/1 1/2/1
f 6/2/1 4/2/1 3/2/1
f 7/2/1 5/2/1 1/2/1
f 7/2/1 6/2/1 5/2/1
f 8/2/1 4/2/1 6/2/1
f 8/2/1 6/2/1 7/2/1
f 9/1/1 8/1/1 7/1/1
f 10/1/1 8/1/1 9/1/1
f 15/4/1 12/4/1 11/4/1
f 15/3/1 13/3/1 12/3/1
f 16/4/1 14/4/1 13/4/1
f 16/3/1 13/3/1 15/3/1
f 17/4/1 15/4/1 11/4/1
f 17/4/1 16/4/1 15/4/1
f 18/4/1 14/4/1 16/4/1
f 18/4/1 16/4/1 17/4/1
f 21/3/1 20/3/1 19/3/1
f 22/3/1 20/3/1 21/3/1
f 23/2/1 22/2/1 21/2/1
f 24/2/1 22/2/1 23/2/1
f 27/4/1 26/4/1 25/4/1
f 28/4/1 26/4/1 27/4/1
f 29/2/1 28/2/1 27/2/1
f 30/2/1 28/2/1 29/2/1
f 31/1/1 30/1/1 29/1/1
f 32/1/1 30/1/1 31/1/1
f 35/4/1 34/4/1 33/4/1
f 36/4/1 34/4/1 35/4/1
f 37/2/1 36/2/1 35/2/1
f 38/2/1 36/2/1 37/2/1
f 39/1/1 38/1/1 37/1/1
f 40/1/1 38/1/1 39/1/1
f 43/4/1 42/4/1 41/4/1
f 44/4/1 42/4/1 43/4/1
f 45/2/1 44/2/1 43/2/1
f 46/2/1 44/2/1 45/2/1
f 47/1/1 46/1/1 45/1/1
f 48/1/1 46/1/1 47/1/1
f 51/4/1 50/4/1 49/4/1
f 52/4/1 50/4/1 51/4/1
f 53/2/1 52/2/1 51/2/1
f 54/2/1 52/2/1 53/2/1
f 55/1/1 54/1/1 53/1/1
f 56/1/1 54/1/1 55/1/1
f 59/5/1 58/5/1 57/5/1
f 60/5/1 58/5/1 59/5/1
f 63/5/1 62/5/1 61/5/1
f 64/5/1 62/5/1 63/5/1
f 67/5/1 66/5/1 65/5/1
f 68/5/1 66/5/1 67/5/1
f 71/5/1 70/5/1 69/5/1
f 72/5/1 70/5/1 71/5/1
f 75/5/1 74/5/1 73/5/1
f 76/5/1 74/5/1 75/5/1
f 79/5/1 78/5/1 77/5/1
f 80/5/1 78/5/1 79/5/1
f 83/5/1 82/5/1 81/5/1
f 84/5/1 82/5/1 83/5/1
f 87/5/1 86/5/1 85/5/1
f 88/5/1 86/5/1 87/5/1
f 93/2/1 90/2/1 89/2/1
f 94/2/1 90/2/1 93/2/1
f 95/2/1 92/2/1 91/2/1
f 96/2/1 92/2/1 95/2/1
f 97/2/2 98/2/2 101/2/2
f 101/2/2 98/2/2 102/2/2
f 99/2/2 100/2/2 103/2/2
f 103/2/2 100/2/2 104/2/2
f 105/5/2 106/5/2 107/5/2
f 107/5/2 106/5/2 108/5/2
f 109/5/2 110/5/2 111/5/2
f 111/5/2 110/5/2 112/5/2
f 113/5/2 114/5/2 115/5/2
f 115/5/2 114/5/2 116/5/2
f 117/5/2 118/5/2 119/5/2
f 119/5/2 118/5/2 120/5/2
f 121/5/2 122/5/2 123/5/2
f 123/5/2 122/5/2 124/5/2
f 125/5/2 126/5/2 127/5/2
f 127/5/2 126/5/2 128/5/2
f 129/5/2 130/5/2 131/5/2
f 131/5/2 130/5/2 132/5/2
f 133/5/2 134/5/2 135/5/2
f 135/5/2 134/5/2 136/5/2
f 137/3/2 138/3/2 139/3/2
f 139/3/2 138/3/2 140/3/2
f 139/2/2 140/2/2 141/2/2
f 141/2/2 140/2/2 142/2/2
f 143/4/2 144/4/2 145/4/2
f 145/4/2 144/4/2 146/4/2
f 145/2/2 146/2/2 147/2/2
f 147/2/2 146/2/2 148/2/2
f 147/1/2 148/1/2 149/1/2
f 149/1/2 148/1/2 150/1/2
f 151/4/2 152/4/2 153/4/2
f 153/4/2 152/4/2 154/4/2
f 153/2/2 154/2/2 155/2/2
f 155/2/2 154/2/2 156/2/2
f 155/1/2 156/1/2 157/1/2
f 157/1/2 156/1/2 158/1/2
f 159/4/2 160/4/2 161/4/2
f 161/4/2 160/4/2 162/4/2
f 161/2/2 162/2/2 163/2/2
f 163/2/2 162/2/2 164/2/2
f 163/1/2 164/1/2 165/1/2
f 165/1/2 164/1/2 166/1/2
f 167/4/2 168/4/2 169/4/2
f 169/4/2 168/4/2 170/4/2
f 169/2/2 170/2/2 171/2/2
f 171/2/2 170/2/2 172/2/2
f 171/1/2 172/1/2 173/1/2
f 173/1/2 172/1/2 174/1/2
f 175/4/2 176/4/2 179/4/2
f 176/3/2 177/3/2 179/3/2
f 177/4/2 178/4/2 180/4/2
f 179/3/2 177/3/2 180/3/2
f 175/4/2 179/4/2 181/4/2
f 179/4/2 180/4/2 181/4/2
f 180/4/2 178/4/2 182/4/2
f 181/4/2 180/4/2 182/4/2
f 183/2/2 184/2/2 187/2/2
f 185/2/2 186/2/2 188/2/2
f 183/2/2 187/2/2 189/2/2
f 187/2/2 188/2/2 189/2/2
f 188/2/2 186/2/2 190/2/2
f 189/2/2 188/2/2 190/2/2
f 189/1/2 190/1/2 191/1/2
f 191/1/2 190/1/2 192/1/2
f 196/2/3 194/2/3 193/2/3
f 197/2/3 194/2/3 196/2/3
f 199/2/3 194/2/3 197/2/3
f 200/2/3 199/2/3 198/2/3
f 201/1/3 195/1/3 194/1/3
f 201/2/3 199/2/3 200/2/3
f 201/2/3 194/2/3 199/2/3
f 202/1/3 195/1/3 201/1/3
f 205/4/3 204/4/3 203/4/3
f 206/4/3 204/4/3 205/4/3
f 207/3/3 206/3/3 205/3/3
f 208/4/3 204/4/3 206/4/3
f 208/3/3 206/3/3 207/3/3
f 209/4/3 208/4/3 207/4/3
f 210/4/3 204/4/3 208/4/3
f 210/4/3 208/4/3 209/4/3
f 213/2/3 212/2/3 211/2/3
f 214/2/3 212/2/3 213/2/3
f 217/2/3 216/2/3 215/2/3
f 218/2/3 216/2/3 217/2/3
f 227/5/3 220/5/3 219/5/3
f 228/5/3 220/5/3 227/5/3
f 229/5/3 222/5/3 221/5/3
f 230/5/3 222/5/3 229/5/3
f 231/5/3 224/5/3 223/5/3
f 232/5/3 224/5/3 231/5/3
f 233/5/3 226/5/3 225/5/3
f 234/5/3 226/5/3 233/5/3
f 235/2/4 236/2/4 237/2/4
f 237/2/4 236/2/4 238/2/4
f 239/2/4 240/2/4 241/2/4
f 241/2/4 240/2/4 242/2/4
f 243/3/4 244/3/4 245/3/4
f 245/3/4 244/3/4 246/3/4
f 246/3/4 244/3/4 247/3/4
f 247/3/4 244/3/4 248/3/4
f 248/3/4 244/3/4 249/3/4
f 249/3/4 244/3/4 250/3/4
f 250/3/4 244/3/4 251/3/4
f 251/3/4 244/3/4 252/3/4
f 252/3/4 244/3/4 253/3/4
f 253/3/4 244/3/4 254/3/4
f 254/3/4 244/3/4 255/3/4
f 255/3/4 244/3/4 256/3/4
f 256/3/4 244/3/4 257/3/4
f 257/3/4 244/3/4 258/3/4
f 258/3/4 244/3/4 259/3/4
f 259/3/4 244/3/4 260/3/4
f 260/3/4 244/3/4 261/3/4
f 261/3/4 244/3/4 262/3/4
f 262/3/4 244/3/4 263/3/4
f 247/3/4 248/3/4 266/3/4
f 266/3/4 248/3/4 267/3/4
f 251/3/4 252/3/4 270/3/4
f 270/3/4 252/3/4 271/3/4
f 255/3/4 256/3/4 274/3/4
f 274/3/4 256/3/4 275/3/4
f 259/3/4 260/3/4 278/3/4
f 278/3/4 260/3/4 279/3/4
f 263/3/4 244/3/4 282/3/4
f 280/3/4 281/3/4 283/3/4
f 281/3/4 282/3/4 283/3/4
f 276/3/4 277/3/4 283/3/4
f 264/3/4 265/3/4 283/3/4
f 279/3/4 280/3/4 283/3/4
f 278/3/4 279/3/4 283/3/4
f 277/3/4 278/3/4 283/3/4
f 272/3/4 273/3/4 283/3/4
f 275/3/4 276/3/4 283/3/4
f 274/3/4 275/3/4 283/3/4
f 273/3/4 274/3/4 283/3/4
f 268/3/4 269/3/4 283/3/4
f 271/3/4 272/3/4 283/3/4
f 270/3/4 271/3/4 283/3/4
f 269/3/4 270/3/4 283/3/4
f 265/3/4 266/3/4 283/3/4
f 267/3/4 268/3/4 283/3/4
f 266/3/4 267/3/4 283/3/4
f 282/3/4 244/3/4 284/3/4
f 283/3/4 282/3/4 284/3/4
f 285/2/4 286/2/4 288/2/4
f 288/2/4 286/2/4 289/2/4
f 294/2/4 295/2/4 309/2/4
f 309/2/4 295/2/4 310/2/4
f 298/2/4 299/2/4 311/2/4
f 311/2/4 299/2/4 312/2/4
f 302/2/4 303/2/4 313/2/4
f 313/2/4 303/2/4 314/2/4
f 306/2/4 307/2/4 315/2/4
f 315/2/4 307/2/4 316/2/4
f 294/2/4 309/2/4 317/2/4
f 310/2/4 295/2/4 318/2/4
f 298/2/4 311/2/4 319/2/4
f 312/2/4 299/2/4 320/2/4
f 302/2/4 313/2/4 321/2/4
f 314/2/4 303/2/4 322/2/4
f 306/2/4 315/2/4 323/2/4
f 316/2/4 307/2/4 324/2/4
f 294/2/4 317/2/4 325/2/4
f 317/2/4 318/2/4 325/2/4
f 318/2/4 295/2/4 326/2/4
f 325/2/4 318/2/4 326/2/4
f 298/2/4 319/2/4 327/2/4
f 319/2/4 320/2/4 327/2/4
f 320/2/4 299/2/4 328/2/4
f 327/2/4 320/2/4 328/2/4
f 302/2/4 321/2/4 329/2/4
f 321/2/4 322/2/4 329/2/4
f 322/2/4 303/2/4 330/2/4
f 329/2/4 322/2/4 330/2/4
f 323/2/4 324/2/4 331/2/4
f 306/2/4 323/2/4 331/2/4
f 324/2/4 307/2/4 332/2/4
f 331/2/4 324/2/4 332/2/4
f 294/2/4 325/2/4 333/2/4
f 326/2/4 295/2/4 334/2/4
f 298/2/4 327/2/4 335/2/4
f 328/2/4 299/2/4 336/2/4
f 302/2/4 329/2/4 337/2/4
f 330/2/4 303/2/4 338/2/4
f 306/2/4 331/2/4 339/2/4
f 332/2/4 307/2/4 340/2/4
f 290/3/4 291/3/4 341/3/4
f 291/2/4 292/2/4 342/2/4
f 341/3/4 291/3/4 342/3/4
f 342/2/4 292/2/4 343/2/4
f 293/4/4 294/4/4 344/4/4
f 294/2/4 333/2/4 345/2/4
f 344/4/4 294/4/4 345/4/4
f 333/2/4 334/2/4 345/2/4
f 295/1/4 296/1/4 346/1/4
f 345/2/4 334/2/4 346/2/4
f 334/2/4 295/2/4 346/2/4
f 346/1/4 296/1/4 347/1/4
f 297/4/4 298/4/4 348/4/4
f 298/2/4 335/2/4 349/2/4
f 348/4/4 298/4/4 349/4/4
f 335/2/4 336/2/4 349/2/4
f 299/1/4 300/1/4 350/1/4
f 349/2/4 336/2/4 350/2/4
f 336/2/4 299/2/4 350/2/4
f 350/1/4 300/1/4 351/1/4
f 301/4/4 302/4/4 352/4/4
f 302/2/4 337/2/4 353/2/4
f 352/4/4 302/4/4 353/4/4
f 337/2/4 338/2/4 353/2/4
f 303/1/4 304/1/4 354/1/4
f 353/2/4 338/2/4 354/2/4
f 338/2/4 303/2/4 354/2/4
f 354/1/4 304/1/4 355/1/4
f 305/4/4 306/4/4 356/4/4
f 339/2/4 340/2/4 357/2/4
f 356/4/4 306/4/4 357/4/4
f 306/2/4 339/2/4 357/2/4
f 307/1/4 308/1/4 358/1/4
f 357/2/4 340/2/4 358/2/4
f 340/2/4 307/2/4 358/2/4
f 358/1/4 308/1/4 359/1/4
f 289/2/4 286/2/4 361/2/4
f 360/2/4 361/2/4 362/2/4
f 286/1/4 287/1/4 363/1/4
f 362/2/4 361/2/4 363/2/4
f 361/2/4 286/2/4 363/2/4
f 363/1/4 287/1/4 364/1/4
f 365/5/4 366/5/4 373/5/4
f 373/5/4 366/5/4 374/5/4
f 367/5/4 368/5/4 375/5/4
f 375/5/4 368/5/4 376/5/4
f 369/5/4 370/5/4 377/5/4
f 377/5/4 370/5/4 378/5/4
f 371/5/4 372/5/4 379/5/4
f 379/5/4 372/5/4 380/5/4
f 385/2/5 382/2/5 381/2/5
f 388/2/5 384/2/5 383/2/5
f 389/2/5 385/2/5 381/2/5
f 390/2/5 385/2/5 389/2/5
f 391/4/5 386/4/5 385/4/5
f 391/2/5 385/2/5 390/2/5
f 392/3/5 387/3/5 386/3/5
f 392/4/5 386/4/5 391/4/5
f 393/4/5 388/4/5 387/4/5
f 393/3/5 387/3/5 392/3/5
f 394/2/5 384/2/5 388/2/5
f 394/4/5 388/4/5 393/4/5
f 395/2/5 384/2/5 394/2/5
f 396/2/5 384/2/5 395/2/5
f 397/4/5 391/4/5 390/4/5
f 398/3/5 392/3/5 391/3/5
f 398/4/5 391/4/5 397/4/5
f 398/3/5 393/3/5 392/3/5
f 398/3/5 394/3/5 393/3/5
f 399/4/5 395/4/5 394/4/5
f 399/3/5 394/3/5 398/3/5
f 400/4/5 395/4/5 399/4/5
f 401/3/5 398/3/5 397/3/5
f 401/3/5 399/3/5 398/3/5
f 401/3/5 400/3/5 399/3/5
f 402/3/5 400/3/5 401/3/5
f 403/3/5 400/3/5 402/3/5
f 404/3/5 400/3/5 403/3/5
f 406/4/5 402/4/5 401/4/5
f 407/3/5 403/3/5 402/3/5
f 407/4/5 402/4/5 406/4/5
f 408/4/5 404/4/5 403/4/5
f 408/3/5 403/3/5 407/3/5
f 409/4/5 404/4/5 408/4/5
f 411/3/5 408/3/5 407/3/5
f 411/2/5 406/2/5 405/2/5
f 411/2/5 407/2/5 406/2/5
f 412/3/5 408/3/5 411/3/5
f 413/3/5 408/3/5 412/3/5
f 414/2/5 409/2/5 408/2/5
f 414/3/5 408/3/5 413/3/5
f 414/2/5 410/2/5 409/2/5
f 415/2/5 411/2/5 405/2/5
f 416/2/5 411/2/5 415/2/5
f 417/3/5 413/3/5 412/3/5
f 418/3/5 413/3/5 417/3/5
f 419/2/5 410/2/5 414/2/5
f 420/2/5 410/2/5 419/2/5
f 423/4/5 422/4/5 421/4/5
f 424/4/5 422/4/5 423/4/5
f 429/5/5 426/5/5 425/5/5
f 430/5/5 428/5/5 427/5/5
f 431/5/5 429/5/5 425/5/5
f 431/5/5 430/5/5 429/5/5
f 432/5/5 428/5/5 430/5/5
f 432/5/5 430/5/5 431/5/5
f 435/4/5 434/4/5 433/4/5
f 436/4/5 434/4/5 435/4/5
f 441/5/5 438/5/5 437/5/5
f 442/5/5 440/5/5 439/5/5
f 443/5/5 441/5/5 437/5/5
f 443/5/5 442/5/5 441/5/5
f 444/5/5 440/5/5 442/5/5
f 444/5/5 442/5/5 443/5/5
f 447/4/5 446/4/5 445/4/5
f 448/4/5 446/4/5 447/4/5
f 453/5/5 450/5/5 449/5/5
f 454/5/5 452/5/5 451/5/5
f 455/5/5 453/5/5 449/5/5
f 455/5/5 454/5/5 453/5/5
f 456/5/5 452/5/5 454/5/5
f 456/5/5 454/5/5 455/5/5
f 459/4/5 458/4/5 457/4/5
f 460/4/5 458/4/5 459/4/5
f 465/5/5 462/5/5 461/5/5
f 466/5/5 464/5/5 463/5/5
f 467/5/5 465/5/5 461/5/5
f 467/5/5 466/5/5 465/5/5
f 468/5/5 464/5/5 466/5/5
f 468/5/5 466/5/5 467/5/5
f 471/2/5 470/2/5 469/2/5
f 472/2/5 470/2/5 471/2/5
f 477/2/5 474/2/5 473/2/5
f 478/2/5 474/2/5 477/2/5
f 479/2/5 476/2/5 475/2/5
f 480/2/5 476/2/5 479/2/5
f 483/2/5 482/2/5 481/2/5
f 484/2/5 482/2/5 483/2/5
f 485/2/6 486/2/6 487/2/6
f 487/2/6 486/2/6 488/2/6
f 489/5/6 490/5/6 493/5/6
f 491/5/6 492/5/6 494/5/6
f 489/5/6 493/5/6 495/5/6
f 493/5/6 494/5/6 495/5/6
f 494/5/6 492/5/6 496/5/6
f 495/5/6 494/5/6 496/5/6
f 497/1/6 498/1/6 499/1/6
f 499/1/6 498/1/6 500/1/6
f 501/5/6 502/5/6 505/5/6
f 503/5/6 504/5/6 506/5/6
f 501/5/6 505/5/6 507/5/6
f 505/5/6 506/5/6 507/5/6
f 506/5/6 504/5/6 508/5/6
f 507/5/6 506/5/6 508/5/6
f 509/1/6 510/1/6 511/1/6
f 511/1/6 510/1/6 512/1/6
f 513/5/6 514/5/6 517/5/6
f 515/5/6 516/5/6 518/5/6
f 513/5/6 517/5/6 519/5/6
f 517/5/6 518/5/6 519/5/6
f 518/5/6 516/5/6 520/5/6
f 519/5/6 518/5/6 520/5/6
f 521/1/6 522/1/6 523/1/6
f 523/1/6 522/1/6 524/1/6
f 525/5/6 526/5/6 529/5/6
f 527/5/6 528/5/6 530/5/6
f 525/5/6 529/5/6 531/5/6
f 529/5/6 530/5/6 531/5/6
f 530/5/6 528/5/6 532/5/6
f 531/5/6 530/5/6 532/5/6
f 533/1/6 534/1/6 535/1/6
f 535/1/6 534/1/6 536/1/6
f 537/1/6 538/1/6 539/1/6
f 539/1/6 538/1/6 540/1/6
f 537/1/6 539/1/6 541/1/6
f 539/2/6 540/2/6 541/2/6
f 540/1/6 538/1/6 542/1/6
f 541/2/6 540/2/6 542/2/6
f 537/1/6 541/1/6 543/1/6
f 541/1/6 542/1/6 543/1/6
f 542/1/6 538/1/6 544/1/6
f 543/1/6 542/1/6 544/1/6
