# MagicaVoxel @ Ephtracy

# group
o 

# material
mtllib Fridge.mtl
usemtl palette

# normals
vn -1 0 0
vn 1 0 0
vn 0 0 1
vn 0 0 -1
vn 0 -1 0
vn 0 1 0

# texcoords
vt 0.923828 0.5
vt 0.958984 0.5
vt 0.990234 0.5

# verts
v -2.1 0.1 1.3
v -2.1 0.1 1
v -2.1 0.1 -1.4
v -2.1 0.1 -1.7
v -2.1 0.2 1.3
v -2.1 0.2 1
v -2.1 0.2 -1.4
v -2.1 0.2 -1.7
v -2.1 7.5 1.3
v -2.1 7.5 -1.7
v -1.9 0.5 1.9
v -1.9 0.5 1.4
v -1.9 3 1.8
v -1.9 3 1.5
v -1.9 4.8 1.8
v -1.9 4.8 1.5
v -1.9 5.3 1.9
v -1.9 5.3 1.4
v -1.9 5.4 1.9
v -1.9 5.4 1.4
v -1.9 5.6 1.8
v -1.9 5.6 1.5
v -1.9 6.6 1.8
v -1.9 6.6 1.5
v -1.9 7.4 1.9
v -1.9 7.4 1.4
v -1.8 0.5 1.4
v -1.8 0.5 1.3
v -1.8 5.3 1.4
v -1.8 5.3 1.3
v -1.8 5.4 1.4
v -1.8 5.4 1.3
v -1.8 7.3 1.4
v -1.8 7.3 1.3
v -1.7 3 1.8
v -1.7 3 1.5
v -1.7 4.8 1.8
v -1.7 4.8 1.5
v -1.7 5.6 1.8
v -1.7 5.6 1.5
v -1.7 6.6 1.8
v -1.7 6.6 1.5
v 1.5 0.6 1.3
v 1.5 0.6 -1.5
v 1.5 5.2 1.3
v 1.5 5.2 -1.5
v 1.5 5.5 1.3
v 1.5 5.5 -1.5
v 1.5 7.2 1.3
v 1.5 7.2 -1.5
v 1.6 0.1 1.3
v 1.6 0.1 1
v 1.6 0.1 -1.4
v 1.6 0.1 -1.7
v 1.6 0.2 1.3
v 1.6 0.2 1
v 1.6 0.2 -1.4
v 1.6 0.2 -1.7
v -1.8 0.1 1.3
v -1.8 0.1 1
v -1.8 0.1 -1.4
v -1.8 0.1 -1.7
v -1.8 0.2 1.3
v -1.8 0.2 1
v -1.8 0.2 -1.4
v -1.8 0.2 -1.7
v -1.7 0.6 1.3
v -1.7 0.6 -1.5
v -1.7 5.2 1.3
v -1.7 5.2 -1.5
v -1.7 5.5 1.3
v -1.7 5.5 -1.5
v -1.7 7.2 1.3
v -1.7 7.2 -1.5
v 1.6 0.5 1.4
v 1.6 0.5 1.3
v 1.6 5.3 1.4
v 1.6 5.3 1.3
v 1.6 5.4 1.4
v 1.6 5.4 1.3
v 1.6 7.3 1.4
v 1.6 7.3 1.3
v 1.7 0.5 1.9
v 1.7 0.5 1.4
v 1.7 5.3 1.9
v 1.7 5.3 1.4
v 1.7 5.4 1.9
v 1.7 5.4 1.4
v 1.7 7.4 1.9
v 1.7 7.4 1.4
v 1.9 0.1 1.3
v 1.9 0.1 1
v 1.9 0.1 -1.4
v 1.9 0.1 -1.7
v 1.9 0.2 1.3
v 1.9 0.2 1
v 1.9 0.2 -1.4
v 1.9 0.2 -1.7
v 1.9 7.5 1.3
v 1.9 7.5 -1.7
v -1.9 0.5 1.9
v -1.9 5.3 1.9
v -1.9 5.4 1.9
v -1.9 7.4 1.9
v 1.7 0.5 1.9
v 1.7 5.3 1.9
v 1.7 5.4 1.9
v 1.7 7.4 1.9
v -1.9 3 1.5
v -1.9 4.8 1.5
v -1.9 5.6 1.5
v -1.9 6.6 1.5
v -1.8 3 1.5
v -1.8 4.8 1.5
v -1.8 5.6 1.5
v -1.8 6.6 1.5
v -1.7 3 1.5
v -1.7 4.8 1.5
v -1.7 5.6 1.5
v -1.7 6.6 1.5
v -2.1 0.1 1.3
v -2.1 0.2 1.3
v -2.1 7.5 1.3
v -1.8 0.1 1.3
v -1.8 0.2 1.3
v -1.8 0.5 1.3
v -1.8 5.3 1.3
v -1.8 5.4 1.3
v -1.8 7.3 1.3
v 1.6 0.1 1.3
v 1.6 0.2 1.3
v 1.6 0.5 1.3
v 1.6 5.3 1.3
v 1.6 5.4 1.3
v 1.6 7.3 1.3
v 1.9 0.1 1.3
v 1.9 0.2 1.3
v 1.9 7.5 1.3
v -2.1 0.1 -1.4
v -2.1 0.2 -1.4
v -1.8 0.1 -1.4
v -1.8 0.2 -1.4
v 1.6 0.1 -1.4
v 1.6 0.2 -1.4
v 1.9 0.1 -1.4
v 1.9 0.2 -1.4
v -1.7 0.6 -1.5
v -1.7 5.2 -1.5
v -1.7 5.5 -1.5
v -1.7 7.2 -1.5
v 1.5 0.6 -1.5
v 1.5 5.2 -1.5
v 1.5 5.5 -1.5
v 1.5 7.2 -1.5
v -1.9 3 1.8
v -1.9 4.8 1.8
v -1.9 5.6 1.8
v -1.9 6.6 1.8
v -1.8 3 1.8
v -1.8 4.8 1.8
v -1.8 5.6 1.8
v -1.8 6.6 1.8
v -1.7 3 1.8
v -1.7 4.8 1.8
v -1.7 5.6 1.8
v -1.7 6.6 1.8
v -1.9 0.5 1.4
v -1.9 5.3 1.4
v -1.9 5.4 1.4
v -1.9 7.4 1.4
v -1.8 0.5 1.4
v -1.8 5.3 1.4
v -1.8 5.4 1.4
v -1.8 7.3 1.4
v 1.6 0.5 1.4
v 1.6 5.3 1.4
v 1.6 5.4 1.4
v 1.6 7.3 1.4
v 1.7 0.5 1.4
v 1.7 5.3 1.4
v 1.7 5.4 1.4
v 1.7 7.4 1.4
v -1.7 0.6 1.3
v -1.7 5.2 1.3
v -1.7 5.5 1.3
v -1.7 7.2 1.3
v 1.5 0.6 1.3
v 1.5 5.2 1.3
v 1.5 5.5 1.3
v 1.5 7.2 1.3
v -2.1 0.1 1
v -2.1 0.2 1
v -1.8 0.1 1
v -1.8 0.2 1
v 1.6 0.1 1
v 1.6 0.2 1
v 1.9 0.1 1
v 1.9 0.2 1
v -2.1 0.1 -1.7
v -2.1 0.2 -1.7
v -2.1 7.5 -1.7
v -1.8 0.1 -1.7
v -1.8 0.2 -1.7
v 1.6 0.1 -1.7
v 1.6 0.2 -1.7
v 1.9 0.1 -1.7
v 1.9 0.2 -1.7
v 1.9 7.5 -1.7
v -2.1 0.1 1.3
v -1.8 0.1 1.3
v 1.6 0.1 1.3
v 1.9 0.1 1.3
v -2.1 0.1 1
v -1.8 0.1 1
v 1.6 0.1 1
v 1.9 0.1 1
v -2.1 0.1 -1.4
v -1.8 0.1 -1.4
v 1.6 0.1 -1.4
v 1.9 0.1 -1.4
v -2.1 0.1 -1.7
v -1.8 0.1 -1.7
v 1.6 0.1 -1.7
v 1.9 0.1 -1.7
v -1.8 0.2 1.3
v 1.6 0.2 1.3
v -2.1 0.2 1
v -1.8 0.2 1
v 1.6 0.2 1
v 1.9 0.2 1
v -2.1 0.2 -1.4
v -1.8 0.2 -1.4
v 1.6 0.2 -1.4
v 1.9 0.2 -1.4
v -1.8 0.2 -1.7
v 1.6 0.2 -1.7
v -1.9 0.5 1.9
v 1.7 0.5 1.9
v -1.9 0.5 1.4
v -1.8 0.5 1.4
v 1.6 0.5 1.4
v 1.7 0.5 1.4
v -1.8 0.5 1.3
v 1.6 0.5 1.3
v -1.9 4.8 1.8
v -1.8 4.8 1.8
v -1.7 4.8 1.8
v -1.9 4.8 1.5
v -1.8 4.8 1.5
v -1.7 4.8 1.5
v -1.7 5.2 1.3
v 1.5 5.2 1.3
v -1.7 5.2 -1.5
v 1.5 5.2 -1.5
v -1.9 5.4 1.9
v 1.7 5.4 1.9
v -1.9 5.4 1.4
v -1.8 5.4 1.4
v 1.6 5.4 1.4
v 1.7 5.4 1.4
v -1.8 5.4 1.3
v 1.6 5.4 1.3
v -1.9 6.6 1.8
v -1.8 6.6 1.8
v -1.7 6.6 1.8
v -1.9 6.6 1.5
v -1.8 6.6 1.5
v -1.7 6.6 1.5
v -1.7 7.2 1.3
v 1.5 7.2 1.3
v -1.7 7.2 -1.5
v 1.5 7.2 -1.5
v -1.7 0.6 1.3
v 1.5 0.6 1.3
v -1.7 0.6 -1.5
v 1.5 0.6 -1.5
v -1.9 3 1.8
v -1.8 3 1.8
v -1.7 3 1.8
v -1.9 3 1.5
v -1.8 3 1.5
v -1.7 3 1.5
v -1.9 5.3 1.9
v 1.7 5.3 1.9
v -1.9 5.3 1.4
v -1.8 5.3 1.4
v 1.6 5.3 1.4
v 1.7 5.3 1.4
v -1.8 5.3 1.3
v 1.6 5.3 1.3
v -1.7 5.5 1.3
v 1.5 5.5 1.3
v -1.7 5.5 -1.5
v 1.5 5.5 -1.5
v -1.9 5.6 1.8
v -1.8 5.6 1.8
v -1.7 5.6 1.8
v -1.9 5.6 1.5
v -1.8 5.6 1.5
v -1.7 5.6 1.5
v -1.8 7.3 1.4
v 1.6 7.3 1.4
v -1.8 7.3 1.3
v 1.6 7.3 1.3
v -1.9 7.4 1.9
v 1.7 7.4 1.9
v -1.9 7.4 1.4
v 1.7 7.4 1.4
v -2.1 7.5 1.3
v 1.9 7.5 1.3
v -2.1 7.5 -1.7
v 1.9 7.5 -1.7

# faces
f 5/1/1 2/1/1 1/1/1
f 6/1/1 2/1/1 5/1/1
f 7/1/1 4/1/1 3/1/1
f 8/1/1 4/1/1 7/1/1
f 9/2/1 6/2/1 5/2/1
f 9/2/1 7/2/1 6/2/1
f 9/2/1 8/2/1 7/2/1
f 10/2/1 8/2/1 9/2/1
f 13/2/1 12/2/1 11/2/1
f 14/2/1 12/2/1 13/2/1
f 15/2/1 13/2/1 11/2/1
f 16/2/1 12/2/1 14/2/1
f 17/2/1 15/2/1 11/2/1
f 17/2/1 16/2/1 15/2/1
f 18/2/1 12/2/1 16/2/1
f 18/2/1 16/2/1 17/2/1
f 21/2/1 20/2/1 19/2/1
f 22/2/1 20/2/1 21/2/1
f 23/2/1 21/2/1 19/2/1
f 24/2/1 20/2/1 22/2/1
f 25/2/1 23/2/1 19/2/1
f 25/2/1 24/2/1 23/2/1
f 26/2/1 20/2/1 24/2/1
f 26/2/1 24/2/1 25/2/1
f 29/3/1 28/3/1 27/3/1
f 30/3/1 28/3/1 29/3/1
f 33/3/1 32/3/1 31/3/1
f 34/3/1 32/3/1 33/3/1
f 37/1/1 36/1/1 35/1/1
f 38/1/1 36/1/1 37/1/1
f 41/1/1 40/1/1 39/1/1
f 42/1/1 40/1/1 41/1/1
f 45/2/1 44/2/1 43/2/1
f 46/2/1 44/2/1 45/2/1
f 49/2/1 48/2/1 47/2/1
f 50/2/1 48/2/1 49/2/1
f 55/1/1 52/1/1 51/1/1
f 56/1/1 52/1/1 55/1/1
f 57/1/1 54/1/1 53/1/1
f 58/1/1 54/1/1 57/1/1
f 59/1/2 60/1/2 63/1/2
f 63/1/2 60/1/2 64/1/2
f 61/1/2 62/1/2 65/1/2
f 65/1/2 62/1/2 66/1/2
f 67/2/2 68/2/2 69/2/2
f 69/2/2 68/2/2 70/2/2
f 71/2/2 72/2/2 73/2/2
f 73/2/2 72/2/2 74/2/2
f 75/3/2 76/3/2 77/3/2
f 77/3/2 76/3/2 78/3/2
f 79/3/2 80/3/2 81/3/2
f 81/3/2 80/3/2 82/3/2
f 83/2/2 84/2/2 85/2/2
f 85/2/2 84/2/2 86/2/2
f 87/2/2 88/2/2 89/2/2
f 89/2/2 88/2/2 90/2/2
f 91/1/2 92/1/2 95/1/2
f 95/1/2 92/1/2 96/1/2
f 93/1/2 94/1/2 97/1/2
f 97/1/2 94/1/2 98/1/2
f 95/2/2 96/2/2 99/2/2
f 96/2/2 97/2/2 99/2/2
f 97/2/2 98/2/2 99/2/2
f 99/2/2 98/2/2 100/2/2
f 105/2/3 102/2/3 101/2/3
f 106/2/3 102/2/3 105/2/3
f 107/2/3 104/2/3 103/2/3
f 108/2/3 104/2/3 107/2/3
f 113/2/3 110/2/3 109/2/3
f 114/2/3 110/2/3 113/2/3
f 115/2/3 112/2/3 111/2/3
f 116/2/3 112/2/3 115/2/3
f 117/1/3 114/1/3 113/1/3
f 118/1/3 114/1/3 117/1/3
f 119/1/3 116/1/3 115/1/3
f 120/1/3 116/1/3 119/1/3
f 124/1/3 122/1/3 121/1/3
f 125/2/3 123/2/3 122/2/3
f 125/1/3 122/1/3 124/1/3
f 126/2/3 123/2/3 125/2/3
f 127/2/3 123/2/3 126/2/3
f 128/2/3 123/2/3 127/2/3
f 129/2/3 123/2/3 128/2/3
f 131/2/3 126/2/3 125/2/3
f 132/2/3 126/2/3 131/2/3
f 133/2/3 128/2/3 127/2/3
f 134/2/3 128/2/3 133/2/3
f 135/2/3 123/2/3 129/2/3
f 136/1/3 131/1/3 130/1/3
f 137/2/3 134/2/3 133/2/3
f 137/1/3 131/1/3 136/1/3
f 137/2/3 132/2/3 131/2/3
f 137/2/3 135/2/3 134/2/3
f 137/2/3 133/2/3 132/2/3
f 138/2/3 123/2/3 135/2/3
f 138/2/3 135/2/3 137/2/3
f 141/1/3 140/1/3 139/1/3
f 142/1/3 140/1/3 141/1/3
f 145/1/3 144/1/3 143/1/3
f 146/1/3 144/1/3 145/1/3
f 151/2/3 148/2/3 147/2/3
f 152/2/3 148/2/3 151/2/3
f 153/2/3 150/2/3 149/2/3
f 154/2/3 150/2/3 153/2/3
f 155/2/4 156/2/4 159/2/4
f 159/2/4 156/2/4 160/2/4
f 157/2/4 158/2/4 161/2/4
f 161/2/4 158/2/4 162/2/4
f 159/2/4 160/2/4 163/2/4
f 163/2/4 160/2/4 164/2/4
f 161/2/4 162/2/4 165/2/4
f 165/2/4 162/2/4 166/2/4
f 167/2/4 168/2/4 171/2/4
f 171/2/4 168/2/4 172/2/4
f 169/2/4 170/2/4 173/2/4
f 173/2/4 170/2/4 174/2/4
f 174/2/4 170/2/4 178/2/4
f 175/2/4 176/2/4 179/2/4
f 179/2/4 176/2/4 180/2/4
f 177/2/4 178/2/4 181/2/4
f 178/2/4 170/2/4 182/2/4
f 181/2/4 178/2/4 182/2/4
f 183/2/4 184/2/4 187/2/4
f 187/2/4 184/2/4 188/2/4
f 185/2/4 186/2/4 189/2/4
f 189/2/4 186/2/4 190/2/4
f 191/1/4 192/1/4 193/1/4
f 193/1/4 192/1/4 194/1/4
f 195/1/4 196/1/4 197/1/4
f 197/1/4 196/1/4 198/1/4
f 199/1/4 200/1/4 202/1/4
f 200/2/4 201/2/4 203/2/4
f 202/1/4 200/1/4 203/1/4
f 203/2/4 201/2/4 205/2/4
f 204/1/4 205/1/4 206/1/4
f 205/2/4 201/2/4 207/2/4
f 206/1/4 205/1/4 207/1/4
f 207/2/4 201/2/4 208/2/4
f 213/1/5 210/1/5 209/1/5
f 214/1/5 210/1/5 213/1/5
f 215/1/5 212/1/5 211/1/5
f 216/1/5 212/1/5 215/1/5
f 221/1/5 218/1/5 217/1/5
f 222/1/5 218/1/5 221/1/5
f 223/1/5 220/1/5 219/1/5
f 224/1/5 220/1/5 223/1/5
f 228/2/5 226/2/5 225/2/5
f 229/2/5 226/2/5 228/2/5
f 231/2/5 228/2/5 227/2/5
f 231/2/5 230/2/5 229/2/5
f 231/2/5 229/2/5 228/2/5
f 232/2/5 230/2/5 231/2/5
f 233/2/5 230/2/5 232/2/5
f 234/2/5 230/2/5 233/2/5
f 235/2/5 233/2/5 232/2/5
f 236/2/5 233/2/5 235/2/5
f 239/2/5 238/2/5 237/2/5
f 240/2/5 238/2/5 239/2/5
f 241/2/5 238/2/5 240/2/5
f 242/2/5 238/2/5 241/2/5
f 243/3/5 241/3/5 240/3/5
f 244/3/5 241/3/5 243/3/5
f 248/2/5 246/2/5 245/2/5
f 249/1/5 247/1/5 246/1/5
f 249/2/5 246/2/5 248/2/5
f 250/1/5 247/1/5 249/1/5
f 253/2/5 252/2/5 251/2/5
f 254/2/5 252/2/5 253/2/5
f 257/2/5 256/2/5 255/2/5
f 258/2/5 256/2/5 257/2/5
f 259/2/5 256/2/5 258/2/5
f 260/2/5 256/2/5 259/2/5
f 261/3/5 259/3/5 258/3/5
f 262/3/5 259/3/5 261/3/5
f 266/2/5 264/2/5 263/2/5
f 267/1/5 265/1/5 264/1/5
f 267/2/5 264/2/5 266/2/5
f 268/1/5 265/1/5 267/1/5
f 271/2/5 270/2/5 269/2/5
f 272/2/5 270/2/5 271/2/5
f 273/2/6 274/2/6 275/2/6
f 275/2/6 274/2/6 276/2/6
f 277/2/6 278/2/6 280/2/6
f 278/1/6 279/1/6 281/1/6
f 280/2/6 278/2/6 281/2/6
f 281/1/6 279/1/6 282/1/6
f 283/2/6 284/2/6 285/2/6
f 285/2/6 284/2/6 286/2/6
f 286/2/6 284/2/6 287/2/6
f 287/2/6 284/2/6 288/2/6
f 286/3/6 287/3/6 289/3/6
f 289/3/6 287/3/6 290/3/6
f 291/2/6 292/2/6 293/2/6
f 293/2/6 292/2/6 294/2/6
f 295/2/6 296/2/6 298/2/6
f 296/1/6 297/1/6 299/1/6
f 298/2/6 296/2/6 299/2/6
f 299/1/6 297/1/6 300/1/6
f 301/3/6 302/3/6 303/3/6
f 303/3/6 302/3/6 304/3/6
f 305/2/6 306/2/6 307/2/6
f 307/2/6 306/2/6 308/2/6
f 309/2/6 310/2/6 311/2/6
f 311/2/6 310/2/6 312/2/6
