# MagicaVoxel @ Ephtracy

# group
o 

# material
mtllib FrontDesk-0.mtl
usemtl palette

# normals
vn -1 0 0
vn 1 0 0
vn 0 0 1
vn 0 0 -1
vn 0 -1 0
vn 0 1 0

# texcoords
vt 0.189453 0.5
vt 0.197266 0.5
vt 0.232422 0.5
vt 0.982422 0.5
vt 0.986328 0.5
vt 0.990234 0.5

# verts
v -2 3.4 1.9
v -2 3.4 -2.1
v -2 3.5 1.9
v -2 3.5 -2.1
v -2 3.9 1.9
v -2 3.9 -2.1
v -2 4 1.9
v -2 4 -2.1
v 0.1 0 1.9
v 0.1 0 0
v 0.1 0.1 1.9
v 0.1 0.1 0
v 0.1 0.2 0.7
v 0.1 0.2 0
v 0.1 0.3 1
v 0.1 0.3 0.7
v 0.1 0.3 0
v 0.1 0.4 0.8
v 0.1 0.4 0.7
v 0.1 0.4 0.3
v 0.1 0.4 0
v 0.1 0.5 1
v 0.1 0.5 0.8
v 0.1 0.5 0.3
v 0.1 0.5 0
v 0.1 0.6 1.4
v 0.1 0.6 1.1
v 0.1 0.7 1.8
v 0.1 0.7 1.4
v 0.1 0.7 1.1
v 0.1 0.8 1.8
v 0.1 0.8 1.4
v 0.1 0.8 0.8
v 0.1 0.8 0
v 0.1 0.9 0.8
v 0.1 0.9 0
v 0.1 1 1.9
v 0.1 1 0
v 0.1 1.1 1.9
v 0.1 1.1 0
v 0.1 1.2 1.9
v 0.1 1.2 0
v 0.1 1.4 1.8
v 0.1 1.4 1.7
v 0.1 1.4 0.7
v 0.1 1.4 0.2
v 0.1 1.5 1.8
v 0.1 1.5 1.7
v 0.1 1.5 1.5
v 0.1 1.5 0.7
v 0.1 1.5 0.2
v 0.1 1.5 0
v 0.1 1.6 1.7
v 0.1 1.6 1.5
v 0.1 1.6 0.2
v 0.1 1.6 0
v 0.1 1.8 0.7
v 0.1 1.8 0
v 0.1 1.9 1.5
v 0.1 1.9 1.1
v 0.1 1.9 0.7
v 0.1 1.9 0
v 0.1 2 1.5
v 0.1 2 1.1
v 0.1 2 0.1
v 0.1 2 0
v 0.1 2.1 0.1
v 0.1 2.1 0
v 0.1 2.3 1.9
v 0.1 2.3 0
v 0.1 2.4 1.9
v 0.1 2.4 0
v 0.1 2.5 1.9
v 0.1 2.5 0
v 0.1 2.6 0.8
v 0.1 2.6 0.6
v 0.1 2.7 1
v 0.1 2.7 0.8
v 0.1 2.7 0.7
v 0.1 2.7 0.6
v 0.1 2.8 1
v 0.1 2.8 0.7
v 0.1 2.9 1.6
v 0.1 2.9 1.2
v 0.1 3 1.6
v 0.1 3 1.2
v 0.1 3 0.4
v 0.1 3 0
v 0.1 3.1 0.4
v 0.1 3.1 0
v 0.1 3.3 1.9
v 0.1 3.3 0
v 0.1 3.4 1.9
v 0.1 3.4 0
v 2 0 1.9
v 2 0 0
v 2 0.1 1.9
v 2 0.1 1.5
v 2 0.1 0.9
v 2 0.1 0
v 2 0.2 1.5
v 2 0.2 0.9
v 2 0.5 0.8
v 2 0.5 0
v 2 0.6 1.7
v 2 0.6 0.8
v 2 0.6 0
v 2 0.7 1.7
v 2 0.7 0.8
v 2 0.8 1.9
v 2 0.8 1.8
v 2 0.9 1.9
v 2 0.9 1.8
v 2 1 1.9
v 2 1 0
v 2 1.1 1.9
v 2 1.1 0
v 2 1.2 1.9
v 2 1.2 0
v 2 1.3 1.7
v 2 1.3 1.5
v 2 1.3 0.2
v 2 1.3 0
v 2 1.4 1.7
v 2 1.4 1.5
v 2 1.4 0.2
v 2 1.4 0
v 2 1.5 0.9
v 2 1.5 0.7
v 2 1.5 0.4
v 2 1.5 0.2
v 2 1.6 1.2
v 2 1.6 0.9
v 2 1.6 0.7
v 2 1.6 0.4
v 2 1.6 0.2
v 2 1.6 0
v 2 1.7 1.2
v 2 1.7 0.9
v 2 1.7 0.2
v 2 1.7 0
v 2 1.8 1.5
v 2 1.8 1.4
v 2 1.9 1.7
v 2 1.9 1.5
v 2 1.9 1.4
v 2 1.9 0.7
v 2 1.9 0.5
v 2 1.9 0.4
v 2 1.9 0.3
v 2 2 1.8
v 2 2 1.7
v 2 2 1.5
v 2 2 0.9
v 2 2 0.7
v 2 2 0.5
v 2 2.1 1.8
v 2 2.1 1.7
v 2 2.1 1.1
v 2 2.1 0.9
v 2 2.1 0.7
v 2 2.1 0.5
v 2 2.1 0.4
v 2 2.1 0.3
v 2 2.2 1.1
v 2 2.2 0.9
v 2 2.2 0.5
v 2 2.2 0.4
v 2 2.3 1.9
v 2 2.3 0
v 2 2.4 1.9
v 2 2.4 0
v 2 2.5 1.9
v 2 2.5 0
v 2 2.7 0.5
v 2 2.7 0
v 2 2.8 0.9
v 2 2.8 0.8
v 2 2.8 0.5
v 2 2.8 0
v 2 2.9 1.1
v 2 2.9 0.9
v 2 2.9 0.8
v 2 3 1.3
v 2 3 1.1
v 2 3 0.9
v 2 3.1 1.5
v 2 3.1 1.3
v 2 3.1 1.1
v 2 3.1 0.5
v 2 3.1 0
v 2 3.2 1.5
v 2 3.2 1.3
v 2 3.2 0.5
v 2 3.2 0
v 2 3.3 1.9
v 2 3.3 0
v 2 3.4 1.9
v 2 3.4 0
v 2 3.4 -2.1
v 2 3.5 1.9
v 2 3.5 -2.1
v 2 3.9 1.9
v 2 3.9 -2.1
v 2 4 1.9
v 2 4 -2.1
v -2 3.4 1.9
v -2 3.5 1.9
v -2 3.9 1.9
v -2 4 1.9
v 0.1 0 1.9
v 0.1 0.1 1.9
v 0.1 1 1.9
v 0.1 1.1 1.9
v 0.1 1.2 1.9
v 0.1 2.3 1.9
v 0.1 2.4 1.9
v 0.1 2.5 1.9
v 0.1 3.3 1.9
v 0.1 3.4 1.9
v 0.3 0.8 1.9
v 0.3 0.9 1.9
v 0.3 2 1.9
v 0.3 2.1 1.9
v 0.4 2.9 1.9
v 0.4 3 1.9
v 0.5 1.6 1.9
v 0.5 1.7 1.9
v 0.6 0.5 1.9
v 0.6 0.6 1.9
v 0.6 2.8 1.9
v 0.6 2.9 1.9
v 0.6 3 1.9
v 0.6 3.1 1.9
v 0.6 3.2 1.9
v 0.7 2.8 1.9
v 0.7 2.9 1.9
v 0.8 2 1.9
v 0.8 2.1 1.9
v 1 0.5 1.9
v 1 0.6 1.9
v 1 0.7 1.9
v 1 0.8 1.9
v 1 0.9 1.9
v 1.3 0.6 1.9
v 1.3 0.7 1.9
v 1.3 2.7 1.9
v 1.3 2.8 1.9
v 1.4 0.3 1.9
v 1.4 0.4 1.9
v 1.4 1.6 1.9
v 1.4 1.7 1.9
v 1.4 1.9 1.9
v 1.4 2 1.9
v 1.4 3.1 1.9
v 1.4 3.2 1.9
v 1.6 0.3 1.9
v 1.6 0.4 1.9
v 1.6 0.5 1.9
v 1.6 0.7 1.9
v 1.6 0.8 1.9
v 1.6 1.8 1.9
v 1.6 1.9 1.9
v 1.6 2 1.9
v 1.7 1.8 1.9
v 1.7 1.9 1.9
v 1.7 2.7 1.9
v 1.7 2.8 1.9
v 1.8 0.7 1.9
v 1.8 0.8 1.9
v 1.8 0.9 1.9
v 1.9 0.4 1.9
v 1.9 0.5 1.9
v 2 0 1.9
v 2 0.1 1.9
v 2 0.8 1.9
v 2 0.9 1.9
v 2 1 1.9
v 2 1.1 1.9
v 2 1.2 1.9
v 2 2.3 1.9
v 2 2.4 1.9
v 2 2.5 1.9
v 2 3.3 1.9
v 2 3.4 1.9
v 2 3.5 1.9
v 2 3.9 1.9
v 2 4 1.9
v 0.1 0 0
v 0.1 0.1 0
v 0.1 0.2 0
v 0.1 0.3 0
v 0.1 0.4 0
v 0.1 0.5 0
v 0.1 0.8 0
v 0.1 0.9 0
v 0.1 1 0
v 0.1 1.1 0
v 0.1 1.2 0
v 0.1 1.5 0
v 0.1 1.6 0
v 0.1 1.8 0
v 0.1 1.9 0
v 0.1 2 0
v 0.1 2.1 0
v 0.1 2.3 0
v 0.1 2.4 0
v 0.1 2.5 0
v 0.1 3 0
v 0.1 3.1 0
v 0.1 3.3 0
v 0.1 3.4 0
v 0.2 0.2 0
v 0.2 0.3 0
v 0.2 1.5 0
v 0.2 1.6 0
v 0.2 1.8 0
v 0.2 1.9 0
v 0.3 0.3 0
v 0.3 0.4 0
v 0.3 0.5 0
v 0.4 0.3 0
v 0.4 0.4 0
v 0.5 2.7 0
v 0.5 2.8 0
v 0.5 3 0
v 0.5 3.1 0
v 0.6 1.5 0
v 0.6 1.6 0
v 0.7 0.5 0
v 0.7 0.6 0
v 0.7 0.8 0
v 0.7 0.9 0
v 0.8 3 0
v 0.8 3.1 0
v 0.9 0.5 0
v 0.9 0.6 0
v 0.9 0.7 0
v 0.9 1.3 0
v 0.9 1.4 0
v 0.9 1.5 0
v 0.9 1.6 0
v 0.9 1.7 0
v 1.1 0.6 0
v 1.1 0.7 0
v 1.1 1.2 0
v 1.1 1.3 0
v 1.1 1.4 0
v 1.2 0.2 0
v 1.2 0.3 0
v 1.2 1.2 0
v 1.2 1.3 0
v 1.2 1.6 0
v 1.2 1.7 0
v 1.2 2 0
v 1.2 2.1 0
v 1.3 2.7 0
v 1.3 2.8 0
v 1.4 3 0
v 1.4 3.1 0
v 1.4 3.2 0
v 1.5 0.2 0
v 1.5 0.3 0
v 1.5 0.4 0
v 1.5 0.5 0
v 1.5 0.7 0
v 1.5 0.8 0
v 1.5 1.8 0
v 1.5 1.9 0
v 1.6 0.7 0
v 1.6 0.8 0
v 1.6 0.9 0
v 1.7 0.4 0
v 1.7 0.5 0
v 1.7 0.6 0
v 1.7 1.7 0
v 1.7 1.8 0
v 1.7 1.9 0
v 1.8 0.8 0
v 1.8 0.9 0
v 1.9 1.3 0
v 1.9 1.4 0
v 1.9 1.6 0
v 1.9 1.7 0
v 1.9 1.8 0
v 1.9 2.7 0
v 1.9 2.8 0
v 2 0 0
v 2 0.1 0
v 2 0.5 0
v 2 0.6 0
v 2 1 0
v 2 1.1 0
v 2 1.2 0
v 2 1.3 0
v 2 1.4 0
v 2 1.6 0
v 2 1.7 0
v 2 2.3 0
v 2 2.4 0
v 2 2.5 0
v 2 2.7 0
v 2 2.8 0
v 2 3.1 0
v 2 3.2 0
v 2 3.3 0
v 2 3.4 0
v -2 3.4 -2.1
v -2 3.5 -2.1
v -2 3.9 -2.1
v -2 4 -2.1
v 2 3.4 -2.1
v 2 3.5 -2.1
v 2 3.9 -2.1
v 2 4 -2.1
v 0.1 0 1.9
v 2 0 1.9
v 0.1 0 0
v 2 0 0
v -2 3.4 1.9
v 0.1 3.4 1.9
v 0.1 3.4 0
v 2 3.4 0
v -2 3.4 -2.1
v 2 3.4 -2.1
v -2 4 1.9
v 2 4 1.9
v -2 4 -2.1
v 2 4 -2.1

# faces
f 3/6/1 2/6/1 1/6/1
f 4/6/1 2/6/1 3/6/1
f 5/5/1 4/5/1 3/5/1
f 6/5/1 4/5/1 5/5/1
f 7/4/1 6/4/1 5/4/1
f 8/4/1 6/4/1 7/4/1
f 11/2/1 10/2/1 9/2/1
f 12/2/1 10/2/1 11/2/1
f 13/3/1 12/3/1 11/3/1
f 14/3/1 12/3/1 13/3/1
f 15/3/1 13/3/1 11/3/1
f 16/2/1 14/2/1 13/2/1
f 16/3/1 13/3/1 15/3/1
f 17/2/1 14/2/1 16/2/1
f 18/2/1 16/2/1 15/2/1
f 19/3/1 17/3/1 16/3/1
f 19/2/1 16/2/1 18/2/1
f 20/3/1 17/3/1 19/3/1
f 21/3/1 17/3/1 20/3/1
f 22/3/1 15/3/1 11/3/1
f 22/2/1 18/2/1 15/2/1
f 23/3/1 19/3/1 18/3/1
f 23/2/1 18/2/1 22/2/1
f 23/3/1 20/3/1 19/3/1
f 24/2/1 21/2/1 20/2/1
f 24/3/1 20/3/1 23/3/1
f 25/2/1 21/2/1 24/2/1
f 26/3/1 23/3/1 22/3/1
f 26/3/1 22/3/1 11/3/1
f 26/3/1 25/3/1 24/3/1
f 26/3/1 24/3/1 23/3/1
f 27/3/1 25/3/1 26/3/1
f 28/3/1 26/3/1 11/3/1
f 29/2/1 27/2/1 26/2/1
f 29/3/1 26/3/1 28/3/1
f 30/3/1 25/3/1 27/3/1
f 30/2/1 27/2/1 29/2/1
f 31/2/1 29/2/1 28/2/1
f 31/3/1 28/3/1 11/3/1
f 32/3/1 30/3/1 29/3/1
f 32/2/1 29/2/1 31/2/1
f 33/3/1 25/3/1 30/3/1
f 33/3/1 30/3/1 32/3/1
f 34/3/1 25/3/1 33/3/1
f 35/3/1 32/3/1 31/3/1
f 35/3/1 33/3/1 32/3/1
f 35/2/1 34/2/1 33/2/1
f 36/2/1 34/2/1 35/2/1
f 37/3/1 31/3/1 11/3/1
f 37/3/1 35/3/1 31/3/1
f 37/3/1 36/3/1 35/3/1
f 38/3/1 36/3/1 37/3/1
f 39/2/1 38/2/1 37/2/1
f 40/2/1 38/2/1 39/2/1
f 41/1/1 40/1/1 39/1/1
f 42/1/1 40/1/1 41/1/1
f 43/3/1 42/3/1 41/3/1
f 44/3/1 42/3/1 43/3/1
f 45/3/1 42/3/1 44/3/1
f 46/3/1 42/3/1 45/3/1
f 47/3/1 43/3/1 41/3/1
f 47/2/1 44/2/1 43/2/1
f 48/3/1 45/3/1 44/3/1
f 48/2/1 44/2/1 47/2/1
f 49/3/1 45/3/1 48/3/1
f 50/2/1 46/2/1 45/2/1
f 50/3/1 45/3/1 49/3/1
f 51/3/1 42/3/1 46/3/1
f 51/2/1 46/2/1 50/2/1
f 52/3/1 42/3/1 51/3/1
f 53/2/1 49/2/1 48/2/1
f 53/3/1 48/3/1 47/3/1
f 54/3/1 50/3/1 49/3/1
f 54/2/1 49/2/1 53/2/1
f 54/3/1 51/3/1 50/3/1
f 55/2/1 52/2/1 51/2/1
f 55/3/1 51/3/1 54/3/1
f 56/2/1 52/2/1 55/2/1
f 57/3/1 54/3/1 53/3/1
f 57/3/1 55/3/1 54/3/1
f 57/3/1 56/3/1 55/3/1
f 58/3/1 56/3/1 57/3/1
f 59/3/1 57/3/1 53/3/1
f 60/3/1 57/3/1 59/3/1
f 61/2/1 58/2/1 57/2/1
f 61/3/1 57/3/1 60/3/1
f 62/2/1 58/2/1 61/2/1
f 63/2/1 60/2/1 59/2/1
f 63/3/1 59/3/1 53/3/1
f 64/3/1 62/3/1 61/3/1
f 64/2/1 60/2/1 63/2/1
f 64/3/1 61/3/1 60/3/1
f 65/3/1 62/3/1 64/3/1
f 66/3/1 62/3/1 65/3/1
f 67/3/1 64/3/1 63/3/1
f 67/3/1 65/3/1 64/3/1
f 67/2/1 66/2/1 65/2/1
f 68/2/1 66/2/1 67/2/1
f 69/3/1 53/3/1 47/3/1
f 69/3/1 47/3/1 41/3/1
f 69/3/1 68/3/1 67/3/1
f 69/3/1 67/3/1 63/3/1
f 69/3/1 63/3/1 53/3/1
f 70/3/1 68/3/1 69/3/1
f 71/2/1 70/2/1 69/2/1
f 72/2/1 70/2/1 71/2/1
f 73/1/1 72/1/1 71/1/1
f 74/1/1 72/1/1 73/1/1
f 75/3/1 74/3/1 73/3/1
f 76/3/1 74/3/1 75/3/1
f 77/3/1 75/3/1 73/3/1
f 78/2/1 76/2/1 75/2/1
f 78/3/1 75/3/1 77/3/1
f 79/2/1 76/2/1 78/2/1
f 80/3/1 74/3/1 76/3/1
f 80/2/1 76/2/1 79/2/1
f 81/2/1 79/2/1 78/2/1
f 81/3/1 77/3/1 73/3/1
f 81/2/1 78/2/1 77/2/1
f 82/3/1 80/3/1 79/3/1
f 82/2/1 79/2/1 81/2/1
f 83/3/1 81/3/1 73/3/1
f 83/3/1 82/3/1 81/3/1
f 84/3/1 82/3/1 83/3/1
f 85/3/1 83/3/1 73/3/1
f 85/2/1 84/2/1 83/2/1
f 86/3/1 82/3/1 84/3/1
f 86/2/1 84/2/1 85/2/1
f 87/3/1 74/3/1 80/3/1
f 87/3/1 82/3/1 86/3/1
f 87/3/1 80/3/1 82/3/1
f 88/3/1 74/3/1 87/3/1
f 89/3/1 86/3/1 85/3/1
f 89/3/1 87/3/1 86/3/1
f 89/2/1 88/2/1 87/2/1
f 90/2/1 88/2/1 89/2/1
f 91/3/1 85/3/1 73/3/1
f 91/3/1 89/3/1 85/3/1
f 91/3/1 90/3/1 89/3/1
f 92/3/1 90/3/1 91/3/1
f 93/2/1 92/2/1 91/2/1
f 94/2/1 92/2/1 93/2/1
f 95/2/2 96/2/2 97/2/2
f 97/2/2 96/2/2 98/2/2
f 98/2/2 96/2/2 99/2/2
f 99/2/2 96/2/2 100/2/2
f 97/3/2 98/3/2 101/3/2
f 98/2/2 99/2/2 101/2/2
f 99/3/2 100/3/2 102/3/2
f 101/2/2 99/2/2 102/2/2
f 101/3/2 102/3/2 103/3/2
f 102/3/2 100/3/2 103/3/2
f 103/3/2 100/3/2 104/3/2
f 97/3/2 101/3/2 105/3/2
f 101/3/2 103/3/2 105/3/2
f 103/2/2 104/2/2 106/2/2
f 105/3/2 103/3/2 106/3/2
f 106/2/2 104/2/2 107/2/2
f 97/3/2 105/3/2 108/3/2
f 105/2/2 106/2/2 108/2/2
f 106/3/2 107/3/2 109/3/2
f 108/2/2 106/2/2 109/2/2
f 97/3/2 108/3/2 110/3/2
f 108/3/2 109/3/2 110/3/2
f 110/3/2 109/3/2 111/3/2
f 110/2/2 111/2/2 112/2/2
f 111/3/2 109/3/2 113/3/2
f 112/2/2 111/2/2 113/2/2
f 112/3/2 113/3/2 114/3/2
f 109/3/2 107/3/2 115/3/2
f 114/3/2 113/3/2 115/3/2
f 113/3/2 109/3/2 115/3/2
f 114/2/2 115/2/2 116/2/2
f 116/2/2 115/2/2 117/2/2
f 116/1/2 117/1/2 118/1/2
f 118/1/2 117/1/2 119/1/2
f 118/3/2 119/3/2 120/3/2
f 120/3/2 119/3/2 121/3/2
f 121/3/2 119/3/2 122/3/2
f 122/3/2 119/3/2 123/3/2
f 118/3/2 120/3/2 124/3/2
f 120/2/2 121/2/2 124/2/2
f 121/3/2 122/3/2 125/3/2
f 124/2/2 121/2/2 125/2/2
f 122/2/2 123/2/2 126/2/2
f 125/3/2 122/3/2 126/3/2
f 126/2/2 123/2/2 127/2/2
f 124/3/2 125/3/2 128/3/2
f 125/3/2 126/3/2 128/3/2
f 126/3/2 127/3/2 128/3/2
f 128/3/2 127/3/2 129/3/2
f 129/3/2 127/3/2 130/3/2
f 130/3/2 127/3/2 131/3/2
f 124/3/2 128/3/2 132/3/2
f 128/2/2 129/2/2 133/2/2
f 132/3/2 128/3/2 133/3/2
f 129/3/2 130/3/2 134/3/2
f 133/2/2 129/2/2 134/2/2
f 130/2/2 131/2/2 135/2/2
f 134/3/2 130/3/2 135/3/2
f 131/3/2 127/3/2 136/3/2
f 135/2/2 131/2/2 136/2/2
f 136/3/2 127/3/2 137/3/2
f 124/3/2 132/3/2 138/3/2
f 132/2/2 133/2/2 138/2/2
f 134/3/2 135/3/2 139/3/2
f 138/2/2 133/2/2 139/2/2
f 133/3/2 134/3/2 139/3/2
f 135/3/2 136/3/2 139/3/2
f 136/2/2 137/2/2 140/2/2
f 139/3/2 136/3/2 140/3/2
f 140/2/2 137/2/2 141/2/2
f 124/3/2 138/3/2 142/3/2
f 138/3/2 139/3/2 142/3/2
f 140/3/2 141/3/2 142/3/2
f 139/3/2 140/3/2 142/3/2
f 142/3/2 141/3/2 143/3/2
f 118/3/2 124/3/2 144/3/2
f 124/3/2 142/3/2 144/3/2
f 142/2/2 143/2/2 145/2/2
f 144/3/2 142/3/2 145/3/2
f 143/3/2 141/3/2 146/3/2
f 145/2/2 143/2/2 146/2/2
f 146/3/2 141/3/2 147/3/2
f 147/3/2 141/3/2 148/3/2
f 148/3/2 141/3/2 149/3/2
f 149/3/2 141/3/2 150/3/2
f 118/3/2 144/3/2 151/3/2
f 144/2/2 145/2/2 152/2/2
f 151/3/2 144/3/2 152/3/2
f 145/3/2 146/3/2 153/3/2
f 152/2/2 145/2/2 153/2/2
f 146/3/2 147/3/2 153/3/2
f 153/3/2 147/3/2 154/3/2
f 147/2/2 148/2/2 155/2/2
f 154/3/2 147/3/2 155/3/2
f 148/3/2 149/3/2 156/3/2
f 155/2/2 148/2/2 156/2/2
f 118/3/2 151/3/2 157/3/2
f 151/2/2 152/2/2 157/2/2
f 153/3/2 154/3/2 158/3/2
f 157/2/2 152/2/2 158/2/2
f 152/3/2 153/3/2 158/3/2
f 158/3/2 154/3/2 159/3/2
f 154/2/2 155/2/2 160/2/2
f 159/3/2 154/3/2 160/3/2
f 155/3/2 156/3/2 161/3/2
f 160/2/2 155/2/2 161/2/2
f 156/3/2 149/3/2 162/3/2
f 161/3/2 156/3/2 162/3/2
f 149/2/2 150/2/2 163/2/2
f 162/3/2 149/3/2 163/3/2
f 150/3/2 141/3/2 164/3/2
f 163/2/2 150/2/2 164/2/2
f 159/2/2 160/2/2 165/2/2
f 158/3/2 159/3/2 165/3/2
f 157/3/2 158/3/2 165/3/2
f 160/3/2 161/3/2 166/3/2
f 165/2/2 160/2/2 166/2/2
f 161/3/2 162/3/2 166/3/2
f 162/2/2 163/2/2 167/2/2
f 166/3/2 162/3/2 167/3/2
f 163/3/2 164/3/2 168/3/2
f 167/2/2 163/2/2 168/2/2
f 157/3/2 165/3/2 169/3/2
f 165/3/2 166/3/2 169/3/2
f 167/3/2 168/3/2 169/3/2
f 118/3/2 157/3/2 169/3/2
f 166/3/2 167/3/2 169/3/2
f 168/3/2 164/3/2 170/3/2
f 169/3/2 168/3/2 170/3/2
f 164/3/2 141/3/2 170/3/2
f 169/2/2 170/2/2 171/2/2
f 171/2/2 170/2/2 172/2/2
f 171/1/2 172/1/2 173/1/2
f 173/1/2 172/1/2 174/1/2
f 173/3/2 174/3/2 175/3/2
f 175/3/2 174/3/2 176/3/2
f 173/3/2 175/3/2 177/3/2
f 177/3/2 175/3/2 178/3/2
f 175/2/2 176/2/2 179/2/2
f 178/3/2 175/3/2 179/3/2
f 179/2/2 176/2/2 180/2/2
f 173/3/2 177/3/2 181/3/2
f 177/2/2 178/2/2 182/2/2
f 181/3/2 177/3/2 182/3/2
f 178/3/2 179/3/2 183/3/2
f 182/2/2 178/2/2 183/2/2
f 179/3/2 180/3/2 183/3/2
f 173/3/2 181/3/2 184/3/2
f 181/2/2 182/2/2 185/2/2
f 184/3/2 181/3/2 185/3/2
f 182/3/2 183/3/2 186/3/2
f 185/2/2 182/2/2 186/2/2
f 173/3/2 184/3/2 187/3/2
f 184/2/2 185/2/2 188/2/2
f 187/3/2 184/3/2 188/3/2
f 185/3/2 186/3/2 189/3/2
f 188/2/2 185/2/2 189/2/2
f 183/3/2 180/3/2 190/3/2
f 189/3/2 186/3/2 190/3/2
f 186/3/2 183/3/2 190/3/2
f 190/3/2 180/3/2 191/3/2
f 187/2/2 188/2/2 192/2/2
f 173/3/2 187/3/2 192/3/2
f 188/3/2 189/3/2 193/3/2
f 192/2/2 188/2/2 193/2/2
f 189/3/2 190/3/2 193/3/2
f 190/2/2 191/2/2 194/2/2
f 193/3/2 190/3/2 194/3/2
f 194/2/2 191/2/2 195/2/2
f 173/3/2 192/3/2 196/3/2
f 192/3/2 193/3/2 196/3/2
f 194/3/2 195/3/2 196/3/2
f 193/3/2 194/3/2 196/3/2
f 196/3/2 195/3/2 197/3/2
f 196/2/2 197/2/2 198/2/2
f 198/2/2 197/2/2 199/2/2
f 198/6/2 199/6/2 201/6/2
f 199/6/2 200/6/2 201/6/2
f 201/6/2 200/6/2 202/6/2
f 201/5/2 202/5/2 203/5/2
f 203/5/2 202/5/2 204/5/2
f 203/4/2 204/4/2 205/4/2
f 205/4/2 204/4/2 206/4/2
f 220/6/3 208/6/3 207/6/3
f 221/3/3 213/3/3 212/3/3
f 222/3/3 213/3/3 221/3/3
f 223/3/3 216/3/3 215/3/3
f 224/3/3 216/3/3 223/3/3
f 225/3/3 219/3/3 218/3/3
f 226/3/3 219/3/3 225/3/3
f 227/3/3 223/3/3 215/3/3
f 228/3/3 223/3/3 227/3/3
f 229/3/3 221/3/3 212/3/3
f 230/3/3 221/3/3 229/3/3
f 231/3/3 225/3/3 218/3/3
f 232/2/3 226/2/3 225/2/3
f 232/3/3 225/3/3 231/3/3
f 233/3/3 219/3/3 226/3/3
f 233/2/3 226/2/3 232/2/3
f 234/3/3 219/3/3 233/3/3
f 235/3/3 219/3/3 234/3/3
f 236/2/3 232/2/3 231/2/3
f 236/3/3 231/3/3 218/3/3
f 237/3/3 233/3/3 232/3/3
f 237/2/3 232/2/3 236/2/3
f 237/3/3 234/3/3 233/3/3
f 238/3/3 223/3/3 228/3/3
f 238/2/3 224/2/3 223/2/3
f 239/3/3 216/3/3 224/3/3
f 239/2/3 224/2/3 238/2/3
f 240/3/3 229/3/3 212/3/3
f 240/2/3 230/2/3 229/2/3
f 241/3/3 221/3/3 230/3/3
f 241/2/3 230/2/3 240/2/3
f 242/3/3 221/3/3 241/3/3
f 243/2/3 222/2/3 221/2/3
f 243/3/3 221/3/3 242/3/3
f 244/3/3 213/3/3 222/3/3
f 244/2/3 222/2/3 243/2/3
f 245/2/3 242/2/3 241/2/3
f 245/3/3 241/3/3 240/3/3
f 246/3/3 243/3/3 242/3/3
f 246/2/3 242/2/3 245/2/3
f 246/3/3 244/3/3 243/3/3
f 247/3/3 237/3/3 236/3/3
f 247/3/3 236/3/3 218/3/3
f 248/3/3 237/3/3 247/3/3
f 249/3/3 245/3/3 240/3/3
f 249/3/3 240/3/3 212/3/3
f 249/3/3 246/3/3 245/3/3
f 250/3/3 246/3/3 249/3/3
f 251/3/3 227/3/3 215/3/3
f 251/2/3 228/2/3 227/2/3
f 252/3/3 238/3/3 228/3/3
f 252/2/3 228/2/3 251/2/3
f 252/3/3 239/3/3 238/3/3
f 253/3/3 239/3/3 252/3/3
f 254/3/3 239/3/3 253/3/3
f 255/3/3 237/3/3 248/3/3
f 255/3/3 234/3/3 237/3/3
f 255/2/3 235/2/3 234/2/3
f 256/3/3 219/3/3 235/3/3
f 256/2/3 235/2/3 255/2/3
f 257/2/3 250/2/3 249/2/3
f 257/3/3 249/3/3 212/3/3
f 258/3/3 246/3/3 250/3/3
f 258/2/3 250/2/3 257/2/3
f 259/3/3 246/3/3 258/3/3
f 260/3/3 244/3/3 246/3/3
f 260/3/3 246/3/3 259/3/3
f 261/3/3 244/3/3 260/3/3
f 262/3/3 253/3/3 252/3/3
f 262/3/3 252/3/3 251/3/3
f 263/2/3 254/2/3 253/2/3
f 263/3/3 253/3/3 262/3/3
f 264/3/3 239/3/3 254/3/3
f 264/2/3 254/2/3 263/2/3
f 265/2/3 263/2/3 262/2/3
f 265/3/3 262/3/3 251/3/3
f 266/3/3 264/3/3 263/3/3
f 266/2/3 263/2/3 265/2/3
f 267/2/3 248/2/3 247/2/3
f 267/3/3 247/3/3 218/3/3
f 268/3/3 255/3/3 248/3/3
f 268/2/3 248/2/3 267/2/3
f 268/3/3 256/3/3 255/3/3
f 269/3/3 260/3/3 259/3/3
f 269/2/3 261/2/3 260/2/3
f 270/3/3 244/3/3 261/3/3
f 270/2/3 261/2/3 269/2/3
f 271/3/3 213/3/3 244/3/3
f 271/3/3 244/3/3 270/3/3
f 272/2/3 259/2/3 258/2/3
f 272/3/3 258/3/3 257/3/3
f 273/3/3 270/3/3 269/3/3
f 273/2/3 259/2/3 272/2/3
f 273/3/3 269/3/3 259/3/3
f 274/2/3 212/2/3 211/2/3
f 275/3/3 272/3/3 257/3/3
f 275/2/3 212/2/3 274/2/3
f 275/3/3 257/3/3 212/3/3
f 275/3/3 273/3/3 272/3/3
f 276/3/3 270/3/3 273/3/3
f 276/3/3 273/3/3 275/3/3
f 276/2/3 271/2/3 270/2/3
f 277/3/3 213/3/3 271/3/3
f 277/2/3 271/2/3 276/2/3
f 278/2/3 214/2/3 213/2/3
f 278/3/3 213/3/3 277/3/3
f 279/1/3 215/1/3 214/1/3
f 279/2/3 214/2/3 278/2/3
f 280/3/3 251/3/3 215/3/3
f 280/1/3 215/1/3 279/1/3
f 280/3/3 265/3/3 251/3/3
f 280/3/3 266/3/3 265/3/3
f 281/3/3 239/3/3 264/3/3
f 281/3/3 266/3/3 280/3/3
f 281/2/3 217/2/3 216/2/3
f 281/3/3 264/3/3 266/3/3
f 281/3/3 216/3/3 239/3/3
f 282/1/3 218/1/3 217/1/3
f 282/2/3 217/2/3 281/2/3
f 283/3/3 267/3/3 218/3/3
f 283/1/3 218/1/3 282/1/3
f 283/3/3 268/3/3 267/3/3
f 284/2/3 220/2/3 219/2/3
f 284/3/3 268/3/3 283/3/3
f 284/3/3 219/3/3 256/3/3
f 284/3/3 256/3/3 268/3/3
f 285/6/3 208/6/3 220/6/3
f 285/2/3 220/2/3 284/2/3
f 286/5/3 209/5/3 208/5/3
f 286/6/3 208/6/3 285/6/3
f 287/4/3 210/4/3 209/4/3
f 287/5/3 209/5/3 286/5/3
f 288/4/3 210/4/3 287/4/3
f 290/3/4 291/3/4 313/3/4
f 291/2/4 292/2/4 313/2/4
f 292/3/4 293/3/4 314/3/4
f 313/2/4 292/2/4 314/2/4
f 299/3/4 300/3/4 315/3/4
f 300/2/4 301/2/4 315/2/4
f 301/3/4 302/3/4 316/3/4
f 315/2/4 301/2/4 316/2/4
f 302/2/4 303/2/4 317/2/4
f 316/3/4 302/3/4 317/3/4
f 303/3/4 304/3/4 318/3/4
f 317/2/4 303/2/4 318/2/4
f 314/3/4 293/3/4 319/3/4
f 313/3/4 314/3/4 319/3/4
f 293/2/4 294/2/4 320/2/4
f 319/3/4 293/3/4 320/3/4
f 294/3/4 295/3/4 321/3/4
f 320/2/4 294/2/4 321/2/4
f 313/3/4 319/3/4 322/3/4
f 319/2/4 320/2/4 322/2/4
f 320/3/4 321/3/4 323/3/4
f 322/2/4 320/2/4 323/2/4
f 308/3/4 309/3/4 324/3/4
f 324/3/4 309/3/4 325/3/4
f 309/2/4 310/2/4 326/2/4
f 325/3/4 309/3/4 326/3/4
f 310/3/4 311/3/4 327/3/4
f 326/2/4 310/2/4 327/2/4
f 317/3/4 318/3/4 328/3/4
f 299/3/4 315/3/4 328/3/4
f 315/3/4 316/3/4 328/3/4
f 316/3/4 317/3/4 328/3/4
f 328/3/4 318/3/4 329/3/4
f 321/3/4 295/3/4 330/3/4
f 322/3/4 323/3/4 330/3/4
f 323/3/4 321/3/4 330/3/4
f 330/3/4 295/3/4 331/3/4
f 295/2/4 296/2/4 332/2/4
f 331/3/4 295/3/4 332/3/4
f 296/3/4 297/3/4 333/3/4
f 332/2/4 296/2/4 333/2/4
f 325/3/4 326/3/4 334/3/4
f 326/3/4 327/3/4 334/3/4
f 327/3/4 311/3/4 335/3/4
f 334/3/4 327/3/4 335/3/4
f 330/2/4 331/2/4 336/2/4
f 322/3/4 330/3/4 336/3/4
f 331/3/4 332/3/4 337/3/4
f 336/2/4 331/2/4 337/2/4
f 332/3/4 333/3/4 337/3/4
f 337/3/4 333/3/4 338/3/4
f 299/3/4 328/3/4 339/3/4
f 339/3/4 328/3/4 340/3/4
f 328/2/4 329/2/4 341/2/4
f 340/3/4 328/3/4 341/3/4
f 329/3/4 318/3/4 342/3/4
f 341/2/4 329/2/4 342/2/4
f 342/3/4 318/3/4 343/3/4
f 336/3/4 337/3/4 344/3/4
f 337/2/4 338/2/4 344/2/4
f 338/3/4 333/3/4 345/3/4
f 344/2/4 338/2/4 345/2/4
f 298/1/4 299/1/4 346/1/4
f 299/3/4 339/3/4 346/3/4
f 339/2/4 340/2/4 347/2/4
f 346/3/4 339/3/4 347/3/4
f 340/3/4 341/3/4 348/3/4
f 347/2/4 340/2/4 348/2/4
f 341/3/4 342/3/4 348/3/4
f 290/3/4 313/3/4 349/3/4
f 313/3/4 322/3/4 349/3/4
f 322/3/4 336/3/4 349/3/4
f 344/3/4 345/3/4 349/3/4
f 336/3/4 344/3/4 349/3/4
f 349/3/4 345/3/4 350/3/4
f 346/2/4 347/2/4 351/2/4
f 298/1/4 346/1/4 351/1/4
f 347/3/4 348/3/4 352/3/4
f 351/2/4 347/2/4 352/2/4
f 348/3/4 342/3/4 353/3/4
f 352/3/4 348/3/4 353/3/4
f 342/2/4 343/2/4 353/2/4
f 343/3/4 318/3/4 354/3/4
f 353/2/4 343/2/4 354/2/4
f 318/3/4 304/3/4 355/3/4
f 354/3/4 318/3/4 355/3/4
f 304/2/4 305/2/4 355/2/4
f 305/3/4 306/3/4 356/3/4
f 355/2/4 305/2/4 356/2/4
f 308/3/4 324/3/4 357/3/4
f 324/2/4 325/2/4 357/2/4
f 325/3/4 334/3/4 358/3/4
f 357/2/4 325/2/4 358/2/4
f 334/2/4 335/2/4 359/2/4
f 358/3/4 334/3/4 359/3/4
f 357/3/4 358/3/4 359/3/4
f 335/3/4 311/3/4 360/3/4
f 359/2/4 335/2/4 360/2/4
f 360/3/4 311/3/4 361/3/4
f 290/3/4 349/3/4 362/3/4
f 349/2/4 350/2/4 362/2/4
f 350/3/4 345/3/4 363/3/4
f 362/2/4 350/2/4 363/2/4
f 363/3/4 345/3/4 364/3/4
f 364/3/4 345/3/4 365/3/4
f 345/3/4 333/3/4 366/3/4
f 365/3/4 345/3/4 366/3/4
f 366/3/4 333/3/4 367/3/4
f 351/3/4 352/3/4 368/3/4
f 353/3/4 354/3/4 368/3/4
f 352/3/4 353/3/4 368/3/4
f 355/3/4 356/3/4 368/3/4
f 354/3/4 355/3/4 368/3/4
f 368/3/4 356/3/4 369/3/4
f 366/2/4 367/2/4 370/2/4
f 365/3/4 366/3/4 370/3/4
f 367/3/4 333/3/4 371/3/4
f 370/2/4 367/2/4 371/2/4
f 333/3/4 297/3/4 372/3/4
f 371/3/4 333/3/4 372/3/4
f 364/2/4 365/2/4 373/2/4
f 363/3/4 364/3/4 373/3/4
f 362/3/4 363/3/4 373/3/4
f 370/3/4 371/3/4 374/3/4
f 373/2/4 365/2/4 374/2/4
f 365/3/4 370/3/4 374/3/4
f 374/3/4 371/3/4 375/3/4
f 351/3/4 368/3/4 376/3/4
f 368/2/4 369/2/4 377/2/4
f 376/3/4 368/3/4 377/3/4
f 369/3/4 356/3/4 378/3/4
f 377/2/4 369/2/4 378/2/4
f 371/2/4 372/2/4 379/2/4
f 375/3/4 371/3/4 379/3/4
f 372/3/4 297/3/4 380/3/4
f 379/2/4 372/2/4 380/2/4
f 351/3/4 376/3/4 381/3/4
f 381/3/4 376/3/4 382/3/4
f 382/3/4 376/3/4 383/3/4
f 376/2/4 377/2/4 384/2/4
f 383/3/4 376/3/4 384/3/4
f 377/3/4 378/3/4 385/3/4
f 384/2/4 377/2/4 385/2/4
f 359/3/4 360/3/4 386/3/4
f 357/3/4 359/3/4 386/3/4
f 308/3/4 357/3/4 386/3/4
f 386/3/4 360/3/4 387/3/4
f 289/2/4 290/2/4 388/2/4
f 362/3/4 373/3/4 389/3/4
f 388/2/4 290/2/4 389/2/4
f 290/3/4 362/3/4 389/3/4
f 373/3/4 374/3/4 389/3/4
f 374/2/4 375/2/4 390/2/4
f 389/3/4 374/3/4 390/3/4
f 375/3/4 379/3/4 391/3/4
f 390/2/4 375/2/4 391/2/4
f 379/3/4 380/3/4 391/3/4
f 297/2/4 298/2/4 392/2/4
f 391/3/4 380/3/4 392/3/4
f 380/3/4 297/3/4 392/3/4
f 298/1/4 351/1/4 393/1/4
f 392/2/4 298/2/4 393/2/4
f 351/3/4 381/3/4 394/3/4
f 393/1/4 351/1/4 394/1/4
f 381/2/4 382/2/4 395/2/4
f 394/3/4 381/3/4 395/3/4
f 382/3/4 383/3/4 396/3/4
f 395/2/4 382/2/4 396/2/4
f 383/2/4 384/2/4 397/2/4
f 396/3/4 383/3/4 397/3/4
f 384/3/4 385/3/4 398/3/4
f 397/2/4 384/2/4 398/2/4
f 385/3/4 378/3/4 399/3/4
f 398/3/4 385/3/4 399/3/4
f 356/3/4 306/3/4 399/3/4
f 378/3/4 356/3/4 399/3/4
f 306/2/4 307/2/4 399/2/4
f 307/1/4 308/1/4 400/1/4
f 399/2/4 307/2/4 400/2/4
f 308/3/4 386/3/4 401/3/4
f 400/1/4 308/1/4 401/1/4
f 386/2/4 387/2/4 402/2/4
f 401/3/4 386/3/4 402/3/4
f 387/3/4 360/3/4 403/3/4
f 402/2/4 387/2/4 403/2/4
f 360/2/4 361/2/4 404/2/4
f 403/3/4 360/3/4 404/3/4
f 361/3/4 311/3/4 405/3/4
f 404/2/4 361/2/4 405/2/4
f 311/2/4 312/2/4 406/2/4
f 405/3/4 311/3/4 406/3/4
f 406/2/4 312/2/4 407/2/4
f 408/6/4 409/6/4 412/6/4
f 409/5/4 410/5/4 413/5/4
f 412/6/4 409/6/4 413/6/4
f 410/4/4 411/4/4 414/4/4
f 413/5/4 410/5/4 414/5/4
f 414/4/4 411/4/4 415/4/4
f 418/2/5 417/2/5 416/2/5
f 419/2/5 417/2/5 418/2/5
f 422/6/5 421/6/5 420/6/5
f 424/6/5 422/6/5 420/6/5
f 424/6/5 423/6/5 422/6/5
f 425/6/5 423/6/5 424/6/5
f 426/4/6 427/4/6 428/4/6
f 428/4/6 427/4/6 429/4/6
