# MagicaVoxel @ Ephtracy

# group
o 

# material
mtllib MugGreen.mtl
usemtl palette

# normals
vn -1 0 0
vn 1 0 0
vn 0 0 1
vn 0 0 -1
vn 0 -1 0
vn 0 1 0

# texcoords
vt 0.244141 0.5
vt 0.248047 0.5
vt 0.279297 0.5
vt 0.595703 0.5

# verts
v -0.3 0.1 0.2
v -0.3 0.1 -0.2
v -0.3 0.7 0.2
v -0.3 0.7 -0.2
v -0.2 0 0.2
v -0.2 0 -0.2
v -0.2 0.1 0.3
v -0.2 0.1 0.2
v -0.2 0.1 -0.2
v -0.2 0.1 -0.3
v -0.2 0.7 0.3
v -0.2 0.7 0.2
v -0.2 0.7 -0.2
v -0.2 0.7 -0.3
v 0.2 0.6 0.2
v 0.2 0.6 8.9407e-08
v 0.2 0.6 -0.0999999
v 0.2 0.6 -0.2
v 0.2 0.7 0.2
v 0.2 0.7 -0.2
v 0.5 0.3 0.1
v 0.5 0.3 -0.0999999
v 0.5 0.5 0.1
v 0.5 0.5 -0.0999999
v -0.2 0.6 0.2
v -0.2 0.6 0.1
v -0.2 0.6 -0.0999999
v -0.2 0.6 -0.2
v -0.2 0.7 0.2
v -0.2 0.7 -0.2
v 0.2 0 0.2
v 0.2 0 -0.2
v 0.2 0.1 0.3
v 0.2 0.1 0.2
v 0.2 0.1 -0.2
v 0.2 0.1 -0.3
v 0.2 0.7 0.3
v 0.2 0.7 0.2
v 0.2 0.7 -0.2
v 0.2 0.7 -0.3
v 0.3 0.1 0.2
v 0.3 0.1 -0.2
v 0.3 0.2 0.1
v 0.3 0.2 -0.0999999
v 0.3 0.3 0.1
v 0.3 0.3 -0.0999999
v 0.3 0.5 0.1
v 0.3 0.5 -0.0999999
v 0.3 0.6 0.1
v 0.3 0.6 -0.0999999
v 0.3 0.7 0.2
v 0.3 0.7 -0.2
v 0.6 0.2 0.1
v 0.6 0.2 -0.0999999
v 0.6 0.6 0.1
v 0.6 0.6 -0.0999999
v -0.2 0.1 0.3
v -0.2 0.7 0.3
v 0.2 0.1 0.3
v 0.2 0.7 0.3
v -0.3 0.1 0.2
v -0.3 0.7 0.2
v -0.2 0 0.2
v -0.2 0.1 0.2
v -0.2 0.7 0.2
v 0.2 0 0.2
v 0.2 0.1 0.2
v 0.2 0.7 0.2
v 0.3 0.1 0.2
v 0.3 0.7 0.2
v 0.3 0.2 0.1
v 0.3 0.3 0.1
v 0.3 0.5 0.1
v 0.3 0.6 0.1
v 0.5 0.3 0.1
v 0.5 0.5 0.1
v 0.6 0.2 0.1
v 0.6 0.6 0.1
v -0.2 0.6 -0.2
v -0.2 0.7 -0.2
v -0.1 0.6 -0.2
v 2.98023e-08 0.6 -0.2
v 0.1 0.6 -0.2
v 0.2 0.6 -0.2
v 0.2 0.7 -0.2
v -0.2 0.6 0.2
v -0.2 0.7 0.2
v -0.1 0.6 0.2
v 2.98023e-08 0.6 0.2
v 0.1 0.6 0.2
v 0.2 0.6 0.2
v 0.2 0.7 0.2
v 0.3 0.2 -0.0999999
v 0.3 0.3 -0.0999999
v 0.3 0.5 -0.0999999
v 0.3 0.6 -0.0999999
v 0.5 0.3 -0.0999999
v 0.5 0.5 -0.0999999
v 0.6 0.2 -0.0999999
v 0.6 0.6 -0.0999999
v -0.3 0.1 -0.2
v -0.3 0.7 -0.2
v -0.2 0 -0.2
v -0.2 0.1 -0.2
v -0.2 0.7 -0.2
v 0.2 0 -0.2
v 0.2 0.1 -0.2
v 0.2 0.7 -0.2
v 0.3 0.1 -0.2
v 0.3 0.7 -0.2
v -0.2 0.1 -0.3
v -0.2 0.7 -0.3
v 0.2 0.1 -0.3
v 0.2 0.7 -0.3
v -0.2 0 0.2
v 0.2 0 0.2
v -0.2 0 -0.2
v 0.2 0 -0.2
v -0.2 0.1 0.3
v 0.2 0.1 0.3
v -0.3 0.1 0.2
v -0.2 0.1 0.2
v 0.2 0.1 0.2
v 0.3 0.1 0.2
v -0.3 0.1 -0.2
v -0.2 0.1 -0.2
v 0.2 0.1 -0.2
v 0.3 0.1 -0.2
v -0.2 0.1 -0.3
v 0.2 0.1 -0.3
v 0.3 0.2 0.1
v 0.6 0.2 0.1
v 0.3 0.2 -0.0999999
v 0.6 0.2 -0.0999999
v 0.3 0.5 0.1
v 0.5 0.5 0.1
v 0.3 0.5 -0.0999999
v 0.5 0.5 -0.0999999
v 0.3 0.3 0.1
v 0.5 0.3 0.1
v 0.3 0.3 -0.0999999
v 0.5 0.3 -0.0999999
v -0.2 0.6 0.2
v -0.1 0.6 0.2
v 2.98023e-08 0.6 0.2
v 0.1 0.6 0.2
v 0.2 0.6 0.2
v -0.2 0.6 0.1
v -0.1 0.6 0.1
v 2.98023e-08 0.6 0.1
v 0.1 0.6 0.1
v 0.3 0.6 0.1
v 0.6 0.6 0.1
v 0.1 0.6 8.9407e-08
v 0.2 0.6 8.9407e-08
v -0.2 0.6 -0.0999999
v -0.1 0.6 -0.0999999
v 2.98023e-08 0.6 -0.0999999
v 0.1 0.6 -0.0999999
v 0.2 0.6 -0.0999999
v 0.3 0.6 -0.0999999
v 0.6 0.6 -0.0999999
v -0.2 0.6 -0.2
v -0.1 0.6 -0.2
v 2.98023e-08 0.6 -0.2
v 0.1 0.6 -0.2
v 0.2 0.6 -0.2
v -0.2 0.7 0.3
v 0.2 0.7 0.3
v -0.3 0.7 0.2
v -0.2 0.7 0.2
v 0.2 0.7 0.2
v 0.3 0.7 0.2
v -0.3 0.7 -0.2
v -0.2 0.7 -0.2
v 0.2 0.7 -0.2
v 0.3 0.7 -0.2
v -0.2 0.7 -0.3
v 0.2 0.7 -0.3

# faces
f 3/4/1 2/4/1 1/4/1
f 4/4/1 2/4/1 3/4/1
f 8/4/1 6/4/1 5/4/1
f 9/4/1 6/4/1 8/4/1
f 11/4/1 8/4/1 7/4/1
f 12/4/1 8/4/1 11/4/1
f 13/4/1 10/4/1 9/4/1
f 14/4/1 10/4/1 13/4/1
f 19/4/1 16/4/1 15/4/1
f 19/4/1 18/4/1 17/4/1
f 19/4/1 17/4/1 16/4/1
f 20/4/1 18/4/1 19/4/1
f 23/4/1 22/4/1 21/4/1
f 24/4/1 22/4/1 23/4/1
f 25/4/2 26/4/2 29/4/2
f 27/4/2 28/4/2 29/4/2
f 26/4/2 27/4/2 29/4/2
f 29/4/2 28/4/2 30/4/2
f 31/4/2 32/4/2 34/4/2
f 34/4/2 32/4/2 35/4/2
f 33/4/2 34/4/2 37/4/2
f 37/4/2 34/4/2 38/4/2
f 35/4/2 36/4/2 39/4/2
f 39/4/2 36/4/2 40/4/2
f 41/4/2 42/4/2 43/4/2
f 43/4/2 42/4/2 44/4/2
f 41/4/2 43/4/2 45/4/2
f 44/4/2 42/4/2 46/4/2
f 41/4/2 45/4/2 47/4/2
f 45/4/2 46/4/2 47/4/2
f 46/4/2 42/4/2 48/4/2
f 47/4/2 46/4/2 48/4/2
f 41/4/2 47/4/2 49/4/2
f 48/4/2 42/4/2 50/4/2
f 41/4/2 49/4/2 51/4/2
f 49/4/2 50/4/2 51/4/2
f 50/4/2 42/4/2 52/4/2
f 51/4/2 50/4/2 52/4/2
f 53/4/2 54/4/2 55/4/2
f 55/4/2 54/4/2 56/4/2
f 59/4/3 58/4/3 57/4/3
f 60/4/3 58/4/3 59/4/3
f 64/4/3 62/4/3 61/4/3
f 65/4/3 62/4/3 64/4/3
f 66/4/3 64/4/3 63/4/3
f 67/4/3 64/4/3 66/4/3
f 69/4/3 68/4/3 67/4/3
f 70/4/3 68/4/3 69/4/3
f 75/4/3 72/4/3 71/4/3
f 76/4/3 74/4/3 73/4/3
f 77/4/3 75/4/3 71/4/3
f 77/4/3 76/4/3 75/4/3
f 78/4/3 74/4/3 76/4/3
f 78/4/3 76/4/3 77/4/3
f 81/4/3 80/4/3 79/4/3
f 82/4/3 80/4/3 81/4/3
f 83/4/3 80/4/3 82/4/3
f 84/4/3 80/4/3 83/4/3
f 85/4/3 80/4/3 84/4/3
f 86/4/4 87/4/4 88/4/4
f 88/4/4 87/4/4 89/4/4
f 89/4/4 87/4/4 90/4/4
f 90/4/4 87/4/4 91/4/4
f 91/4/4 87/4/4 92/4/4
f 93/4/4 94/4/4 97/4/4
f 95/4/4 96/4/4 98/4/4
f 93/4/4 97/4/4 99/4/4
f 97/4/4 98/4/4 99/4/4
f 98/4/4 96/4/4 100/4/4
f 99/4/4 98/4/4 100/4/4
f 101/4/4 102/4/4 104/4/4
f 104/4/4 102/4/4 105/4/4
f 103/4/4 104/4/4 106/4/4
f 106/4/4 104/4/4 107/4/4
f 107/4/4 108/4/4 109/4/4
f 109/4/4 108/4/4 110/4/4
f 111/4/4 112/4/4 113/4/4
f 113/4/4 112/4/4 114/4/4
f 117/4/5 116/4/5 115/4/5
f 118/4/5 116/4/5 117/4/5
f 122/4/5 120/4/5 119/4/5
f 123/4/5 120/4/5 122/4/5
f 125/4/5 122/4/5 121/4/5
f 126/4/5 122/4/5 125/4/5
f 127/4/5 124/4/5 123/4/5
f 128/4/5 124/4/5 127/4/5
f 129/4/5 127/4/5 126/4/5
f 130/4/5 127/4/5 129/4/5
f 133/4/5 132/4/5 131/4/5
f 134/4/5 132/4/5 133/4/5
f 137/4/5 136/4/5 135/4/5
f 138/4/5 136/4/5 137/4/5
f 139/4/6 140/4/6 141/4/6
f 141/4/6 140/4/6 142/4/6
f 143/2/6 144/2/6 148/2/6
f 144/1/6 145/1/6 149/1/6
f 148/2/6 144/2/6 149/2/6
f 145/2/6 146/2/6 150/2/6
f 149/1/6 145/1/6 150/1/6
f 146/1/6 147/1/6 151/1/6
f 150/2/6 146/2/6 151/2/6
f 149/1/6 150/1/6 154/1/6
f 148/1/6 149/1/6 154/1/6
f 151/1/6 147/1/6 154/1/6
f 150/1/6 151/1/6 154/1/6
f 154/1/6 147/1/6 155/1/6
f 148/1/6 154/1/6 156/1/6
f 156/1/6 154/1/6 157/1/6
f 157/1/6 154/1/6 158/1/6
f 154/2/6 155/2/6 159/2/6
f 158/1/6 154/1/6 159/1/6
f 159/2/6 155/2/6 160/2/6
f 152/4/6 153/4/6 161/4/6
f 161/4/6 153/4/6 162/4/6
f 156/2/6 157/2/6 163/2/6
f 157/1/6 158/1/6 164/1/6
f 163/2/6 157/2/6 164/2/6
f 158/2/6 159/2/6 165/2/6
f 164/1/6 158/1/6 165/1/6
f 159/1/6 160/1/6 166/1/6
f 165/2/6 159/2/6 166/2/6
f 166/1/6 160/1/6 167/1/6
f 168/4/6 169/4/6 171/4/6
f 171/4/6 169/4/6 172/4/6
f 170/4/6 171/4/6 174/4/6
f 174/4/6 171/4/6 175/4/6
f 172/4/6 173/4/6 176/4/6
f 176/4/6 173/4/6 177/4/6
f 175/4/6 176/4/6 178/4/6
f 178/4/6 176/4/6 179/4/6
