# MagicaVoxel @ Ephtracy

# group
o 

# material
mtllib Pencil.mtl
usemtl palette

# normals
vn -1 0 0
vn 1 0 0
vn 0 0 1
vn 0 0 -1
vn 0 -1 0
vn 0 1 0

# texcoords
vt 0.00976562 0.5
vt 0.0175781 0.5
vt 0.0488281 0.5
vt 0.974609 0.5
vt 0.994141 0.5

# verts
v -0.2 0.3 -5.96046e-08
v -0.2 0.3 -0.1
v -0.2 0.4 -5.96046e-08
v -0.2 0.4 -0.1
v -0.2 0.5 -5.96046e-08
v -0.2 0.5 -0.1
v -0.2 1.7 -5.96046e-08
v -0.2 1.7 -0.1
v -0.2 1.9 -5.96046e-08
v -0.2 1.9 -0.1
v -0.2 2.1 -5.96046e-08
v -0.2 2.1 -0.1
v -0.0999999 0.1 -5.96046e-08
v -0.0999999 0.1 -0.1
v -0.0999999 0.2 0.0999999
v -0.0999999 0.2 -5.96046e-08
v -0.0999999 0.2 -0.1
v -0.0999999 0.2 -0.2
v -0.0999999 0.3 -5.96046e-08
v -0.0999999 0.3 -0.1
v -0.0999999 0.4 0.0999999
v -0.0999999 0.4 -5.96046e-08
v -0.0999999 0.4 -0.1
v -0.0999999 0.4 -0.2
v -0.0999999 0.5 0.0999999
v -0.0999999 0.5 -5.96046e-08
v -0.0999999 0.5 -0.1
v -0.0999999 0.5 -0.2
v -0.0999999 1.7 0.0999999
v -0.0999999 1.7 -5.96046e-08
v -0.0999999 1.7 -0.1
v -0.0999999 1.7 -0.2
v -0.0999999 1.9 0.0999999
v -0.0999999 1.9 -5.96046e-08
v -0.0999999 1.9 -0.1
v -0.0999999 1.9 -0.2
v -0.0999999 2.1 0.0999999
v -0.0999999 2.1 -5.96046e-08
v -0.0999999 2.1 -0.1
v -0.0999999 2.1 -0.2
v 5.96046e-08 0 -5.96046e-08
v 5.96046e-08 0 -0.1
v 5.96046e-08 0.1 0.0999999
v 5.96046e-08 0.1 -5.96046e-08
v 5.96046e-08 0.1 -0.1
v 5.96046e-08 0.1 -0.2
v 5.96046e-08 0.2 0.0999999
v 5.96046e-08 0.2 -5.96046e-08
v 5.96046e-08 0.2 -0.1
v 5.96046e-08 0.2 -0.2
v 5.96046e-08 0.3 0.2
v 5.96046e-08 0.3 0.0999999
v 5.96046e-08 0.3 -0.2
v 5.96046e-08 0.3 -0.3
v 5.96046e-08 0.4 0.2
v 5.96046e-08 0.4 0.0999999
v 5.96046e-08 0.4 -0.2
v 5.96046e-08 0.4 -0.3
v 5.96046e-08 0.5 0.2
v 5.96046e-08 0.5 0.0999999
v 5.96046e-08 0.5 -0.2
v 5.96046e-08 0.5 -0.3
v 5.96046e-08 1.7 0.2
v 5.96046e-08 1.7 0.0999999
v 5.96046e-08 1.7 -0.2
v 5.96046e-08 1.7 -0.3
v 5.96046e-08 1.9 0.2
v 5.96046e-08 1.9 0.0999999
v 5.96046e-08 1.9 -0.2
v 5.96046e-08 1.9 -0.3
v 5.96046e-08 2.1 0.2
v 5.96046e-08 2.1 0.0999999
v 5.96046e-08 2.1 -0.2
v 5.96046e-08 2.1 -0.3
v 0.1 0 -5.96046e-08
v 0.1 0 -0.1
v 0.1 0.1 0.0999999
v 0.1 0.1 -5.96046e-08
v 0.1 0.1 -0.1
v 0.1 0.1 -0.2
v 0.1 0.2 0.0999999
v 0.1 0.2 -5.96046e-08
v 0.1 0.2 -0.1
v 0.1 0.2 -0.2
v 0.1 0.3 0.2
v 0.1 0.3 0.0999999
v 0.1 0.3 -0.2
v 0.1 0.3 -0.3
v 0.1 0.4 0.2
v 0.1 0.4 0.0999999
v 0.1 0.4 -0.2
v 0.1 0.4 -0.3
v 0.1 0.5 0.2
v 0.1 0.5 0.0999999
v 0.1 0.5 -0.2
v 0.1 0.5 -0.3
v 0.1 1.7 0.2
v 0.1 1.7 0.0999999
v 0.1 1.7 -0.2
v 0.1 1.7 -0.3
v 0.1 1.9 0.2
v 0.1 1.9 0.0999999
v 0.1 1.9 -0.2
v 0.1 1.9 -0.3
v 0.1 2.1 0.2
v 0.1 2.1 0.0999999
v 0.1 2.1 -0.2
v 0.1 2.1 -0.3
v 0.2 0.1 -5.96046e-08
v 0.2 0.1 -0.1
v 0.2 0.2 0.0999999
v 0.2 0.2 -5.96046e-08
v 0.2 0.2 -0.1
v 0.2 0.2 -0.2
v 0.2 0.3 -5.96046e-08
v 0.2 0.3 -0.1
v 0.2 0.4 0.0999999
v 0.2 0.4 -5.96046e-08
v 0.2 0.4 -0.1
v 0.2 0.4 -0.2
v 0.2 0.5 0.0999999
v 0.2 0.5 -5.96046e-08
v 0.2 0.5 -0.1
v 0.2 0.5 -0.2
v 0.2 1.7 0.0999999
v 0.2 1.7 -5.96046e-08
v 0.2 1.7 -0.1
v 0.2 1.7 -0.2
v 0.2 1.9 0.0999999
v 0.2 1.9 -5.96046e-08
v 0.2 1.9 -0.1
v 0.2 1.9 -0.2
v 0.2 2.1 0.0999999
v 0.2 2.1 -5.96046e-08
v 0.2 2.1 -0.1
v 0.2 2.1 -0.2
v 0.3 0.3 -5.96046e-08
v 0.3 0.3 -0.1
v 0.3 0.4 -5.96046e-08
v 0.3 0.4 -0.1
v 0.3 0.5 -5.96046e-08
v 0.3 0.5 -0.1
v 0.3 1.7 -5.96046e-08
v 0.3 1.7 -0.1
v 0.3 1.9 -5.96046e-08
v 0.3 1.9 -0.1
v 0.3 2.1 -5.96046e-08
v 0.3 2.1 -0.1
v 5.96046e-08 0.3 0.2
v 5.96046e-08 0.4 0.2
v 5.96046e-08 0.5 0.2
v 5.96046e-08 1.7 0.2
v 5.96046e-08 1.9 0.2
v 5.96046e-08 2.1 0.2
v 0.1 0.3 0.2
v 0.1 0.4 0.2
v 0.1 0.5 0.2
v 0.1 1.7 0.2
v 0.1 1.9 0.2
v 0.1 2.1 0.2
v -0.0999999 0.2 0.0999999
v -0.0999999 0.4 0.0999999
v -0.0999999 0.5 0.0999999
v -0.0999999 1.7 0.0999999
v -0.0999999 1.9 0.0999999
v -0.0999999 2.1 0.0999999
v 5.96046e-08 0.1 0.0999999
v 5.96046e-08 0.2 0.0999999
v 5.96046e-08 0.3 0.0999999
v 5.96046e-08 0.4 0.0999999
v 5.96046e-08 0.5 0.0999999
v 5.96046e-08 1.7 0.0999999
v 5.96046e-08 1.9 0.0999999
v 5.96046e-08 2.1 0.0999999
v 0.1 0.1 0.0999999
v 0.1 0.2 0.0999999
v 0.1 0.3 0.0999999
v 0.1 0.4 0.0999999
v 0.1 0.5 0.0999999
v 0.1 1.7 0.0999999
v 0.1 1.9 0.0999999
v 0.1 2.1 0.0999999
v 0.2 0.2 0.0999999
v 0.2 0.4 0.0999999
v 0.2 0.5 0.0999999
v 0.2 1.7 0.0999999
v 0.2 1.9 0.0999999
v 0.2 2.1 0.0999999
v -0.2 0.3 -5.96046e-08
v -0.2 0.4 -5.96046e-08
v -0.2 0.5 -5.96046e-08
v -0.2 1.7 -5.96046e-08
v -0.2 1.9 -5.96046e-08
v -0.2 2.1 -5.96046e-08
v -0.0999999 0.1 -5.96046e-08
v -0.0999999 0.2 -5.96046e-08
v -0.0999999 0.3 -5.96046e-08
v -0.0999999 0.4 -5.96046e-08
v -0.0999999 0.5 -5.96046e-08
v -0.0999999 1.7 -5.96046e-08
v -0.0999999 1.9 -5.96046e-08
v -0.0999999 2.1 -5.96046e-08
v 5.96046e-08 0 -5.96046e-08
v 5.96046e-08 0.1 -5.96046e-08
v 5.96046e-08 0.2 -5.96046e-08
v 0.1 0 -5.96046e-08
v 0.1 0.1 -5.96046e-08
v 0.1 0.2 -5.96046e-08
v 0.2 0.1 -5.96046e-08
v 0.2 0.2 -5.96046e-08
v 0.2 0.3 -5.96046e-08
v 0.2 0.4 -5.96046e-08
v 0.2 0.5 -5.96046e-08
v 0.2 1.7 -5.96046e-08
v 0.2 1.9 -5.96046e-08
v 0.2 2.1 -5.96046e-08
v 0.3 0.3 -5.96046e-08
v 0.3 0.4 -5.96046e-08
v 0.3 0.5 -5.96046e-08
v 0.3 1.7 -5.96046e-08
v 0.3 1.9 -5.96046e-08
v 0.3 2.1 -5.96046e-08
v -0.2 0.3 -0.1
v -0.2 0.4 -0.1
v -0.2 0.5 -0.1
v -0.2 1.7 -0.1
v -0.2 1.9 -0.1
v -0.2 2.1 -0.1
v -0.0999999 0.1 -0.1
v -0.0999999 0.2 -0.1
v -0.0999999 0.3 -0.1
v -0.0999999 0.4 -0.1
v -0.0999999 0.5 -0.1
v -0.0999999 1.7 -0.1
v -0.0999999 1.9 -0.1
v -0.0999999 2.1 -0.1
v 5.96046e-08 0 -0.1
v 5.96046e-08 0.1 -0.1
v 5.96046e-08 0.2 -0.1
v 0.1 0 -0.1
v 0.1 0.1 -0.1
v 0.1 0.2 -0.1
v 0.2 0.1 -0.1
v 0.2 0.2 -0.1
v 0.2 0.3 -0.1
v 0.2 0.4 -0.1
v 0.2 0.5 -0.1
v 0.2 1.7 -0.1
v 0.2 1.9 -0.1
v 0.2 2.1 -0.1
v 0.3 0.3 -0.1
v 0.3 0.4 -0.1
v 0.3 0.5 -0.1
v 0.3 1.7 -0.1
v 0.3 1.9 -0.1
v 0.3 2.1 -0.1
v -0.0999999 0.2 -0.2
v -0.0999999 0.4 -0.2
v -0.0999999 0.5 -0.2
v -0.0999999 1.7 -0.2
v -0.0999999 1.9 -0.2
v -0.0999999 2.1 -0.2
v 5.96046e-08 0.1 -0.2
v 5.96046e-08 0.2 -0.2
v 5.96046e-08 0.3 -0.2
v 5.96046e-08 0.4 -0.2
v 5.96046e-08 0.5 -0.2
v 5.96046e-08 1.7 -0.2
v 5.96046e-08 1.9 -0.2
v 5.96046e-08 2.1 -0.2
v 0.1 0.1 -0.2
v 0.1 0.2 -0.2
v 0.1 0.3 -0.2
v 0.1 0.4 -0.2
v 0.1 0.5 -0.2
v 0.1 1.7 -0.2
v 0.1 1.9 -0.2
v 0.1 2.1 -0.2
v 0.2 0.2 -0.2
v 0.2 0.4 -0.2
v 0.2 0.5 -0.2
v 0.2 1.7 -0.2
v 0.2 1.9 -0.2
v 0.2 2.1 -0.2
v 5.96046e-08 0.3 -0.3
v 5.96046e-08 0.4 -0.3
v 5.96046e-08 0.5 -0.3
v 5.96046e-08 1.7 -0.3
v 5.96046e-08 1.9 -0.3
v 5.96046e-08 2.1 -0.3
v 0.1 0.3 -0.3
v 0.1 0.4 -0.3
v 0.1 0.5 -0.3
v 0.1 1.7 -0.3
v 0.1 1.9 -0.3
v 0.1 2.1 -0.3
v 5.96046e-08 0 -5.96046e-08
v 0.1 0 -5.96046e-08
v 5.96046e-08 0 -0.1
v 0.1 0 -0.1
v 5.96046e-08 0.1 0.0999999
v 0.1 0.1 0.0999999
v -0.0999999 0.1 -5.96046e-08
v 5.96046e-08 0.1 -5.96046e-08
v 0.1 0.1 -5.96046e-08
v 0.2 0.1 -5.96046e-08
v -0.0999999 0.1 -0.1
v 5.96046e-08 0.1 -0.1
v 0.1 0.1 -0.1
v 0.2 0.1 -0.1
v 5.96046e-08 0.1 -0.2
v 0.1 0.1 -0.2
v -0.0999999 0.2 0.0999999
v 5.96046e-08 0.2 0.0999999
v 0.1 0.2 0.0999999
v 0.2 0.2 0.0999999
v -0.0999999 0.2 -5.96046e-08
v 5.96046e-08 0.2 -5.96046e-08
v 0.1 0.2 -5.96046e-08
v 0.2 0.2 -5.96046e-08
v -0.0999999 0.2 -0.1
v 5.96046e-08 0.2 -0.1
v 0.1 0.2 -0.1
v 0.2 0.2 -0.1
v -0.0999999 0.2 -0.2
v 5.96046e-08 0.2 -0.2
v 0.1 0.2 -0.2
v 0.2 0.2 -0.2
v 5.96046e-08 0.3 0.2
v 0.1 0.3 0.2
v 5.96046e-08 0.3 0.0999999
v 0.1 0.3 0.0999999
v -0.2 0.3 -5.96046e-08
v -0.0999999 0.3 -5.96046e-08
v 0.2 0.3 -5.96046e-08
v 0.3 0.3 -5.96046e-08
v -0.2 0.3 -0.1
v -0.0999999 0.3 -0.1
v 0.2 0.3 -0.1
v 0.3 0.3 -0.1
v 5.96046e-08 0.3 -0.2
v 0.1 0.3 -0.2
v 5.96046e-08 0.3 -0.3
v 0.1 0.3 -0.3
v 5.96046e-08 2.1 0.2
v 0.1 2.1 0.2
v -0.0999999 2.1 0.0999999
v 5.96046e-08 2.1 0.0999999
v 0.1 2.1 0.0999999
v 0.2 2.1 0.0999999
v -0.2 2.1 -5.96046e-08
v -0.0999999 2.1 -5.96046e-08
v 0.2 2.1 -5.96046e-08
v 0.3 2.1 -5.96046e-08
v -0.2 2.1 -0.1
v -0.0999999 2.1 -0.1
v 0.2 2.1 -0.1
v 0.3 2.1 -0.1
v -0.0999999 2.1 -0.2
v 5.96046e-08 2.1 -0.2
v 0.1 2.1 -0.2
v 0.2 2.1 -0.2
v 5.96046e-08 2.1 -0.3
v 0.1 2.1 -0.3

# faces
f 3/5/1 2/5/1 1/5/1
f 4/5/1 2/5/1 3/5/1
f 5/1/1 4/1/1 3/1/1
f 6/1/1 4/1/1 5/1/1
f 7/2/1 6/2/1 5/2/1
f 8/2/1 6/2/1 7/2/1
f 9/4/1 8/4/1 7/4/1
f 10/4/1 8/4/1 9/4/1
f 11/3/1 10/3/1 9/3/1
f 12/3/1 10/3/1 11/3/1
f 16/5/1 14/5/1 13/5/1
f 17/5/1 14/5/1 16/5/1
f 19/5/1 16/5/1 15/5/1
f 19/5/1 18/5/1 17/5/1
f 19/5/1 17/5/1 16/5/1
f 20/5/1 18/5/1 19/5/1
f 21/5/1 19/5/1 15/5/1
f 22/5/1 19/5/1 21/5/1
f 23/5/1 18/5/1 20/5/1
f 24/5/1 18/5/1 23/5/1
f 25/1/1 22/1/1 21/1/1
f 26/1/1 22/1/1 25/1/1
f 27/1/1 24/1/1 23/1/1
f 28/1/1 24/1/1 27/1/1
f 29/2/1 26/2/1 25/2/1
f 30/2/1 26/2/1 29/2/1
f 31/2/1 28/2/1 27/2/1
f 32/2/1 28/2/1 31/2/1
f 33/4/1 30/4/1 29/4/1
f 34/4/1 30/4/1 33/4/1
f 35/4/1 32/4/1 31/4/1
f 36/4/1 32/4/1 35/4/1
f 37/3/1 34/3/1 33/3/1
f 38/3/1 34/3/1 37/3/1
f 39/3/1 36/3/1 35/3/1
f 40/3/1 36/3/1 39/3/1
f 44/5/1 42/5/1 41/5/1
f 45/5/1 42/5/1 44/5/1
f 47/5/1 44/5/1 43/5/1
f 48/5/1 44/5/1 47/5/1
f 49/5/1 46/5/1 45/5/1
f 50/5/1 46/5/1 49/5/1
f 55/5/1 52/5/1 51/5/1
f 56/5/1 52/5/1 55/5/1
f 57/5/1 54/5/1 53/5/1
f 58/5/1 54/5/1 57/5/1
f 59/1/1 56/1/1 55/1/1
f 60/1/1 56/1/1 59/1/1
f 61/1/1 58/1/1 57/1/1
f 62/1/1 58/1/1 61/1/1
f 63/2/1 60/2/1 59/2/1
f 64/2/1 60/2/1 63/2/1
f 65/2/1 62/2/1 61/2/1
f 66/2/1 62/2/1 65/2/1
f 67/4/1 64/4/1 63/4/1
f 68/4/1 64/4/1 67/4/1
f 69/4/1 66/4/1 65/4/1
f 70/4/1 66/4/1 69/4/1
f 71/3/1 68/3/1 67/3/1
f 72/3/1 68/3/1 71/3/1
f 73/3/1 70/3/1 69/3/1
f 74/3/1 70/3/1 73/3/1
f 75/5/2 76/5/2 78/5/2
f 78/5/2 76/5/2 79/5/2
f 77/5/2 78/5/2 81/5/2
f 81/5/2 78/5/2 82/5/2
f 79/5/2 80/5/2 83/5/2
f 83/5/2 80/5/2 84/5/2
f 85/5/2 86/5/2 89/5/2
f 89/5/2 86/5/2 90/5/2
f 87/5/2 88/5/2 91/5/2
f 91/5/2 88/5/2 92/5/2
f 89/1/2 90/1/2 93/1/2
f 93/1/2 90/1/2 94/1/2
f 91/1/2 92/1/2 95/1/2
f 95/1/2 92/1/2 96/1/2
f 93/2/2 94/2/2 97/2/2
f 97/2/2 94/2/2 98/2/2
f 95/2/2 96/2/2 99/2/2
f 99/2/2 96/2/2 100/2/2
f 97/4/2 98/4/2 101/4/2
f 101/4/2 98/4/2 102/4/2
f 99/4/2 100/4/2 103/4/2
f 103/4/2 100/4/2 104/4/2
f 101/3/2 102/3/2 105/3/2
f 105/3/2 102/3/2 106/3/2
f 103/3/2 104/3/2 107/3/2
f 107/3/2 104/3/2 108/3/2
f 109/5/2 110/5/2 112/5/2
f 112/5/2 110/5/2 113/5/2
f 111/5/2 112/5/2 115/5/2
f 113/5/2 114/5/2 115/5/2
f 112/5/2 113/5/2 115/5/2
f 115/5/2 114/5/2 116/5/2
f 111/5/2 115/5/2 117/5/2
f 117/5/2 115/5/2 118/5/2
f 116/5/2 114/5/2 119/5/2
f 119/5/2 114/5/2 120/5/2
f 117/1/2 118/1/2 121/1/2
f 121/1/2 118/1/2 122/1/2
f 119/1/2 120/1/2 123/1/2
f 123/1/2 120/1/2 124/1/2
f 121/2/2 122/2/2 125/2/2
f 125/2/2 122/2/2 126/2/2
f 123/2/2 124/2/2 127/2/2
f 127/2/2 124/2/2 128/2/2
f 125/4/2 126/4/2 129/4/2
f 129/4/2 126/4/2 130/4/2
f 127/4/2 128/4/2 131/4/2
f 131/4/2 128/4/2 132/4/2
f 129/3/2 130/3/2 133/3/2
f 133/3/2 130/3/2 134/3/2
f 131/3/2 132/3/2 135/3/2
f 135/3/2 132/3/2 136/3/2
f 137/5/2 138/5/2 139/5/2
f 139/5/2 138/5/2 140/5/2
f 139/1/2 140/1/2 141/1/2
f 141/1/2 140/1/2 142/1/2
f 141/2/2 142/2/2 143/2/2
f 143/2/2 142/2/2 144/2/2
f 143/4/2 144/4/2 145/4/2
f 145/4/2 144/4/2 146/4/2
f 145/3/2 146/3/2 147/3/2
f 147/3/2 146/3/2 148/3/2
f 155/5/3 150/5/3 149/5/3
f 156/1/3 151/1/3 150/1/3
f 156/5/3 150/5/3 155/5/3
f 157/2/3 152/2/3 151/2/3
f 157/1/3 151/1/3 156/1/3
f 158/4/3 153/4/3 152/4/3
f 158/2/3 152/2/3 157/2/3
f 159/3/3 154/3/3 153/3/3
f 159/4/3 153/4/3 158/4/3
f 160/3/3 154/3/3 159/3/3
f 168/5/3 162/5/3 161/5/3
f 169/5/3 162/5/3 168/5/3
f 170/1/3 163/1/3 162/1/3
f 170/5/3 162/5/3 169/5/3
f 171/2/3 164/2/3 163/2/3
f 171/1/3 163/1/3 170/1/3
f 172/4/3 165/4/3 164/4/3
f 172/2/3 164/2/3 171/2/3
f 173/3/3 166/3/3 165/3/3
f 173/4/3 165/4/3 172/4/3
f 174/3/3 166/3/3 173/3/3
f 175/5/3 169/5/3 168/5/3
f 175/5/3 168/5/3 167/5/3
f 176/5/3 169/5/3 175/5/3
f 177/5/3 169/5/3 176/5/3
f 183/5/3 177/5/3 176/5/3
f 183/5/3 178/5/3 177/5/3
f 184/1/3 179/1/3 178/1/3
f 184/5/3 178/5/3 183/5/3
f 185/2/3 180/2/3 179/2/3
f 185/1/3 179/1/3 184/1/3
f 186/4/3 181/4/3 180/4/3
f 186/2/3 180/2/3 185/2/3
f 187/3/3 182/3/3 181/3/3
f 187/4/3 181/4/3 186/4/3
f 188/3/3 182/3/3 187/3/3
f 197/5/3 190/5/3 189/5/3
f 198/1/3 191/1/3 190/1/3
f 198/5/3 190/5/3 197/5/3
f 199/2/3 192/2/3 191/2/3
f 199/1/3 191/1/3 198/1/3
f 200/4/3 193/4/3 192/4/3
f 200/2/3 192/2/3 199/2/3
f 201/3/3 194/3/3 193/3/3
f 201/4/3 193/4/3 200/4/3
f 202/3/3 194/3/3 201/3/3
f 204/5/3 196/5/3 195/5/3
f 205/5/3 196/5/3 204/5/3
f 206/5/3 204/5/3 203/5/3
f 207/5/3 204/5/3 206/5/3
f 209/5/3 208/5/3 207/5/3
f 210/5/3 208/5/3 209/5/3
f 217/5/3 212/5/3 211/5/3
f 218/1/3 213/1/3 212/1/3
f 218/5/3 212/5/3 217/5/3
f 219/2/3 214/2/3 213/2/3
f 219/1/3 213/1/3 218/1/3
f 220/4/3 215/4/3 214/4/3
f 220/2/3 214/2/3 219/2/3
f 221/3/3 216/3/3 215/3/3
f 221/4/3 215/4/3 220/4/3
f 222/3/3 216/3/3 221/3/3
f 223/5/4 224/5/4 231/5/4
f 224/1/4 225/1/4 232/1/4
f 231/5/4 224/5/4 232/5/4
f 225/2/4 226/2/4 233/2/4
f 232/1/4 225/1/4 233/1/4
f 226/4/4 227/4/4 234/4/4
f 233/2/4 226/2/4 234/2/4
f 227/3/4 228/3/4 235/3/4
f 234/4/4 227/4/4 235/4/4
f 235/3/4 228/3/4 236/3/4
f 229/5/4 230/5/4 238/5/4
f 238/5/4 230/5/4 239/5/4
f 237/5/4 238/5/4 240/5/4
f 240/5/4 238/5/4 241/5/4
f 241/5/4 242/5/4 243/5/4
f 243/5/4 242/5/4 244/5/4
f 245/5/4 246/5/4 251/5/4
f 246/1/4 247/1/4 252/1/4
f 251/5/4 246/5/4 252/5/4
f 247/2/4 248/2/4 253/2/4
f 252/1/4 247/1/4 253/1/4
f 248/4/4 249/4/4 254/4/4
f 253/2/4 248/2/4 254/2/4
f 249/3/4 250/3/4 255/3/4
f 254/4/4 249/4/4 255/4/4
f 255/3/4 250/3/4 256/3/4
f 257/5/4 258/5/4 264/5/4
f 264/5/4 258/5/4 265/5/4
f 258/1/4 259/1/4 266/1/4
f 265/5/4 258/5/4 266/5/4
f 259/2/4 260/2/4 267/2/4
f 266/1/4 259/1/4 267/1/4
f 260/4/4 261/4/4 268/4/4
f 267/2/4 260/2/4 268/2/4
f 261/3/4 262/3/4 269/3/4
f 268/4/4 261/4/4 269/4/4
f 269/3/4 262/3/4 270/3/4
f 264/5/4 265/5/4 271/5/4
f 263/5/4 264/5/4 271/5/4
f 271/5/4 265/5/4 272/5/4
f 272/5/4 265/5/4 273/5/4
f 272/5/4 273/5/4 279/5/4
f 273/5/4 274/5/4 279/5/4
f 274/1/4 275/1/4 280/1/4
f 279/5/4 274/5/4 280/5/4
f 275/2/4 276/2/4 281/2/4
f 280/1/4 275/1/4 281/1/4
f 276/4/4 277/4/4 282/4/4
f 281/2/4 276/2/4 282/2/4
f 277/3/4 278/3/4 283/3/4
f 282/4/4 277/4/4 283/4/4
f 283/3/4 278/3/4 284/3/4
f 285/5/4 286/5/4 291/5/4
f 286/1/4 287/1/4 292/1/4
f 291/5/4 286/5/4 292/5/4
f 287/2/4 288/2/4 293/2/4
f 292/1/4 287/1/4 293/1/4
f 288/4/4 289/4/4 294/4/4
f 293/2/4 288/2/4 294/2/4
f 289/3/4 290/3/4 295/3/4
f 294/4/4 289/4/4 295/4/4
f 295/3/4 290/3/4 296/3/4
f 299/5/5 298/5/5 297/5/5
f 300/5/5 298/5/5 299/5/5
f 304/5/5 302/5/5 301/5/5
f 305/5/5 302/5/5 304/5/5
f 307/5/5 304/5/5 303/5/5
f 308/5/5 304/5/5 307/5/5
f 309/5/5 306/5/5 305/5/5
f 310/5/5 306/5/5 309/5/5
f 311/5/5 309/5/5 308/5/5
f 312/5/5 309/5/5 311/5/5
f 317/5/5 314/5/5 313/5/5
f 318/5/5 314/5/5 317/5/5
f 319/5/5 316/5/5 315/5/5
f 320/5/5 316/5/5 319/5/5
f 325/5/5 322/5/5 321/5/5
f 326/5/5 322/5/5 325/5/5
f 327/5/5 324/5/5 323/5/5
f 328/5/5 324/5/5 327/5/5
f 331/5/5 330/5/5 329/5/5
f 332/5/5 330/5/5 331/5/5
f 337/5/5 334/5/5 333/5/5
f 338/5/5 334/5/5 337/5/5
f 339/5/5 336/5/5 335/5/5
f 340/5/5 336/5/5 339/5/5
f 343/5/5 342/5/5 341/5/5
f 344/5/5 342/5/5 343/5/5
f 345/3/6 346/3/6 348/3/6
f 348/3/6 346/3/6 349/3/6
f 347/3/6 348/3/6 352/3/6
f 349/3/6 350/3/6 352/3/6
f 348/3/6 349/3/6 352/3/6
f 352/3/6 350/3/6 353/3/6
f 351/3/6 352/3/6 355/3/6
f 353/3/6 354/3/6 355/3/6
f 352/3/6 353/3/6 355/3/6
f 355/3/6 354/3/6 356/3/6
f 356/3/6 354/3/6 357/3/6
f 357/3/6 354/3/6 358/3/6
f 356/3/6 357/3/6 359/3/6
f 359/3/6 357/3/6 360/3/6
f 360/3/6 357/3/6 361/3/6
f 361/3/6 357/3/6 362/3/6
f 360/3/6 361/3/6 363/3/6
f 363/3/6 361/3/6 364/3/6
