# MagicaVoxel @ Ephtracy

# group
o 

# material
mtllib RedStapler-1.mtl
usemtl palette

# normals
vn -1 0 0
vn 1 0 0
vn 0 0 1
vn 0 0 -1
vn 0 -1 0
vn 0 1 0

# texcoords
vt 0.146484 0.5
vt 0.919922 0.5
vt 0.962891 0.5
vt 0.994141 0.5

# verts
v -0.2 0 0.4
v -0.2 0 0.3
v -0.2 0.1 0.3
v -0.2 0.1 -0.7
v -0.2 0.2 0.4
v -0.2 0.2 0.3
v -0.2 0.3 0.3
v -0.2 0.3 -0.7
v -0.0999999 0 0.3
v -0.0999999 0 -0.4
v -0.0999999 0 -0.5
v -0.0999999 0 -0.6
v -0.0999999 0.1 0.3
v -0.0999999 0.1 -0.4
v -0.0999999 0.1 -0.5
v -0.0999999 0.1 -0.6
v 0.1 0 0.3
v 0.1 0 -0.4
v 0.1 0 -0.5
v 0.1 0 -0.6
v 0.1 0.1 0.3
v 0.1 0.1 -0.4
v 0.1 0.1 -0.5
v 0.1 0.1 -0.6
v 0.2 0 0.4
v 0.2 0 0.3
v 0.2 0.1 0.3
v 0.2 0.1 -0.7
v 0.2 0.2 0.4
v 0.2 0.2 0.3
v 0.2 0.3 0.3
v 0.2 0.3 -0.7
v -0.2 0 0.4
v -0.2 0.2 0.4
v 0.2 0 0.4
v 0.2 0.2 0.4
v -0.2 0.2 0.3
v -0.2 0.3 0.3
v 0.2 0.2 0.3
v 0.2 0.3 0.3
v -0.2 0 0.3
v -0.2 0.1 0.3
v -0.0999999 0 0.3
v -0.0999999 0.1 0.3
v 0.1 0 0.3
v 0.1 0.1 0.3
v 0.2 0 0.3
v 0.2 0.1 0.3
v -0.0999999 0 -0.6
v -0.0999999 0.1 -0.6
v 0.1 0 -0.6
v 0.1 0.1 -0.6
v -0.2 0.1 -0.7
v -0.2 0.3 -0.7
v 0.2 0.1 -0.7
v 0.2 0.3 -0.7
v -0.2 0 0.4
v 0.2 0 0.4
v -0.2 0 0.3
v -0.0999999 0 0.3
v 0.1 0 0.3
v 0.2 0 0.3
v -0.0999999 0 -0.4
v 0.1 0 -0.4
v -0.0999999 0 -0.5
v 0.1 0 -0.5
v -0.0999999 0 -0.6
v 0.1 0 -0.6
v -0.2 0.1 0.3
v -0.0999999 0.1 0.3
v 0.1 0.1 0.3
v 0.2 0.1 0.3
v -0.0999999 0.1 -0.4
v 0.1 0.1 -0.4
v -0.0999999 0.1 -0.5
v 0.1 0.1 -0.5
v -0.0999999 0.1 -0.6
v 0.1 0.1 -0.6
v -0.2 0.1 -0.7
v 0.2 0.1 -0.7
v -0.2 0.2 0.4
v 0.2 0.2 0.4
v -0.2 0.2 0.3
v 0.2 0.2 0.3
v -0.2 0.3 0.3
v 0.2 0.3 0.3
v -0.2 0.3 -0.7
v 0.2 0.3 -0.7

# faces
f 3/1/1 2/1/1 1/1/1
f 5/1/1 3/1/1 1/1/1
f 5/1/1 4/1/1 3/1/1
f 6/1/1 4/1/1 5/1/1
f 7/1/1 4/1/1 6/1/1
f 8/1/1 4/1/1 7/1/1
f 13/3/1 10/3/1 9/3/1
f 14/2/1 11/2/1 10/2/1
f 14/3/1 10/3/1 13/3/1
f 15/3/1 12/3/1 11/3/1
f 15/2/1 11/2/1 14/2/1
f 16/3/1 12/3/1 15/3/1
f 17/3/2 18/3/2 21/3/2
f 18/2/2 19/2/2 22/2/2
f 21/3/2 18/3/2 22/3/2
f 19/3/2 20/3/2 23/3/2
f 22/2/2 19/2/2 23/2/2
f 23/3/2 20/3/2 24/3/2
f 25/1/2 26/1/2 27/1/2
f 25/1/2 27/1/2 29/1/2
f 27/1/2 28/1/2 29/1/2
f 29/1/2 28/1/2 30/1/2
f 30/1/2 28/1/2 31/1/2
f 31/1/2 28/1/2 32/1/2
f 35/1/3 34/1/3 33/1/3
f 36/1/3 34/1/3 35/1/3
f 39/1/3 38/1/3 37/1/3
f 40/1/3 38/1/3 39/1/3
f 41/1/4 42/1/4 43/1/4
f 43/1/4 42/1/4 44/1/4
f 45/1/4 46/1/4 47/1/4
f 47/1/4 46/1/4 48/1/4
f 49/3/4 50/3/4 51/3/4
f 51/3/4 50/3/4 52/3/4
f 53/1/4 54/1/4 55/1/4
f 55/1/4 54/1/4 56/1/4
f 59/1/5 58/1/5 57/1/5
f 60/1/5 58/1/5 59/1/5
f 61/1/5 58/1/5 60/1/5
f 62/1/5 58/1/5 61/1/5
f 63/3/5 61/3/5 60/3/5
f 64/3/5 61/3/5 63/3/5
f 65/2/5 64/2/5 63/2/5
f 66/2/5 64/2/5 65/2/5
f 67/3/5 66/3/5 65/3/5
f 68/3/5 66/3/5 67/3/5
f 73/1/5 70/1/5 69/1/5
f 74/1/5 72/1/5 71/1/5
f 75/1/5 73/1/5 69/1/5
f 76/1/5 72/1/5 74/1/5
f 77/1/5 75/1/5 69/1/5
f 78/1/5 72/1/5 76/1/5
f 79/1/5 77/1/5 69/1/5
f 79/1/5 78/1/5 77/1/5
f 80/1/5 72/1/5 78/1/5
f 80/1/5 78/1/5 79/1/5
f 81/1/6 82/1/6 83/1/6
f 83/1/6 82/1/6 84/1/6
f 85/1/6 86/1/6 87/1/6
f 87/1/6 86/1/6 88/1/6
