# MagicaVoxel @ Ephtracy

# group
o 

# material
mtllib PottedPlant-0.mtl
usemtl palette

# normals
vn -1 0 0
vn 1 0 0
vn 0 0 1
vn 0 0 -1
vn 0 -1 0
vn 0 1 0

# texcoords
vt 0.0292969 0.5
vt 0.0644531 0.5
vt 0.919922 0.5
vt 0.923828 0.5

# verts
v -17.2 0.4 -9
v -17.2 0.4 -9.3
v -17.2 0.4 -9.4
v -17.2 0.5 -9
v -17.2 0.5 -9.3
v -17.2 0.5 -9.4
v -17.1 0.4 -9.4
v -17.1 0.4 -9.5
v -17.1 0.5 -9.4
v -17.1 0.5 -9.5
v -17 0.4 -9.1
v -17 0.4 -9.3
v -17 0.4 -9.5
v -17 0.4 -9.9
v -17 0.4 -10.5
v -17 0.5 -9.1
v -17 0.5 -9.3
v -17 0.5 -9.5
v -17 0.5 -9.9
v -17 0.5 -10.5
v -16.8 0.4 -9.1
v -16.8 0.4 -9.3
v -16.8 0.4 -9.5
v -16.8 0.5 -9.1
v -16.8 0.5 -9.3
v -16.8 0.5 -9.5
v -16.6 0.4 -9.2
v -16.6 0.4 -9.3
v -16.6 0.5 -9.2
v -16.6 0.5 -9.3
v -17.1 0.4 -9.1
v -17.1 0.4 -9.3
v -17.1 0.5 -9.1
v -17.1 0.5 -9.3
v -16.9 0.4 -9
v -16.9 0.4 -9.1
v -16.9 0.4 -9.5
v -16.9 0.4 -10.3
v -16.9 0.4 -10.5
v -16.9 0.5 -9
v -16.9 0.5 -9.1
v -16.9 0.5 -9.5
v -16.9 0.5 -10.3
v -16.9 0.5 -10.5
v -16.8 0.4 -9.7
v -16.8 0.4 -9.8
v -16.8 0.4 -10.3
v -16.8 0.5 -9.7
v -16.8 0.5 -9.8
v -16.8 0.5 -10.3
v -16.7 0.4 -9.2
v -16.7 0.4 -9.3
v -16.7 0.4 -9.6
v -16.7 0.4 -9.7
v -16.7 0.5 -9.2
v -16.7 0.5 -9.3
v -16.7 0.5 -9.6
v -16.7 0.5 -9.7
v -16.6 0.4 -9.4
v -16.6 0.4 -9.6
v -16.6 0.5 -9.4
v -16.6 0.5 -9.6
v -16.5 0.4 -9.1
v -16.5 0.4 -9.2
v -16.5 0.4 -9.4
v -16.5 0.5 -9.1
v -16.5 0.5 -9.2
v -16.5 0.5 -9.4
v -17.2 0.4 -9
v -17.2 0.5 -9
v -16.9 0.4 -9
v -16.9 0.5 -9
v -16.8 0.4 -9.1
v -16.8 0.5 -9.1
v -16.5 0.4 -9.1
v -16.5 0.5 -9.1
v -17.1 0.4 -9.3
v -17.1 0.5 -9.3
v -17 0.4 -9.3
v -17 0.5 -9.3
v -16.7 0.4 -9.3
v -16.7 0.5 -9.3
v -16.6 0.4 -9.3
v -16.6 0.5 -9.3
v -16.9 0.4 -9.5
v -16.9 0.5 -9.5
v -16.8 0.4 -9.5
v -16.8 0.5 -9.5
v -17.1 0.4 -9.1
v -17.1 0.5 -9.1
v -17 0.4 -9.1
v -17 0.5 -9.1
v -16.7 0.4 -9.2
v -16.7 0.5 -9.2
v -16.6 0.4 -9.2
v -16.6 0.5 -9.2
v -17.2 0.4 -9.4
v -17.2 0.5 -9.4
v -17.1 0.4 -9.4
v -17.1 0.5 -9.4
v -16.6 0.4 -9.4
v -16.6 0.5 -9.4
v -16.5 0.4 -9.4
v -16.5 0.5 -9.4
v -17.1 0.4 -9.5
v -17.1 0.5 -9.5
v -17 0.4 -9.5
v -17 0.5 -9.5
v -16.7 0.4 -9.6
v -16.7 0.5 -9.6
v -16.6 0.4 -9.6
v -16.6 0.5 -9.6
v -16.8 0.4 -9.7
v -16.8 0.5 -9.7
v -16.7 0.4 -9.7
v -16.7 0.5 -9.7
v -16.9 0.4 -10.3
v -16.9 0.5 -10.3
v -16.8 0.4 -10.3
v -16.8 0.5 -10.3
v -17 0.4 -10.5
v -17 0.5 -10.5
v -16.9 0.4 -10.5
v -16.9 0.5 -10.5
v -17.2 0.4 -9
v -16.9 0.4 -9
v -17.1 0.4 -9.1
v -17 0.4 -9.1
v -16.9 0.4 -9.1
v -16.8 0.4 -9.1
v -16.5 0.4 -9.1
v -16.7 0.4 -9.2
v -16.6 0.4 -9.2
v -16.5 0.4 -9.2
v -17.2 0.4 -9.3
v -17.1 0.4 -9.3
v -17 0.4 -9.3
v -16.8 0.4 -9.3
v -16.7 0.4 -9.3
v -16.6 0.4 -9.3
v -17.2 0.4 -9.4
v -17.1 0.4 -9.4
v -16.6 0.4 -9.4
v -16.5 0.4 -9.4
v -17.1 0.4 -9.5
v -17 0.4 -9.5
v -16.9 0.4 -9.5
v -16.8 0.4 -9.5
v -16.7 0.4 -9.6
v -16.6 0.4 -9.6
v -16.8 0.4 -9.7
v -16.7 0.4 -9.7
v -16.9 0.4 -9.8
v -16.8 0.4 -9.8
v -17 0.4 -9.9
v -16.9 0.4 -9.9
v -16.9 0.4 -10.3
v -16.8 0.4 -10.3
v -17 0.4 -10.5
v -16.9 0.4 -10.5
v -17.2 0.5 -9
v -16.9 0.5 -9
v -17.1 0.5 -9.1
v -17 0.5 -9.1
v -16.9 0.5 -9.1
v -16.8 0.5 -9.1
v -16.5 0.5 -9.1
v -16.7 0.5 -9.2
v -16.6 0.5 -9.2
v -16.5 0.5 -9.2
v -17.2 0.5 -9.3
v -17.1 0.5 -9.3
v -17 0.5 -9.3
v -16.8 0.5 -9.3
v -16.7 0.5 -9.3
v -16.6 0.5 -9.3
v -17.2 0.5 -9.4
v -17.1 0.5 -9.4
v -16.6 0.5 -9.4
v -16.5 0.5 -9.4
v -17.1 0.5 -9.5
v -17 0.5 -9.5
v -16.9 0.5 -9.5
v -16.8 0.5 -9.5
v -16.7 0.5 -9.6
v -16.6 0.5 -9.6
v -16.8 0.5 -9.7
v -16.7 0.5 -9.7
v -16.9 0.5 -9.8
v -16.8 0.5 -9.8
v -17 0.5 -9.9
v -16.9 0.5 -9.9
v -16.9 0.5 -10.3
v -16.8 0.5 -10.3
v -17 0.5 -10.5
v -16.9 0.5 -10.5

# faces
f 4/1/1 2/1/1 1/1/1
f 5/2/1 3/2/1 2/2/1
f 5/1/1 2/1/1 4/1/1
f 6/2/1 3/2/1 5/2/1
f 9/2/1 8/2/1 7/2/1
f 10/2/1 8/2/1 9/2/1
f 16/2/1 12/2/1 11/2/1
f 17/2/1 12/2/1 16/2/1
f 18/2/1 14/2/1 13/2/1
f 19/3/1 15/3/1 14/3/1
f 19/2/1 14/2/1 18/2/1
f 20/3/1 15/3/1 19/3/1
f 24/1/1 22/1/1 21/1/1
f 25/2/1 23/2/1 22/2/1
f 25/1/1 22/1/1 24/1/1
f 26/2/1 23/2/1 25/2/1
f 29/2/1 28/2/1 27/2/1
f 30/2/1 28/2/1 29/2/1
f 31/1/2 32/1/2 33/1/2
f 33/1/2 32/1/2 34/1/2
f 35/1/2 36/1/2 40/1/2
f 36/2/2 37/2/2 41/2/2
f 40/1/2 36/1/2 41/1/2
f 41/2/2 37/2/2 42/2/2
f 38/3/2 39/3/2 43/3/2
f 43/3/2 39/3/2 44/3/2
f 45/2/2 46/2/2 48/2/2
f 46/4/2 47/4/2 49/4/2
f 48/2/2 46/2/2 49/2/2
f 49/4/2 47/4/2 50/4/2
f 51/1/2 52/1/2 55/1/2
f 55/1/2 52/1/2 56/1/2
f 53/2/2 54/2/2 57/2/2
f 57/2/2 54/2/2 58/2/2
f 59/2/2 60/2/2 61/2/2
f 61/2/2 60/2/2 62/2/2
f 63/1/2 64/1/2 66/1/2
f 64/2/2 65/2/2 67/2/2
f 66/1/2 64/1/2 67/1/2
f 67/2/2 65/2/2 68/2/2
f 71/1/3 70/1/3 69/1/3
f 72/1/3 70/1/3 71/1/3
f 75/1/3 74/1/3 73/1/3
f 76/1/3 74/1/3 75/1/3
f 79/2/3 78/2/3 77/2/3
f 80/2/3 78/2/3 79/2/3
f 83/2/3 82/2/3 81/2/3
f 84/2/3 82/2/3 83/2/3
f 87/2/3 86/2/3 85/2/3
f 88/2/3 86/2/3 87/2/3
f 89/1/4 90/1/4 91/1/4
f 91/1/4 90/1/4 92/1/4
f 93/1/4 94/1/4 95/1/4
f 95/1/4 94/1/4 96/1/4
f 97/2/4 98/2/4 99/2/4
f 99/2/4 98/2/4 100/2/4
f 101/2/4 102/2/4 103/2/4
f 103/2/4 102/2/4 104/2/4
f 105/2/4 106/2/4 107/2/4
f 107/2/4 106/2/4 108/2/4
f 109/2/4 110/2/4 111/2/4
f 111/2/4 110/2/4 112/2/4
f 113/2/4 114/2/4 115/2/4
f 115/2/4 114/2/4 116/2/4
f 117/4/4 118/4/4 119/4/4
f 119/4/4 118/4/4 120/4/4
f 121/3/4 122/3/4 123/3/4
f 123/3/4 122/3/4 124/3/4
f 127/1/5 126/1/5 125/1/5
f 128/1/5 126/1/5 127/1/5
f 129/1/5 126/1/5 128/1/5
f 132/1/5 131/1/5 130/1/5
f 133/1/5 131/1/5 132/1/5
f 134/1/5 131/1/5 133/1/5
f 135/1/5 127/1/5 125/1/5
f 136/1/5 127/1/5 135/1/5
f 137/2/5 129/2/5 128/2/5
f 138/1/5 132/1/5 130/1/5
f 139/1/5 132/1/5 138/1/5
f 140/2/5 134/2/5 133/2/5
f 141/2/5 136/2/5 135/2/5
f 141/2/5 137/2/5 136/2/5
f 142/2/5 137/2/5 141/2/5
f 143/2/5 140/2/5 139/2/5
f 143/2/5 134/2/5 140/2/5
f 143/2/5 139/2/5 138/2/5
f 144/2/5 134/2/5 143/2/5
f 145/2/5 137/2/5 142/2/5
f 146/2/5 129/2/5 137/2/5
f 146/2/5 137/2/5 145/2/5
f 147/2/5 129/2/5 146/2/5
f 148/2/5 143/2/5 138/2/5
f 149/2/5 147/2/5 146/2/5
f 149/2/5 148/2/5 147/2/5
f 149/2/5 143/2/5 148/2/5
f 150/2/5 143/2/5 149/2/5
f 151/2/5 149/2/5 146/2/5
f 152/2/5 149/2/5 151/2/5
f 153/2/5 151/2/5 146/2/5
f 154/2/5 151/2/5 153/2/5
f 155/2/5 153/2/5 146/2/5
f 156/4/5 154/4/5 153/4/5
f 156/2/5 153/2/5 155/2/5
f 157/3/5 156/3/5 155/3/5
f 157/4/5 154/4/5 156/4/5
f 158/4/5 154/4/5 157/4/5
f 159/3/5 157/3/5 155/3/5
f 160/3/5 157/3/5 159/3/5
f 161/1/6 162/1/6 163/1/6
f 163/1/6 162/1/6 164/1/6
f 164/1/6 162/1/6 165/1/6
f 166/1/6 167/1/6 168/1/6
f 168/1/6 167/1/6 169/1/6
f 169/1/6 167/1/6 170/1/6
f 161/1/6 163/1/6 171/1/6
f 171/1/6 163/1/6 172/1/6
f 164/2/6 165/2/6 173/2/6
f 166/1/6 168/1/6 174/1/6
f 174/1/6 168/1/6 175/1/6
f 169/2/6 170/2/6 176/2/6
f 171/2/6 172/2/6 177/2/6
f 172/2/6 173/2/6 177/2/6
f 177/2/6 173/2/6 178/2/6
f 175/2/6 176/2/6 179/2/6
f 176/2/6 170/2/6 179/2/6
f 174/2/6 175/2/6 179/2/6
f 179/2/6 170/2/6 180/2/6
f 178/2/6 173/2/6 181/2/6
f 173/2/6 165/2/6 182/2/6
f 181/2/6 173/2/6 182/2/6
f 182/2/6 165/2/6 183/2/6
f 174/2/6 179/2/6 184/2/6
f 182/2/6 183/2/6 185/2/6
f 183/2/6 184/2/6 185/2/6
f 184/2/6 179/2/6 185/2/6
f 185/2/6 179/2/6 186/2/6
f 182/2/6 185/2/6 187/2/6
f 187/2/6 185/2/6 188/2/6
f 182/2/6 187/2/6 189/2/6
f 189/2/6 187/2/6 190/2/6
f 182/2/6 189/2/6 191/2/6
f 189/4/6 190/4/6 192/4/6
f 191/2/6 189/2/6 192/2/6
f 191/3/6 192/3/6 193/3/6
f 192/4/6 190/4/6 193/4/6
f 193/4/6 190/4/6 194/4/6
f 191/3/6 193/3/6 195/3/6
f 195/3/6 193/3/6 196/3/6
