# MagicaVoxel @ Ephtracy

# group
o 

# material
mtllib TV.mtl
usemtl palette

# normals
vn -1 0 0
vn 1 0 0
vn 0 0 1
vn 0 0 -1
vn 0 -1 0
vn 0 1 0

# texcoords
vt 0.759766 0.5
vt 0.923828 0.5
vt 0.927734 0.5
vt 0.966797 0.5
vt 0.990234 0.5

# verts
v -2 3.8 0.3
v -2 3.8 0.2
v -2 3.8 0.0999999
v -2 6.5 0.3
v -2 6.5 0.2
v -2 6.5 0.0999999
v -1.8 4 0.4
v -1.8 4 0.3
v -1.8 6.3 0.4
v -1.8 6.3 0.3
v -1.7 4.1 0.5
v -1.7 4.1 0.4
v -1.7 6.2 0.5
v -1.7 6.2 0.4
v 2 4.1 0.5
v 2 4.1 0.4
v 2 6.2 0.5
v 2 6.2 0.4
v 2.1 4 0.4
v 2.1 4 0.3
v 2.1 6.3 0.4
v 2.1 6.3 0.3
v 2.3 3.8 0.3
v 2.3 3.8 0.2
v 2.3 3.8 0.0999999
v 2.3 6.5 0.3
v 2.3 6.5 0.2
v 2.3 6.5 0.0999999
v -1.7 4.1 0.5
v -1.7 6.2 0.5
v 2 4.1 0.5
v 2 6.2 0.5
v -1.8 4 0.4
v -1.8 6.3 0.4
v -1.7 4.1 0.4
v -1.7 6.2 0.4
v 2 4.1 0.4
v 2 6.2 0.4
v 2.1 4 0.4
v 2.1 6.3 0.4
v -2 3.8 0.3
v -2 6.5 0.3
v -1.8 4 0.3
v -1.8 6.3 0.3
v 2.1 4 0.3
v 2.1 6.3 0.3
v 2.3 3.8 0.3
v 2.3 6.5 0.3
v -2 3.8 0.0999999
v -2 6.5 0.0999999
v -1.9 3.9 0.0999999
v -1.9 6.4 0.0999999
v -1.7 6.1 0.0999999
v -1.7 6.4 0.0999999
v -1.6 5.8 0.0999999
v -1.6 6.1 0.0999999
v -1.5 5.6 0.0999999
v -1.5 5.8 0.0999999
v -1.4 5.5 0.0999999
v -1.4 5.6 0.0999999
v -1.4 6.2 0.0999999
v -1.4 6.4 0.0999999
v -1.3 5.4 0.0999999
v -1.3 5.5 0.0999999
v -1.3 6 0.0999999
v -1.3 6.2 0.0999999
v -1.2 5.2 0.0999999
v -1.2 5.4 0.0999999
v -1.2 5.9 0.0999999
v -1.2 6 0.0999999
v -1.1 5.1 0.0999999
v -1.1 5.2 0.0999999
v -1.1 5.7 0.0999999
v -1.1 5.9 0.0999999
v -1 5 0.0999999
v -1 5.1 0.0999999
v -1 5.6 0.0999999
v -1 5.7 0.0999999
v -0.9 4.8 0.0999999
v -0.9 5 0.0999999
v -0.9 5.4 0.0999999
v -0.9 5.6 0.0999999
v -0.8 4.6 0.0999999
v -0.8 4.8 0.0999999
v -0.8 5.3 0.0999999
v -0.8 5.4 0.0999999
v -0.7 4.5 0.0999999
v -0.7 4.6 0.0999999
v -0.7 5.2 0.0999999
v -0.7 5.3 0.0999999
v -0.6 4.4 0.0999999
v -0.6 4.5 0.0999999
v -0.6 5 0.0999999
v -0.6 5.2 0.0999999
v -0.5 4.3 0.0999999
v -0.5 4.4 0.0999999
v -0.5 4.9 0.0999999
v -0.5 5 0.0999999
v -0.4 4.2 0.0999999
v -0.4 4.3 0.0999999
v -0.4 4.7 0.0999999
v -0.4 4.9 0.0999999
v -0.3 4.1 0.0999999
v -0.3 4.2 0.0999999
v -0.3 4.6 0.0999999
v -0.3 4.7 0.0999999
v -0.2 3.9 0.0999999
v -0.2 4.1 0.0999999
v -0.2 4.5 0.0999999
v -0.2 4.6 0.0999999
v -0.0999999 4.4 0.0999999
v -0.0999999 4.5 0.0999999
v 2.38419e-07 4.3 0.0999999
v 2.38419e-07 4.4 0.0999999
v 2.38419e-07 6.2 0.0999999
v 2.38419e-07 6.4 0.0999999
v 0.1 4.2 0.0999999
v 0.1 4.3 0.0999999
v 0.1 6 0.0999999
v 0.1 6.2 0.0999999
v 0.2 4.1 0.0999999
v 0.2 4.2 0.0999999
v 0.2 5.9 0.0999999
v 0.2 6 0.0999999
v 0.3 3.9 0.0999999
v 0.3 4.1 0.0999999
v 0.3 5.7 0.0999999
v 0.3 5.9 0.0999999
v 0.4 5.5 0.0999999
v 0.4 5.7 0.0999999
v 0.4 6.3 0.0999999
v 0.4 6.4 0.0999999
v 0.5 5.3 0.0999999
v 0.5 5.5 0.0999999
v 0.5 6.1 0.0999999
v 0.5 6.3 0.0999999
v 0.6 5.1 0.0999999
v 0.6 5.3 0.0999999
v 0.6 5.9 0.0999999
v 0.6 6.1 0.0999999
v 0.7 4.9 0.0999999
v 0.7 5.1 0.0999999
v 0.7 5.8 0.0999999
v 0.7 5.9 0.0999999
v 0.8 4.8 0.0999999
v 0.8 4.9 0.0999999
v 0.8 5.6 0.0999999
v 0.8 5.8 0.0999999
v 0.9 4.7 0.0999999
v 0.9 4.8 0.0999999
v 0.9 5.5 0.0999999
v 0.9 5.6 0.0999999
v 1 4.5 0.0999999
v 1 4.7 0.0999999
v 1 5.3 0.0999999
v 1 5.5 0.0999999
v 1.1 4.4 0.0999999
v 1.1 4.5 0.0999999
v 1.1 5.1 0.0999999
v 1.1 5.3 0.0999999
v 1.2 4.2 0.0999999
v 1.2 4.4 0.0999999
v 1.2 5 0.0999999
v 1.2 5.1 0.0999999
v 1.3 4 0.0999999
v 1.3 4.2 0.0999999
v 1.3 4.8 0.0999999
v 1.3 5 0.0999999
v 1.4 3.9 0.0999999
v 1.4 4 0.0999999
v 1.4 4.7 0.0999999
v 1.4 4.8 0.0999999
v 1.5 4.5 0.0999999
v 1.5 4.7 0.0999999
v 1.6 4.2 0.0999999
v 1.6 4.5 0.0999999
v 1.7 4 0.0999999
v 1.7 4.2 0.0999999
v 1.8 3.9 0.0999999
v 1.8 4 0.0999999
v 2.2 3.9 0.0999999
v 2.2 6.4 0.0999999
v 2.3 3.8 0.0999999
v 2.3 6.5 0.0999999
v -2 3.8 0.3
v 2.3 3.8 0.3
v -2 3.8 0.2
v 2.3 3.8 0.2
v -2 3.8 0.0999999
v 2.3 3.8 0.0999999
v -1.8 4 0.4
v 2.1 4 0.4
v -1.8 4 0.3
v 2.1 4 0.3
v -1.7 4.1 0.5
v 2 4.1 0.5
v -1.7 4.1 0.4
v 2 4.1 0.4
v -1.7 6.2 0.5
v 2 6.2 0.5
v -1.7 6.2 0.4
v 2 6.2 0.4
v -1.8 6.3 0.4
v 2.1 6.3 0.4
v -1.8 6.3 0.3
v 2.1 6.3 0.3
v -2 6.5 0.3
v 2.3 6.5 0.3
v -2 6.5 0.2
v 2.3 6.5 0.2
v -2 6.5 0.0999999
v 2.3 6.5 0.0999999

# faces
f 4/5/1 2/5/1 1/5/1
f 5/3/1 3/3/1 2/3/1
f 5/5/1 2/5/1 4/5/1
f 6/3/1 3/3/1 5/3/1
f 9/5/1 8/5/1 7/5/1
f 10/5/1 8/5/1 9/5/1
f 13/5/1 12/5/1 11/5/1
f 14/5/1 12/5/1 13/5/1
f 15/5/2 16/5/2 17/5/2
f 17/5/2 16/5/2 18/5/2
f 19/5/2 20/5/2 21/5/2
f 21/5/2 20/5/2 22/5/2
f 23/5/2 24/5/2 26/5/2
f 24/3/2 25/3/2 27/3/2
f 26/5/2 24/5/2 27/5/2
f 27/3/2 25/3/2 28/3/2
f 31/5/3 30/5/3 29/5/3
f 32/5/3 30/5/3 31/5/3
f 35/5/3 34/5/3 33/5/3
f 36/5/3 34/5/3 35/5/3
f 37/5/3 35/5/3 33/5/3
f 38/5/3 34/5/3 36/5/3
f 39/5/3 37/5/3 33/5/3
f 39/5/3 38/5/3 37/5/3
f 40/5/3 34/5/3 38/5/3
f 40/5/3 38/5/3 39/5/3
f 43/5/3 42/5/3 41/5/3
f 44/5/3 42/5/3 43/5/3
f 45/5/3 43/5/3 41/5/3
f 46/5/3 42/5/3 44/5/3
f 47/5/3 45/5/3 41/5/3
f 47/5/3 46/5/3 45/5/3
f 48/5/3 42/5/3 46/5/3
f 48/5/3 46/5/3 47/5/3
f 49/3/4 50/3/4 51/3/4
f 51/3/4 50/3/4 52/3/4
f 51/1/4 52/1/4 53/1/4
f 52/3/4 50/3/4 54/3/4
f 53/1/4 52/1/4 54/1/4
f 51/1/4 53/1/4 55/1/4
f 53/4/4 54/4/4 56/4/4
f 55/1/4 53/1/4 56/1/4
f 51/1/4 55/1/4 57/1/4
f 55/4/4 56/4/4 58/4/4
f 57/1/4 55/1/4 58/1/4
f 51/1/4 57/1/4 59/1/4
f 57/4/4 58/4/4 60/4/4
f 59/1/4 57/1/4 60/1/4
f 56/4/4 54/4/4 61/4/4
f 60/4/4 58/4/4 61/4/4
f 58/4/4 56/4/4 61/4/4
f 54/3/4 50/3/4 62/3/4
f 61/4/4 54/4/4 62/4/4
f 51/1/4 59/1/4 63/1/4
f 60/4/4 61/4/4 64/4/4
f 63/1/4 59/1/4 64/1/4
f 59/4/4 60/4/4 64/4/4
f 64/4/4 61/4/4 65/4/4
f 61/1/4 62/1/4 66/1/4
f 65/4/4 61/4/4 66/4/4
f 51/1/4 63/1/4 67/1/4
f 64/4/4 65/4/4 68/4/4
f 67/1/4 63/1/4 68/1/4
f 63/4/4 64/4/4 68/4/4
f 68/4/4 65/4/4 69/4/4
f 65/1/4 66/1/4 70/1/4
f 69/4/4 65/4/4 70/4/4
f 51/1/4 67/1/4 71/1/4
f 68/4/4 69/4/4 72/4/4
f 71/1/4 67/1/4 72/1/4
f 67/4/4 68/4/4 72/4/4
f 72/4/4 69/4/4 73/4/4
f 69/1/4 70/1/4 74/1/4
f 73/4/4 69/4/4 74/4/4
f 51/1/4 71/1/4 75/1/4
f 72/4/4 73/4/4 76/4/4
f 75/1/4 71/1/4 76/1/4
f 71/4/4 72/4/4 76/4/4
f 76/4/4 73/4/4 77/4/4
f 73/1/4 74/1/4 78/1/4
f 77/4/4 73/4/4 78/4/4
f 51/1/4 75/1/4 79/1/4
f 76/4/4 77/4/4 80/4/4
f 79/1/4 75/1/4 80/1/4
f 75/4/4 76/4/4 80/4/4
f 80/4/4 77/4/4 81/4/4
f 77/1/4 78/1/4 82/1/4
f 81/4/4 77/4/4 82/4/4
f 51/1/4 79/1/4 83/1/4
f 80/4/4 81/4/4 84/4/4
f 83/1/4 79/1/4 84/1/4
f 79/4/4 80/4/4 84/4/4
f 84/4/4 81/4/4 85/4/4
f 81/1/4 82/1/4 86/1/4
f 85/4/4 81/4/4 86/4/4
f 51/1/4 83/1/4 87/1/4
f 84/4/4 85/4/4 88/4/4
f 87/1/4 83/1/4 88/1/4
f 83/4/4 84/4/4 88/4/4
f 88/4/4 85/4/4 89/4/4
f 85/1/4 86/1/4 90/1/4
f 89/4/4 85/4/4 90/4/4
f 51/1/4 87/1/4 91/1/4
f 88/4/4 89/4/4 92/4/4
f 91/1/4 87/1/4 92/1/4
f 87/4/4 88/4/4 92/4/4
f 92/4/4 89/4/4 93/4/4
f 89/1/4 90/1/4 94/1/4
f 93/4/4 89/4/4 94/4/4
f 51/1/4 91/1/4 95/1/4
f 92/4/4 93/4/4 96/4/4
f 95/1/4 91/1/4 96/1/4
f 91/4/4 92/4/4 96/4/4
f 96/4/4 93/4/4 97/4/4
f 93/1/4 94/1/4 98/1/4
f 97/4/4 93/4/4 98/4/4
f 51/1/4 95/1/4 99/1/4
f 96/4/4 97/4/4 100/4/4
f 99/1/4 95/1/4 100/1/4
f 95/4/4 96/4/4 100/4/4
f 100/4/4 97/4/4 101/4/4
f 97/1/4 98/1/4 102/1/4
f 101/4/4 97/4/4 102/4/4
f 51/1/4 99/1/4 103/1/4
f 100/4/4 101/4/4 104/4/4
f 103/1/4 99/1/4 104/1/4
f 99/4/4 100/4/4 104/4/4
f 104/4/4 101/4/4 105/4/4
f 101/1/4 102/1/4 106/1/4
f 105/4/4 101/4/4 106/4/4
f 49/3/4 51/3/4 107/3/4
f 51/1/4 103/1/4 107/1/4
f 104/4/4 105/4/4 108/4/4
f 107/1/4 103/1/4 108/1/4
f 103/4/4 104/4/4 108/4/4
f 108/4/4 105/4/4 109/4/4
f 105/1/4 106/1/4 110/1/4
f 109/4/4 105/4/4 110/4/4
f 108/4/4 109/4/4 111/4/4
f 107/4/4 108/4/4 111/4/4
f 109/1/4 110/1/4 112/1/4
f 111/4/4 109/4/4 112/4/4
f 107/4/4 111/4/4 113/4/4
f 111/1/4 112/1/4 114/1/4
f 113/4/4 111/4/4 114/4/4
f 106/1/4 102/1/4 115/1/4
f 114/1/4 112/1/4 115/1/4
f 66/1/4 62/1/4 115/1/4
f 70/1/4 66/1/4 115/1/4
f 112/1/4 110/1/4 115/1/4
f 74/1/4 70/1/4 115/1/4
f 110/1/4 106/1/4 115/1/4
f 102/1/4 98/1/4 115/1/4
f 98/1/4 94/1/4 115/1/4
f 94/1/4 90/1/4 115/1/4
f 90/1/4 86/1/4 115/1/4
f 86/1/4 82/1/4 115/1/4
f 82/1/4 78/1/4 115/1/4
f 78/1/4 74/1/4 115/1/4
f 62/3/4 50/3/4 116/3/4
f 115/1/4 62/1/4 116/1/4
f 107/4/4 113/4/4 117/4/4
f 113/1/4 114/1/4 118/1/4
f 117/4/4 113/4/4 118/4/4
f 114/1/4 115/1/4 118/1/4
f 118/1/4 115/1/4 119/1/4
f 115/4/4 116/4/4 120/4/4
f 119/1/4 115/1/4 120/1/4
f 107/4/4 117/4/4 121/4/4
f 118/1/4 119/1/4 122/1/4
f 121/4/4 117/4/4 122/4/4
f 117/1/4 118/1/4 122/1/4
f 122/1/4 119/1/4 123/1/4
f 119/4/4 120/4/4 124/4/4
f 123/1/4 119/1/4 124/1/4
f 49/3/4 107/3/4 125/3/4
f 107/4/4 121/4/4 125/4/4
f 122/1/4 123/1/4 126/1/4
f 125/4/4 121/4/4 126/4/4
f 121/1/4 122/1/4 126/1/4
f 126/1/4 123/1/4 127/1/4
f 123/4/4 124/4/4 128/4/4
f 127/1/4 123/1/4 128/1/4
f 126/1/4 127/1/4 129/1/4
f 125/1/4 126/1/4 129/1/4
f 127/4/4 128/4/4 130/4/4
f 129/1/4 127/1/4 130/1/4
f 120/4/4 116/4/4 131/4/4
f 130/4/4 128/4/4 131/4/4
f 124/4/4 120/4/4 131/4/4
f 128/4/4 124/4/4 131/4/4
f 116/3/4 50/3/4 132/3/4
f 131/4/4 116/4/4 132/4/4
f 125/1/4 129/1/4 133/1/4
f 129/4/4 130/4/4 134/4/4
f 133/1/4 129/1/4 134/1/4
f 130/4/4 131/4/4 134/4/4
f 134/4/4 131/4/4 135/4/4
f 131/1/4 132/1/4 136/1/4
f 135/4/4 131/4/4 136/4/4
f 125/1/4 133/1/4 137/1/4
f 134/4/4 135/4/4 138/4/4
f 137/1/4 133/1/4 138/1/4
f 133/4/4 134/4/4 138/4/4
f 138/4/4 135/4/4 139/4/4
f 135/1/4 136/1/4 140/1/4
f 139/4/4 135/4/4 140/4/4
f 125/1/4 137/1/4 141/1/4
f 138/4/4 139/4/4 142/4/4
f 141/1/4 137/1/4 142/1/4
f 137/4/4 138/4/4 142/4/4
f 142/4/4 139/4/4 143/4/4
f 139/1/4 140/1/4 144/1/4
f 143/4/4 139/4/4 144/4/4
f 125/1/4 141/1/4 145/1/4
f 142/4/4 143/4/4 146/4/4
f 145/1/4 141/1/4 146/1/4
f 141/4/4 142/4/4 146/4/4
f 146/4/4 143/4/4 147/4/4
f 143/1/4 144/1/4 148/1/4
f 147/4/4 143/4/4 148/4/4
f 125/1/4 145/1/4 149/1/4
f 146/4/4 147/4/4 150/4/4
f 149/1/4 145/1/4 150/1/4
f 145/4/4 146/4/4 150/4/4
f 150/4/4 147/4/4 151/4/4
f 147/1/4 148/1/4 152/1/4
f 151/4/4 147/4/4 152/4/4
f 125/1/4 149/1/4 153/1/4
f 150/4/4 151/4/4 154/4/4
f 153/1/4 149/1/4 154/1/4
f 149/4/4 150/4/4 154/4/4
f 154/4/4 151/4/4 155/4/4
f 151/1/4 152/1/4 156/1/4
f 155/4/4 151/4/4 156/4/4
f 125/1/4 153/1/4 157/1/4
f 154/4/4 155/4/4 158/4/4
f 157/1/4 153/1/4 158/1/4
f 153/4/4 154/4/4 158/4/4
f 158/4/4 155/4/4 159/4/4
f 155/1/4 156/1/4 160/1/4
f 159/4/4 155/4/4 160/4/4
f 125/1/4 157/1/4 161/1/4
f 158/4/4 159/4/4 162/4/4
f 161/1/4 157/1/4 162/1/4
f 157/4/4 158/4/4 162/4/4
f 162/4/4 159/4/4 163/4/4
f 159/1/4 160/1/4 164/1/4
f 163/4/4 159/4/4 164/4/4
f 125/1/4 161/1/4 165/1/4
f 162/4/4 163/4/4 166/4/4
f 165/1/4 161/1/4 166/1/4
f 161/4/4 162/4/4 166/4/4
f 166/4/4 163/4/4 167/4/4
f 163/1/4 164/1/4 168/1/4
f 167/4/4 163/4/4 168/4/4
f 49/3/4 125/3/4 169/3/4
f 125/1/4 165/1/4 169/1/4
f 166/4/4 167/4/4 170/4/4
f 169/1/4 165/1/4 170/1/4
f 165/4/4 166/4/4 170/4/4
f 170/4/4 167/4/4 171/4/4
f 167/1/4 168/1/4 172/1/4
f 171/4/4 167/4/4 172/4/4
f 170/4/4 171/4/4 173/4/4
f 169/4/4 170/4/4 173/4/4
f 171/1/4 172/1/4 174/1/4
f 173/4/4 171/4/4 174/4/4
f 169/4/4 173/4/4 175/4/4
f 173/1/4 174/1/4 176/1/4
f 175/4/4 173/4/4 176/4/4
f 169/4/4 175/4/4 177/4/4
f 175/1/4 176/1/4 178/1/4
f 177/4/4 175/4/4 178/4/4
f 49/3/4 169/3/4 179/3/4
f 169/4/4 177/4/4 179/4/4
f 177/1/4 178/1/4 180/1/4
f 179/4/4 177/4/4 180/4/4
f 49/3/4 179/3/4 181/3/4
f 179/1/4 180/1/4 181/1/4
f 136/1/4 132/1/4 182/1/4
f 181/1/4 180/1/4 182/1/4
f 140/1/4 136/1/4 182/1/4
f 180/1/4 178/1/4 182/1/4
f 176/1/4 174/1/4 182/1/4
f 174/1/4 172/1/4 182/1/4
f 178/1/4 176/1/4 182/1/4
f 172/1/4 168/1/4 182/1/4
f 164/1/4 160/1/4 182/1/4
f 160/1/4 156/1/4 182/1/4
f 156/1/4 152/1/4 182/1/4
f 152/1/4 148/1/4 182/1/4
f 148/1/4 144/1/4 182/1/4
f 144/1/4 140/1/4 182/1/4
f 168/1/4 164/1/4 182/1/4
f 132/3/4 50/3/4 182/3/4
f 49/3/4 181/3/4 183/3/4
f 181/3/4 182/3/4 183/3/4
f 182/3/4 50/3/4 184/3/4
f 183/3/4 182/3/4 184/3/4
f 187/5/5 186/5/5 185/5/5
f 188/5/5 186/5/5 187/5/5
f 189/3/5 188/3/5 187/3/5
f 190/3/5 188/3/5 189/3/5
f 193/5/5 192/5/5 191/5/5
f 194/5/5 192/5/5 193/5/5
f 197/5/5 196/5/5 195/5/5
f 198/5/5 196/5/5 197/5/5
f 199/5/6 200/5/6 201/5/6
f 201/5/6 200/5/6 202/5/6
f 203/5/6 204/5/6 205/5/6
f 205/5/6 204/5/6 206/5/6
f 207/5/6 208/5/6 209/5/6
f 209/5/6 208/5/6 210/5/6
f 209/3/6 210/3/6 211/3/6
f 211/3/6 210/3/6 212/3/6
